<svg width="900" height="800" viewBox="0 0 900 800" fill="none" xmlns="http://www.w3.org/2000/svg">
<g clip-path="url(#clip0_23_191)">
<ellipse cx="149.5" cy="757.5" rx="119.5" ry="8.5" fill="black" fill-opacity="0.26"/>
<ellipse cx="662" cy="757.5" rx="222" ry="8.5" fill="black" fill-opacity="0.26"/>
<rect x="293.918" y="205" width="28" height="106.187" rx="14" transform="rotate(33.0547 293.918 205)" fill="#D9D9D9"/>
<path d="M527.044 328.836C503.753 320.831 466.999 306 466.999 328.504C471.637 331.18 525.063 342.3 536.966 344C571.038 294.202 582.117 284.579 555.294 285.579C540.857 282.57 537.816 307.988 527.044 328.836Z" fill="#254783"/>
<path d="M527.044 328.836C503.753 320.831 466.999 306 466.999 328.504C471.637 331.18 525.063 342.3 536.966 344C571.038 294.202 582.117 284.579 555.294 285.579C540.857 282.57 537.816 307.988 527.044 328.836Z" fill="#254783"/>
<path d="M811.063 227.732L801.915 217.831C801.915 217.831 805.923 217.388 808.641 211.564C811.36 205.741 814.234 202.134 816.661 203.51C819.089 204.886 831.725 214.397 838.552 227.201C838.772 228.235 839.098 228.589 837.843 230.417C834.203 235.717 819.165 222.157 816.998 222.202C814.831 222.248 812.561 225.833 811.063 227.732Z" fill="white"/>
<path d="M812.794 225.549L812.979 225.749C812.979 225.749 812.959 225.639 812.964 225.394C814.776 223.708 814.989 222.23 816.756 222.52C818.576 222.818 834.781 236.239 838.359 229.934C839.476 227.966 839.316 227.717 839.1 226.671C832.265 213.749 824.77 208.779 822.318 207.402C819.866 206.024 818.206 211.895 815.41 217.812C813.268 222.346 812.981 224.592 812.964 225.394C812.909 225.446 812.852 225.497 812.794 225.549Z" fill="#C2CDDA"/>
<path d="M814.952 181.7L806.763 166.614C806.763 166.614 811.336 167.682 815.576 162.005C819.816 156.329 823.773 153.283 826.204 155.836C828.635 158.39 840.805 174.402 845.8 191.937C845.833 193.223 846.125 193.762 844.344 195.385C839.182 200.09 825.161 178.437 822.729 177.634C820.296 176.831 817.019 180.091 814.952 181.7Z" fill="white"/>
<path d="M817.149 180.26L817.326 180.586C817.326 180.586 817.288 180.447 817.233 180.193C819.245 178.572 819.71 177.465 822.197 178.364C824.717 179.276 840.027 202 845.213 197.133C847.002 195.454 846.687 194.875 846.621 193.509C841.041 174.777 829.029 158.77 826.465 156C823.902 153.23 823.696 161.226 819.483 167.146C815.842 172.263 816.883 178.574 817.233 180.193C817.206 180.215 817.178 180.238 817.149 180.26Z" fill="#C2CDDA"/>
<path d="M553.965 224C556.863 224.871 578.294 232.876 579.873 233.466C579.941 233.491 579.999 233.51 580.07 233.524C580.27 233.563 580.659 233.618 581.117 233.675C582.708 233.876 583.898 235.256 583.853 236.859C583.626 244.966 583.559 269.092 589.465 293.378C582.105 294.23 570.893 294.783 567.465 299C564.19 303.03 542.058 298.095 539.965 295.315C539.256 294.373 538.411 288.931 536.977 281.072C535.702 279.482 531.793 265.29 533.452 257.999C532.764 250.494 538.168 241.355 537.965 240C537.763 238.645 539.319 227.628 542.465 225.5C544.683 224 551.524 223.266 553.965 224Z" fill="#D9A160"/>
<path d="M534.465 248.5C533.755 249.842 561.462 250.169 563.82 254.808C566.178 259.446 571.209 277.502 567.365 281.267C563.521 285.033 537.965 284.5 537.965 284.5C537.965 284.5 537.906 289.555 537.965 290C538.059 290.7 539.965 295 539.965 295L550.755 292.762L559.192 290.876C565.693 289.359 569.394 288.946 576.141 289.38C576.141 289.38 580.229 290.701 580.807 293.243C581.211 295.024 581.495 295.815 581.457 295.909C581.445 295.909 581.432 295.908 581.42 295.907C581.439 295.922 581.452 295.923 581.457 295.909C589.599 296.301 598.241 288.73 617.165 286.132C635.097 283.67 643.004 282.67 661.623 285.162C662.966 285.162 717.133 288.815 748.966 286.132C760.466 285.162 818.966 228 818.966 228C818.966 228 798.982 217.478 798.466 213.625C797.95 209.773 755.966 253.146 744.05 260.979C740.054 263.606 673.877 253.146 673.877 253.146C673.877 253.146 727.745 238.98 746.466 233.5C782.161 223.053 820.88 190.092 820.466 187C820.052 183.908 808.966 162 808.966 162L792.966 173.5L770.465 195.5C760.403 198.163 742.738 211.366 732.58 213.625C700.787 220.698 679.534 211.385 648.873 222.494C628.319 229.941 628.915 232.489 612.606 235.175C596.449 237.835 576.168 232.234 576.168 232.234C575.72 238.641 575.899 239.977 572.776 242.663C563.867 250.323 538.025 237 537.525 237.5C537.025 238 535.465 244.5 535.465 244.5C535.465 244.5 535.176 247.158 534.465 248.5Z" fill="#6A67E3"/>
<path d="M492.224 252.783C494.659 262.628 500.935 258.989 515.708 255.653C530.482 252.318 537.04 254.206 534.606 244.362C528.588 234.403 523.47 226.024 508.697 229.359C493.924 232.694 493.929 243.733 492.224 252.783Z" fill="#FFC552"/>
<path d="M492.628 271.408C505.118 270.778 498.551 266.659 496.672 259.165C494.793 251.671 507.84 243.124 486.809 247.588C477.837 251.097 471.702 256.353 473.581 263.847C475.46 271.342 484.956 270.893 492.628 271.408Z" fill="#D58F02"/>
<path d="M592.722 292.952L592.552 293C592.552 293 591.315 288.405 590.465 285.774L610.291 279L614.465 286.226C606.306 289.091 599.946 290.898 592.722 292.952Z" fill="#5754DF"/>
<path d="M494.839 266.144C498.673 272.858 500.15 267.688 512.264 262.301C524.379 256.913 535.181 257.626 534.582 251.694C532.279 245.897 514.234 243.36 502.119 248.748C490.005 254.135 491.148 259.682 494.839 266.144Z" fill="#FFDA6A"/>
<path d="M537.454 273.468C545.941 276.38 547.502 274.658 547.502 274.658C547.502 274.658 559.342 264.243 544.89 257.365C536.437 255.128 534.22 254.08 527.788 253.531C523.541 259.375 529.99 270.908 537.454 273.468Z" fill="#D6BAD6"/>
<path d="M524.437 251.659C533.016 255.819 541.634 257.236 543.579 266.645C545.523 276.053 540.778 279.337 520.324 276.974C507.743 273.919 499.061 266.051 501.146 259.37C503.807 253.168 516.52 247.819 524.437 251.659Z" fill="#D6BAD6"/>
<path d="M542.495 265.115L540.969 262.294C542.891 264.195 544.021 267.936 543.564 271.547C543.107 275.159 538.679 276.375 537.885 276.559C537.441 276.354 538.412 275.889 538.412 275.889C538.412 275.889 542.007 274.893 542.31 273.191C543.518 272.359 542.98 270.809 543.428 269.315C543.559 267.984 542.495 265.115 542.495 265.115Z" fill="#C19CC1"/>
<path d="M526.389 252.831C529.404 254.682 532.065 254.878 532.623 253.214C533.181 251.549 531.315 248.617 528.156 247.556C524.998 246.496 521.742 247.708 521.184 249.373C520.627 251.038 522.868 252.487 526.389 252.831Z" fill="#D6BAD6"/>
<path d="M527.702 274.925C528.774 275.285 532.457 273.627 533.201 271.408C533.944 269.19 532.006 265.644 530.933 265.284C529.861 264.924 530.061 267.886 529.318 270.104C528.574 272.323 526.63 274.565 527.702 274.925Z" fill="#D9D9D9"/>
<path d="M534.553 261.975C535.928 267.373 536.073 266.342 536.116 268.899C536.16 271.503 534.718 274.968 534.718 274.968C536.561 270.682 537.358 267.913 534.553 261.975Z" fill="#C19CC1"/>
<path d="M519.66 249.654C520.945 250.035 521.27 250.501 521.209 251.743C520.518 251.335 520.117 251.29 519.377 251.661C519.084 251.049 518.557 250.757 517.478 250.252C518.849 250.511 519.379 250.42 519.66 249.654Z" fill="#C19CC1"/>
<path d="M514.621 250.336C515.026 249.563 514.97 249.618 515.753 249.232C516.535 248.846 516.975 248.67 517.773 248.585C518.571 248.501 519.025 248.777 519.78 249.057C520.512 249.328 521.006 249.42 521.558 249.972C522.056 250.47 522.434 251.548 522.434 251.548" stroke="#C19CC1" stroke-width="0.25"/>
<path d="M454.73 322.856C449.924 321.889 447.294 322.66 442.67 325.485C445.298 328.942 449.857 330.961 460.62 334.63C464.07 334.014 463.952 332.827 462.629 330.253L453.019 326.319C455.135 324.596 455.329 323.884 454.73 322.856Z" fill="#D6BAD6"/>
<path d="M453.492 315.074C449.189 316.627 447.061 317.142 443.893 317.408C442.131 319.66 443.272 320.276 446.23 321.095C449.486 319.9 451.23 319.504 453.89 320.277C461.321 327.013 464.895 329.627 468.964 329.743C474.685 327.427 475.965 325.602 470.664 320.274C462.013 315.965 458.051 314.589 453.492 315.074Z" fill="#D6BAD6"/>
<path d="M607.465 235V-32" stroke="black" stroke-width="5" stroke-linecap="square" stroke-linejoin="round"/>
<path d="M288.965 212.5L242.465 284C237.87 294.001 247.925 308.84 252.965 295C254.908 289.666 257.729 287.993 264.399 284.039L264.465 284C275.058 277.721 263.969 262.413 272.465 253.5C278.733 246.926 295.911 252.248 293.465 243.5C291.845 237.705 298.965 227 300.965 226.5C303.465 225 300.038 211.12 298.465 210.5C294.787 209.05 288.965 212.5 288.965 212.5Z" fill="#DC6177"/>
<path d="M602.965 244.5C581.739 250.312 562.076 241.794 537.465 237C535.813 241.468 535.188 243.988 534.465 248.5C534.58 249.695 566.983 258.946 603.465 253.5C604.465 264 605.465 263.5 607.965 273C580.487 280.871 566.886 284.006 537.465 284C537.469 289.019 537.495 291.184 539.965 295.5C585.854 288.78 595.726 285.923 609.965 279C611.469 284.201 613.965 287 613.965 287L622.465 285.5C613.913 267.606 610.157 257.198 610.465 235.5H603.465C603.187 237.843 602.653 242.158 602.965 244.5Z" fill="#D9D9D9"/>
<path d="M575.063 296.432C589.886 317.888 510.964 336.353 518.913 352.549C528.039 367.402 599.717 322.937 594.353 299.95C582.278 248.198 562.01 220.042 547.647 223.203C533.303 228.158 563.834 284.44 575.063 296.432Z" fill="#2F5598"/>
<path d="M575.063 296.432C589.886 317.888 510.964 336.353 518.913 352.549C528.039 367.402 599.717 322.937 594.353 299.95C582.278 248.198 562.01 220.042 547.647 223.203C533.303 228.158 563.834 284.44 575.063 296.432Z" fill="#2F5598"/>
<path d="M581.34 260L566.023 266.535C579.382 276.264 584.316 284.344 588.207 303.735C575.048 329.533 559.929 339.191 527.465 353C556.41 345.835 581.82 327.064 594.017 305.746C595.994 300.39 591.375 287.045 581.34 260Z" fill="#254783"/>
<path d="M557.211 270.682L582.751 260.122L575.132 246.155C575.132 246.155 566.31 233.104 564.379 230.649C559.562 224.523 547.803 220.175 545.018 221.58C540.703 224.779 540.833 229.379 543.409 240.16L549.03 254.176C552.104 260.995 553.704 265.207 557.211 270.682Z" fill="#D9A160"/>
<path d="M582.703 260.237C570.669 235.869 562.43 224.769 549.52 221.848C567.865 243.347 571.204 255.363 566.333 266.898L582.703 260.237Z" fill="#D28E3E"/>
<path d="M496.117 351.725L491.588 363.001C492.518 365.998 493.241 367.306 499.567 360.346C502.131 364.933 503.658 367.283 508.304 366.711C511.365 367.619 512.567 367.373 514.291 366.326C517.602 363.803 519.081 361.351 521.125 355.25C527.115 351.826 528.763 349.925 528.983 346.614C524.883 337.044 518.052 337.681 496.117 351.725Z" fill="#D6BAD6"/>
<path d="M570.465 290.5L540.465 295.5C541.246 297.802 558.683 302.624 567.465 299.5C568.958 297.489 570.394 296.574 574.465 295.5L570.465 290.5Z" fill="#D28E3E"/>
<path d="M662.465 257C749.741 233.365 778.938 229.107 820.465 187.5C820.465 187.5 809.805 183.158 799.965 196.5C781.822 221.101 726.014 239.387 699.465 237.5C673.32 235.642 662.465 257 662.465 257Z" fill="#5754DF"/>
<path d="M818.465 228.5C772.423 271.525 760.465 281.5 749.965 286C731.57 289.172 707.491 287.808 653.302 283.648C644.194 283.121 638.465 282.5 638.465 282.5C643.649 282.903 648.589 283.286 653.302 283.648C675.857 284.953 719.137 285.685 747.465 275C778.477 263.303 818.465 228.5 818.465 228.5Z" fill="#5754DF"/>
<path d="M302.986 214.25L306.827 207.415L325.596 221.544L315.961 242.445L626.603 428.365" stroke="#AC6829" stroke-width="5" stroke-linecap="round" stroke-linejoin="round"/>
<path d="M139.942 721H114.037C114.037 721 118.663 726.072 114.037 735.372C109.411 744.671 108.103 751.798 113.219 753.125C118.334 754.453 148.26 758.87 175.205 753.125C176.948 752.28 177.873 752.28 178.799 748.898C181.481 739.097 142.717 736.217 139.942 733.681C137.167 731.145 139.235 724.734 139.942 721Z" fill="#4E86CA"/>
<path d="M140.04 726H140.552C140.552 726 140.368 726.09 140.026 726.346C139.872 729.279 139.03 730.475 140.951 733.153C142.945 735.933 181.441 739.546 178.802 748.761C177.891 751.94 176.981 751.94 175.267 752.734C148.756 758.135 131.731 755.323 126.738 754.826C121.746 754.329 128.206 745.074 132.758 736.332C136.225 729.673 138.932 727.164 140.026 726.346C140.032 726.233 140.037 726.118 140.04 726Z" fill="#2D609D"/>
<path d="M80.3766 726H54.0965C54.0965 726 58.7899 730.783 54.0965 739.551C49.4032 748.319 48.0767 755.038 53.2662 756.29C58.4557 757.541 88.8159 761.706 116.151 756.29C117.919 755.492 118.858 755.492 119.797 752.304C122.518 743.063 83.1919 740.348 80.3766 737.956C77.5614 735.565 79.6594 729.521 80.3766 726Z" fill="#4E86CA"/>
<path d="M79.7135 737.17C78.2741 733.255 79.6196 730.015 79.4314 730C79.4314 730 68.252 732.963 63.2715 741.154C58.291 749.345 52.0407 755.001 52.4315 756C52.8224 756.999 87.3087 762.03 116.034 756.291C117.856 755.494 118.823 755.494 119.791 752.307C122.595 743.071 81.153 741.085 79.7135 737.17Z" fill="#2D609D"/>
<path d="M144.508 404.065C151.046 449.122 198.403 426.325 191.97 446.047C181.604 458.089 136.997 452.326 126.953 414.914C120.416 369.857 124.34 325.843 135.44 329.409C145.871 331.857 149.043 352.059 144.508 404.065Z" fill="#2F4498"/>
<path d="M144.508 404.065C151.046 449.122 198.403 426.325 191.97 446.047C181.604 458.089 136.997 452.326 126.953 414.914C120.416 369.857 124.34 325.843 135.44 329.409C145.871 331.857 149.043 352.059 144.508 404.065Z" fill="#2F4498"/>
<path d="M125.259 328H70.4621C60.3052 328 53.0294 337.897 55.8669 347.649C62.4241 370.187 72.4937 407.499 75.7911 434.498C78.5069 456.734 65.2071 494.415 60.4909 506.868C59.7363 508.861 61.2141 511 63.3446 511H137.42C139.564 511 141.047 508.818 140.297 506.81C136.569 496.838 127.716 470.616 127.149 445.14C123.346 422.951 131.103 412.145 136.78 385.313C140.779 366.415 138.557 347.116 136.327 336.363C135.233 331.086 130.648 328 125.259 328Z" fill="#2F5598"/>
<path d="M83.9316 327.658C85.1836 327.658 87.6369 364.619 89.0027 369.007C90.3684 373.396 115.123 374.758 118.709 369.007C122.294 363.257 116.932 329 116.932 329C116.932 329 123.432 328 123.932 328H130.432L127.131 345.233L128.098 356.498C127.386 365.363 127.477 370.331 128.952 379.175C128.952 379.175 131.013 384.348 133.903 384.661C135.926 384.88 136.84 385.115 136.939 385.048C136.937 385.032 136.934 385.016 136.932 385C136.95 385.023 136.953 385.039 136.939 385.048C139.419 401.525 132.806 414.39 131.432 434C129.731 458.256 140.34 469.965 141.244 493.276C141.244 493.276 148.275 562.011 147.89 606.247C147.481 653.241 152.284 719.237 148.414 725.996C144.545 732.755 109.717 725.996 105.392 725.996C101.067 725.996 125.281 653.175 122.44 606.247C120.707 577.621 105.392 533.945 105.392 533.945C105.392 533.945 98.4257 573.741 95.1487 599.468C88.9005 648.521 89.401 725.996 85.9296 725.996H43.9316C43.9316 725.996 52.4956 712.799 53.4216 704C56.246 677.164 59.8921 654.5 59.8921 654.5C61.3421 640.722 67.5281 613.301 68.5193 599.468C71.6218 556.174 52.1706 528.513 59.8921 486C65.0684 457.5 74.0063 459.042 74.5584 437C75.1055 415.162 58.2724 378.045 58.2724 378.045C65.4428 375.033 72.3345 376.961 77.7918 370.016C86.8197 358.526 71.5576 329.136 70.9316 328C70.3057 326.864 77.7918 327.208 77.7918 327.208C77.7918 327.208 82.6797 327.658 83.9316 327.658Z" fill="#E20707"/>
<path d="M118.981 354.5C118.193 344.702 117.61 341.997 116.932 333.5C116.791 331.737 116.432 328 116.432 328H125.932C127.864 328 130.225 328.049 130.932 328.5C131.639 328.951 127.932 360 127.932 360C128.297 360.094 127.928 364.723 130 371.5C130.405 372.824 132.496 374.811 134 377C134.798 378.16 135.411 378.721 136 380C136.403 380.875 136.57 381.398 136.787 382.337C136.891 382.787 137 383.5 137 383.5L137.25 384.5L137.5 385.5C139.473 388.462 134.323 420.017 132.966 420.904C132.966 420.904 130.942 436.806 131.552 445.935C132.237 456.182 137.932 471 137.932 471C137.932 471 140.969 484.854 141.432 494.5C141.854 503.312 143.221 507.624 143.854 516.414C143.854 516.414 146.514 541.758 147.327 558.029C147.327 558.029 148.411 588.397 148.195 607.518C147.98 626.638 149.064 666.004 149.064 666.004C149.549 683.135 149.798 692.739 149.932 709.868C149.851 714.606 149.738 717.264 149.432 722C149.432 722 149.075 724.889 148.432 726C148.144 726.497 147.868 726.661 147.432 727C146.742 727.536 145.432 728 145.432 728C141.849 728.986 139.9 729.054 136.041 728.989C125.432 728.5 119.882 727.977 109.432 726.5L109.419 726.383C109.143 723.794 108.894 721.463 109.126 718.866C109.251 716.3 109.975 712.134 109.994 712.118C110.013 712.102 110.66 707.531 110.863 706.494C110.863 706.494 117.499 703.021 121.281 699.746C125.869 695.772 128.228 692.933 131.699 687.374C135.614 681.105 138.039 677.212 139.513 669.378C141.456 659.056 137.511 652.979 136.909 642.384C136.037 627.053 137.777 616.141 136.909 603.019L133.436 561.404C133.436 561.404 127.358 532.16 124.754 518.664C122.149 505.167 114.432 371.5 114.432 371.5C114.432 371.5 115.375 371.266 115.932 371C116.567 370.696 116.884 370.442 117.432 370C118.076 369.48 118.432 369.5 118.932 368.5C119.432 367.5 119.47 360.585 118.981 354.5Z" fill="#AD0202"/>
<path d="M93.8483 608C101.031 563.532 103.071 546.349 105.932 527C100.907 531.905 99.6014 542.885 97.1816 550C95.2987 551.527 92.7421 576.508 93.015 589.5C93.4507 610.242 90.5954 618.89 80.9316 640.5C71.2678 662.11 78.9302 669.211 72.1816 686C65.2131 703.336 45.9316 726 45.9316 726L86.765 727C88.3004 712.668 88.8902 701.623 89.9952 680.93L90.0983 679C90.0983 679 91.3613 644.722 91.3483 644C91.3353 643.278 93.8483 608 93.8483 608Z" fill="#AD0202"/>
<path d="M112.016 276.619C119.661 283.275 113.574 287.146 103.895 298.652C94.2158 310.158 92.914 316.809 85.2689 310.153C79.1499 300.284 74.0269 291.932 83.7058 280.425C93.3847 268.919 103.195 273.978 112.016 276.619Z" fill="#FFC552"/>
<path d="M129.163 288.663C123.574 301.237 121.728 292.956 114.408 288.218C107.088 283.481 92.7684 293.657 105.837 273.761C113.138 265.876 121.202 261.553 128.522 266.291C135.841 271.029 131.626 280.601 129.163 288.663Z" fill="#D58F02"/>
<path d="M126.357 281.172C131.742 288.153 127.136 300.976 116.069 309.813C105.001 318.651 91.5097 324.852 88.4891 311.467C88.2567 301.828 93.4876 288.794 104.555 279.956C115.623 271.118 120.971 274.192 126.357 281.172Z" fill="black"/>
<path d="M111.432 329.5C109.432 340 106.932 340.5 106.932 340.5C106.932 340.5 90.4702 345.969 92.0632 326.87C94.6815 316.832 94.9328 313.907 98.0132 307C105.909 306.375 113.191 320.264 111.432 329.5Z" fill="#734415"/>
<path d="M98.9316 301C99.0952 310.27 93.3537 323.12 104.108 327.765C114.862 332.41 123.178 326.303 126.181 311.981C129.892 295.2 126.852 284.761 118.454 284.221C110.43 281.442 98.742 290.249 98.9316 301Z" fill="#734415"/>
<path d="M100.095 323.549C98.6041 322.469 97.7806 318.55 98.0947 320.549C98.0971 320.49 98.3767 326.221 105.932 328.5C113.487 330.779 117.245 327.535 117.932 327C117.979 326.513 116.595 327.549 116.595 327.549C115.786 327.513 112.649 329.34 110.595 328.549C108.944 329.026 107.008 327.594 105.095 327.049C99.7137 325.514 101.586 324.629 100.095 323.549Z" fill="#653B11"/>
<path d="M99.5323 300.781C99.8072 304.289 98.7726 306.727 97.0392 306.457C95.3057 306.187 93.547 303.198 94.0397 299.925C94.5323 296.653 97.0897 294.336 98.8231 294.606C100.557 294.876 100.827 297.517 99.5323 300.781Z" fill="#734415"/>
<path d="M117.576 316.058C117.409 317.169 114.261 319.659 111.951 319.299C109.641 318.939 107.37 315.605 107.538 314.494C107.705 313.383 110.247 314.916 112.557 315.276C114.867 315.636 117.743 314.947 117.576 316.058Z" fill="#D9D9D9"/>
<path d="M96.9316 324C101.957 327.663 100.751 327.329 103.499 328.519C106.299 329.732 110.932 330 110.932 330C105.164 329.721 101.677 329.187 96.9316 324Z" fill="#653B11"/>
<path d="M188.306 419.779L183.817 416.116L198.099 412.453L201.363 415.07L200.139 419.779L203.812 430.767V444.895L195.651 450.128L186.674 442.802V429.198L188.306 419.779Z" fill="#F92727" stroke="black"/>
<rect x="138.932" y="403.558" width="71" height="61.7442" fill="#EFA056"/>
<ellipse cx="174.432" cy="466.349" rx="35.5" ry="14.6512" fill="#EFA056"/>
<ellipse cx="174.432" cy="405.651" rx="35.5" ry="14.6512" fill="#FFBE5C"/>
<ellipse cx="174.023" cy="405.128" rx="29.3793" ry="10.9884" fill="black"/>
<path d="M203.403 405.651C200.012 394.668 146.623 394.082 145.053 406.174C145.053 406.174 143.183 415.423 172.8 416.117C202.416 416.811 203.554 406.138 203.403 405.651Z" fill="#DC6177"/>
<path d="M209.932 440.186C183.515 454.54 167.838 453.373 138.932 441.239V453.87C168.591 466.613 184.205 466.697 209.932 451.765V440.186Z" fill="#E9E8E8"/>
<path d="M209.932 422.396C183.515 436.749 167.838 435.582 138.932 423.448V436.08C168.591 448.822 184.205 448.907 209.932 433.974V422.396Z" fill="#EAE9E9"/>
<path d="M187.082 421.349C186.42 418.571 183.409 415.593 183.409 415.593C183.513 415.182 192.406 408.694 196.875 412.454C198.194 413.563 198.775 414.507 199.731 416.117C202.97 421.569 201.779 426.549 202.179 433.384C202.466 438.274 201.693 440.606 200.955 445.419C200.401 449.033 202.372 453.386 199.731 454.837C194.018 457.977 196.059 443.849 192.386 446.465C190.136 448.068 188.306 455.884 185.449 450.651C181.977 444.29 184.56 438.449 185.449 430.768C185.881 427.041 187.94 424.953 187.082 421.349Z" fill="#DC6177"/>
<g style="mix-blend-mode:lighten">
<path d="M138.932 441.233C144.236 443.326 147.093 444.591 151.173 445.942V458.655C144.029 456.356 139.748 454.227 138.932 453.873V441.233Z" fill="#FCFCFC"/>
</g>
<g style="mix-blend-mode:lighten">
<path d="M138.932 423.442C144.236 425.535 147.093 426.801 151.173 428.151V440.868C144.029 438.569 139.748 436.436 138.932 436.082V423.442Z" fill="#FCFCFC"/>
</g>
<g style="mix-blend-mode:lighten">
<path d="M138.932 436C140.019 436.236 143.012 438.093 151.173 440.709V446.465C144.029 445.308 139.748 444.315 138.932 444.137V436Z" fill="#FFBE5C"/>
</g>
<g style="mix-blend-mode:lighten">
<path d="M138.932 411.407C139.685 413.075 150.871 419.728 151.173 418.523V428.151C144.029 426.531 139.748 423.571 138.932 423.322V411.407Z" fill="#FFBE5C"/>
</g>
<g style="mix-blend-mode:lighten">
<path d="M138.932 454C139.987 454.423 142.89 455.407 150.806 458.22V476.977C150.211 478.071 138.882 471.662 138.932 468.584V454Z" fill="#FFBE5C"/>
</g>
<path d="M139.261 438.679C141.413 434.394 148.113 434.03 151.024 430.189C154.799 425.206 136.858 432.689 128.432 434.203C125.2 434.784 124.643 437.235 122.932 439C119.597 442.439 120.432 451 120.432 451C121.293 449.487 152.403 461.63 159.58 451.926C161.839 448.871 162.857 445.805 161.575 442.206C159.022 435.038 135.806 445.558 139.261 438.679Z" fill="#734415"/>
<path d="M65.9314 403.707C70.2208 446.173 130.431 427 125.432 446C110.942 466.324 45.5467 446.592 46.7615 412.648C43.9883 366.452 52.0712 328.83 65.4316 328C79.5215 328.764 75.7864 349.038 65.9314 403.707Z" fill="#7097DC"/>
<path d="M65.9314 403.707C70.2208 446.173 130.431 427 125.432 446C110.942 466.324 45.5467 446.592 46.7615 412.648C43.9883 366.452 52.0712 328.83 65.4316 328C79.5215 328.764 75.7864 349.038 65.9314 403.707Z" fill="#7097DC"/>
<path d="M54.9478 404.19C55.456 412.656 56.7197 423.599 62.0667 427.75C68.6597 432.868 77.6989 435.661 86.8777 437.187C94.011 438.372 102.214 445.158 108.082 445.932C117.667 447.197 128.413 439.927 125.932 445.5C110.013 470.775 39.1944 443.09 45.1818 404.89C42.4162 366.758 52.2719 330.936 63.9316 328.5C68.4345 328.22 63.1648 330.58 61.6777 338.12C60.5086 344.047 61.4518 351.151 58.8377 362.082C57.3262 368.403 53.6973 374.585 52.2267 382.619C51.3005 387.68 55.7336 398.441 54.9478 404.19Z" fill="#2F4498"/>
<path d="M54.9478 404.19C55.456 412.656 56.7197 423.599 62.0667 427.75C68.6597 432.868 77.6989 435.661 86.8777 437.187C94.011 438.372 102.214 445.158 108.082 445.932C117.667 447.197 128.413 439.927 125.932 445.5C110.013 470.775 39.1944 443.09 45.1818 404.89C42.4162 366.758 52.2719 330.936 63.9316 328.5C68.4345 328.22 63.1648 330.58 61.6777 338.12C60.5086 344.047 61.4518 351.151 58.8377 362.082C57.3262 368.403 53.6973 374.585 52.2267 382.619C51.3005 387.68 55.7336 398.441 54.9478 404.19Z" fill="#2F4498"/>
<path d="M96.0181 300.667C95.7681 301.983 96.0336 302.486 97.1662 303C97.1193 302.199 97.2629 301.822 97.9316 301.333C97.5221 300.793 97.5036 300.19 97.5489 299C97.1513 300.337 96.8277 300.767 96.0181 300.667Z" fill="#653B11"/>
<path d="M98.9316 296.5C98.0591 296.506 98.1332 296.481 97.4316 297C96.73 297.519 96.3722 297.829 95.9316 298.5C95.491 299.171 95.5285 299.701 95.4316 300.5C95.3377 301.275 95.1936 301.756 95.4316 302.5C95.6462 303.171 96.4316 304 96.4316 304" stroke="#653B11" stroke-width="0.25"/>
</g>
<defs>
<clipPath id="clip0_23_191">
<rect width="800" height="900" fill="white" transform="matrix(0 -1 1 0 0 800)"/>
</clipPath>
</defs>
</svg>
