<svg width="1939" height="193" viewBox="0 0 1939 193" fill="none" xmlns="http://www.w3.org/2000/svg">
<path d="M0.0651855 0.5H1939V17.2738C1859.23 22.9831 1810.29 87.038 1756.93 86.4982C1714.14 86.0653 1644.43 -8.10739 1605.1 8.08833C1577.53 10.2315 1568.78 85.8048 1534.2 95.1393C1508 102.214 1514.86 117.482 1491.35 126.57C1467.84 135.657 1414.82 125.919 1398.2 109.243C1382.4 93.3765 1359 52.4183 1308.46 62.5559C1255.59 73.1622 1273.33 148.899 1227.29 146.203C1157.54 142.118 1140.65 54.2886 1093 54.2886C1045.36 54.2886 1010.67 91.1373 971.565 97.0846C854.565 97.0846 876.935 144.5 822.5 184.5C764.5 214.5 752.211 153.656 724.065 109.243C711.497 89.4107 656.638 14.8977 602.406 22.1189C545.237 29.7314 561.271 126.052 485.815 137.449C440.484 144.296 448.413 72.0759 398.646 66.9328C344.312 61.3178 316.312 114.958 261.788 119.942C213.756 124.331 209.696 40.8483 148.06 35.8085C87.6244 30.8667 0.0652146 97.0846 0.0652146 97.0846L0.0651855 0.5Z" fill="#FFBD0A"/>
</svg>
