<svg width="1939" height="265" viewBox="0 0 1939 265" fill="none" xmlns="http://www.w3.org/2000/svg">
<path d="M4.07997e-05 0.5H958.5H1938.93V57.7738C1859.16 63.4831 1810.23 127.538 1756.86 126.998C1714.07 126.565 1644.36 32.3926 1605.03 48.5883C1577.46 50.7315 1568.72 126.305 1534.14 135.639C1507.93 142.714 1514.79 157.982 1491.28 167.07C1467.77 176.157 1414.75 166.419 1398.14 149.743C1382.33 133.877 1358.94 92.9183 1308.4 103.056C1255.53 113.662 1273.26 189.399 1227.23 186.703C1157.48 182.618 1140.58 94.7886 1092.94 94.7886C1045.29 94.7886 1010.6 131.637 971.5 137.585C891.109 149.813 936.341 265 851.274 265C766.207 265 756.771 181.998 728.625 137.585C716.057 117.753 656.573 55.3977 602.341 62.6189C545.172 70.2314 561.206 166.552 485.75 177.949C440.419 184.796 448.348 112.576 398.581 107.433C344.247 101.818 316.247 155.458 261.722 160.442C213.691 164.831 209.631 81.3483 147.995 76.3085C87.5593 71.3667 9.30863e-05 137.585 9.30863e-05 137.585L4.07997e-05 0.5Z" fill="#FFBD0A"/>
</svg>
