<svg width="1939" height="195" viewBox="0 0 1939 195" fill="none" xmlns="http://www.w3.org/2000/svg">
<path d="M1939 195L0 195V177.964C79.7746 172.166 128.713 107.111 182.078 107.659C224.87 108.099 294.583 203.742 333.915 187.293C361.483 185.117 370.228 108.363 404.81 98.8829C431.02 91.6977 424.158 76.191 447.668 66.9618C471.177 57.7326 524.201 67.6225 540.816 84.5594C556.622 100.673 580.019 142.271 630.558 131.975C683.433 121.203 665.694 44.284 711.733 47.0221C781.485 51.1703 798.379 140.372 846.026 140.372C893.673 140.372 928.366 102.947 967.467 96.9072C1084.47 96.9072 1062.1 48.7514 1116.54 8.12679C1174.54 -22.3417 1186.83 39.4524 1214.98 84.5594C1227.54 104.701 1282.4 180.378 1336.64 173.043C1393.81 165.312 1377.78 67.4873 1453.23 55.9125C1498.57 48.9588 1490.64 122.306 1540.41 127.53C1594.74 133.232 1622.74 78.7543 1677.27 73.6933C1725.3 69.2352 1729.36 154.022 1791 159.14C1851.44 164.159 1939 96.9072 1939 96.9072L1939 195Z" fill="#F5F5F5"/>
</svg>
