<svg width="1939" height="193" viewBox="0 0 1939 193" fill="none" xmlns="http://www.w3.org/2000/svg">
<path d="M0 0H1938.93V16.7738C1859.16 22.4831 1810.23 86.538 1756.86 85.9982C1714.07 85.5653 1644.36 -8.60739 1605.03 7.58833C1577.46 9.73149 1568.72 85.3048 1534.14 94.6393C1507.93 101.714 1514.79 116.982 1491.28 126.07C1467.77 135.157 1414.75 125.419 1398.14 108.743C1382.33 92.8765 1358.94 51.9183 1308.4 62.0559C1255.53 72.6622 1273.26 148.399 1227.23 145.703C1157.48 141.618 1140.58 53.7886 1092.94 53.7886C1045.29 53.7886 1010.6 90.6373 971.5 96.5846C854.5 96.5846 876.87 144 822.435 184C764.435 214 752.146 153.156 724 108.743C711.432 88.9107 656.573 14.3977 602.341 21.6189C545.172 29.2314 561.206 125.552 485.75 136.949C440.419 143.796 448.348 71.5759 398.581 66.4328C344.247 60.8178 316.247 114.458 261.722 119.442C213.691 123.831 209.631 40.3483 147.995 35.3085C87.5592 30.3667 2.90267e-05 96.5846 2.90267e-05 96.5846L0 0Z" fill="#B38AC5"/>
</svg>
