<svg width="46" height="47" viewBox="0 0 46 47" fill="none" xmlns="http://www.w3.org/2000/svg">
<path fill-rule="evenodd" clip-rule="evenodd" d="M38.8701 7.94343L42.0518 16.7793C42.744 18.4902 42.5729 20.4294 41.5918 21.9926C40.757 23.1773 39.5489 24.0479 38.161 24.4651V37.4984C38.1308 38.9625 37.5201 40.3546 36.4632 41.3683C35.4064 42.382 33.99 42.9342 32.526 42.9034H14.011C12.5287 42.9603 11.0856 42.4203 10.0048 41.4043C8.92396 40.3884 8.29579 38.9814 8.26096 37.4984V24.6568C6.91154 24.3477 5.69609 23.6158 4.79179 22.5676C3.4915 20.9445 3.16902 18.7457 3.94846 16.8176L7.11096 7.96259C7.8568 6.07412 9.70022 4.85028 11.7301 4.89593H34.251C36.2777 4.8416 38.1226 6.0588 38.8701 7.94343ZM25.5904 39.7793H25.6068V39.8368C25.601 39.8177 25.5955 39.7985 25.5904 39.7793ZM25.5904 39.7793H20.7193C20.7375 39.6329 20.7375 39.4848 20.7193 39.3384V35.2943C20.7527 34.6861 21.0341 34.1183 21.4978 33.7234C21.9615 33.3285 22.5669 33.1412 23.1726 33.2051C24.3771 33.1168 25.4283 34.0142 25.5301 35.2176V39.3193C25.5301 39.4747 25.5504 39.6293 25.5904 39.7793ZM32.4301 39.7793H28.386C28.4042 39.6329 28.4042 39.4848 28.386 39.3384V35.2943C28.2819 32.4719 25.9189 30.263 23.096 30.3493C20.2657 30.2522 17.8908 32.4642 17.7868 35.2943V39.3959C17.7685 39.5423 17.7685 39.6904 17.7868 39.8368H13.9151C12.5033 39.9019 11.3041 38.8141 11.2318 37.4026V24.6184C13.7855 24.2329 15.8365 22.3116 16.3876 19.7884C17.0627 22.8495 19.8722 24.9587 23.0001 24.7526C26.0715 24.8813 28.7933 22.7895 29.4593 19.7884C29.9986 22.4704 32.2198 24.4898 34.941 24.7718V37.4984C34.8237 38.8046 33.7413 39.8127 32.4301 39.8368V39.7793ZM36.2635 21.3984C37.2796 21.3717 38.2209 20.8583 38.7935 20.0184V20.0759C39.1911 19.4059 39.2411 18.5851 38.9276 17.8718L35.7651 9.15093C35.4846 8.58057 34.8847 8.23885 34.251 8.28843H11.7301C11.1204 8.23268 10.5349 8.54045 10.2351 9.07426L7.07262 17.8718C6.66161 18.6852 6.73542 19.6595 7.26429 20.4018C7.742 20.9888 8.42939 21.3668 9.18096 21.4559C9.42291 21.4841 9.66733 21.4841 9.90929 21.4559C11.3841 21.5365 12.7161 20.5794 13.1101 19.1559C13.4026 17.5358 14.799 16.348 16.4451 16.3193C18.109 16.3185 19.5249 17.531 19.7801 19.1751C20.1703 20.6073 21.5196 21.5631 23.0001 21.4559C24.4928 21.5554 25.8419 20.5699 26.201 19.1176C26.4782 17.4858 27.8809 16.2846 29.536 16.2618C31.1936 16.2595 32.6072 17.4619 32.871 19.0984C33.2614 20.5413 34.6192 21.5054 36.1101 21.3984H36.2635Z" fill="black"/>
</svg>
