<svg width="1306" height="500" viewBox="0 0 1306 500" fill="none" xmlns="http://www.w3.org/2000/svg">
<g clip-path="url(#clip0_22_2)">
<path d="M1111.95 1.26331L1111.96 1.27454C1111.19 1.281 1110.41 1.34902 1109.61 1.472C1108.38 1.65313 1107.16 1.84252 1105.93 2.02994C1097.06 3.18936 1087.99 3.65224 1078.84 3.43187C1068.32 3.1258 1057.79 2.80302 1047.27 2.50953C1036.13 2.19344 1024.99 1.86898 1013.84 1.51096C1002.76 1.18059 991.663 0.766389 980.63 0.700192C967.377 0.746334 954.157 1.08164 941.416 3.47465C929.14 6.06733 917.136 9.70407 904.52 11.0132C888.767 13.1845 872.825 14.6755 856.504 14.173C826.96 14.1423 797.488 14.5477 767.718 13.2465C705.406 11.3815 643.112 9.70917 581.468 11.5279C556.011 12.1166 530.626 13.0534 505.205 13.8283C502.213 13.3056 499.218 12.7325 496.205 12.0128C490.624 10.5258 486.342 11.673 483.269 14.4633C481.458 14.4943 479.659 14.5883 477.847 14.6193C458.534 15.0019 427.78 14.9849 408.171 15.0453C398.164 15.069 388.164 15.1137 378.16 15.1605C334.394 15.5032 290.592 15.7681 247.391 18.9399C245.16 19.2239 242.349 19.4249 239.497 19.7806C198.997 16.4997 158.573 13.6978 118.264 11.6762C98.9444 10.2429 79.5992 8.54652 60.2385 6.82985C56.518 6.49966 50.2537 1.32302 49.0922 5.91882C48.9691 6.41025 48.9295 6.56505 48.8078 7.04393C51.501 7.60671 52.7492 7.86546 53.1619 8.32869C51.7097 7.89483 50.2626 7.53645 48.8078 7.04393L48.8005 7.04388C36.168 56.9192 34.9309 54.9709 50.8149 61.5064C51.9832 61.8485 53.1466 62.1214 54.314 62.4468C39.3604 64.5312 24.3652 66.4589 9.29365 68.076C-14.9556 70.5861 -39.5395 71.6024 -64.3629 71.2896C-85.7087 71.015 -93.0821 61.8403 -70.8716 125.121C-70.8159 125.637 -70.7576 126.075 -70.7032 126.601C-70.6678 126.953 -70.4538 127.021 -70.2052 127.008C-68.3817 131.872 -63.1736 127.488 -59.6758 127.783C-42.5466 128.87 -25.576 129.079 -8.68663 128.845C-7.98781 133.308 -6.26645 140.155 -4.01431 149.624C-10.6004 152.358 -16.4475 156.897 -19.3571 165.118C-38.9739 163.658 -58.5781 162.265 -78.2071 160.726C-107.438 162.08 -110.34 150.978 -93.2325 216.794C-92.263 220.523 -88.0427 218.739 -85.46 219.369C-84.4207 219.622 -83.3836 219.823 -82.3462 220.054C-82.9388 220.326 -83.2773 220.835 -83.0627 221.878C-70.2237 284.165 -74.4192 276.483 -49.3793 277.231C-38.7105 276.84 -28.0553 276.402 -17.3952 275.967C-16.1848 278.943 -14.4694 282.602 -12.1937 287.052C-13.0831 295.369 -13.4627 301.592 -13.31 306.112C-15.7464 306.106 -18.3962 306.101 -20.7315 306.088C-39.6948 306.186 -58.5632 306.835 -77.248 308.31C-80.4133 308.559 -83.625 308.632 -86.6973 309.259C-88.8671 309.704 -93.8879 308.15 -92.9251 311.52C-87.6862 329.852 -78.6095 346.672 -71.2572 364.174C-71.1585 364.157 -71.0568 364.154 -70.9583 364.134C-70.9471 364.218 -70.928 364.302 -70.9164 364.386C-70.8965 364.532 -70.941 364.641 -71.0042 364.735L-71.004 364.746C-70.8529 365.109 -70.6787 365.458 -70.5291 365.821C-59.9713 364.707 -49.3891 363.736 -38.7843 362.838C-40.7406 379.813 -29.5777 403.855 -12.3983 402.496C16.2829 401.256 44.8763 399.608 73.5275 398.228C73.1721 400.184 72.8223 402.153 72.4163 404.066C80.4939 411.988 88.0324 422.131 96.6481 427.83C101.21 430.848 105.767 428.8 110.303 429.127C116.092 429.543 121.86 429.774 127.627 430.052C141.796 430.736 155.933 431.227 170.075 431.752C173.521 435.514 178.073 437.744 183.698 437.306C204.905 436.399 226.098 435.253 247.296 434.174C254.788 434.387 262.284 434.618 269.777 434.824C269.308 436.183 268.843 437.548 268.345 438.876C275.144 446.79 281.039 456.924 288.737 462.617C292.814 465.632 297.707 463.586 302.194 463.913C307.922 464.328 313.652 464.56 319.38 464.837C339.938 465.838 360.494 466.562 381.051 467.319C430.687 468.865 480.317 470.09 529.952 471.572C580.848 472.837 631.712 472.572 682.559 471.711C691.173 471.459 699.783 471.117 708.394 470.781C762.241 478.175 818.155 482.781 874.359 484.451C1001.39 488.137 1124.72 476.687 1225.14 451.882C1234.68 450.85 1244.21 449.602 1253.73 448.333C1268.12 446.517 1282.46 444.373 1296.92 443.481C1307.09 442.93 1317.29 443.171 1327.49 443.434C1336.16 443.611 1344.85 444.015 1353.53 444.292C1370.39 444.763 1370.87 441.587 1365.23 411.932C1373.55 411.41 1381.68 410.873 1390 410.298C1397.53 410.578 1402.42 410.945 1405.3 409.165C1407.69 408.938 1410.07 408.695 1412.46 408.54C1413.44 408.483 1415.65 410.08 1415.41 408.641C1413.35 396.21 1412.03 387.185 1410.88 379.512C1411.02 376.27 1411.22 372.481 1411.38 368.526C1421.69 368 1432.01 367.511 1442.32 366.94C1477.12 365.524 1487.56 364.766 1520.88 364.555C1529.24 364.501 1540.23 373.626 1545.96 364.81C1546.83 363.469 1547.59 362.02 1548.29 360.512C1553.17 364.396 1558.03 368.282 1557.58 365.438C1556.08 356.031 1555.41 345.606 1553.98 335.811C1554.92 327.057 1555.42 317.96 1556.56 309.625C1556.92 307.002 1552.61 310.384 1548.04 314.061C1547.27 312.483 1546.42 310.953 1545.46 309.558C1541.05 303.188 1534.4 305.898 1527.85 308.238C1531.36 296.785 1529.21 281.794 1522.06 273.628C1521.89 264.995 1520.75 258.212 1518.89 252.792C1518.93 251.42 1518.93 250.038 1519.03 248.688C1518.78 248.701 1518.53 248.699 1518.27 248.705C1518.65 245.189 1518.41 242.162 1517.64 239.54C1532.99 238.321 1548.3 236.323 1563.62 234.53C1566.06 233.956 1568.55 233.849 1571.05 233.776C1572.96 234.45 1574.82 235.051 1575.44 233.591C1576.99 233.496 1578.54 233.359 1580.07 233.039C1581.96 232.644 1585.95 234.167 1585.67 231.322C1581.3 187.651 1583.28 178.503 1576.51 177.199C1576.67 176.408 1575.7 176.673 1574.56 177.104C1572.3 177.048 1569.5 177.306 1565.44 177.564C1560.71 178.154 1555.97 178.668 1551.24 179.196C1551.99 168.35 1548.66 156.666 1540.09 150.531C1542.28 150.119 1544.47 149.679 1546.65 149.148C1548.67 148.653 1552.87 150.377 1552.66 147.301C1548.45 84.0504 1552.52 91.5096 1527.17 93.278C1518.35 94.1341 1509.53 94.9629 1500.72 95.8445C1496.18 96.2989 1495.2 96.402 1491.46 96.7837C1492.28 90.4914 1491.91 89.3386 1487.71 89.1653C1487.69 88.5955 1487.03 89.0356 1486.56 89.1474C1486.04 89.1416 1485.46 89.1252 1484.84 89.1264C1483.05 89.0737 1481.02 88.9988 1479.56 88.9481C1478.13 88.8977 1476.7 88.8263 1475.28 88.7548C1463.45 88.1457 1451.62 87.3459 1439.81 85.7292C1426.1 83.8793 1412.38 82.8891 1398.65 81.6406C1396.02 81.4573 1393.4 81.3181 1390.77 81.1892C1398.73 64.8397 1392.06 36.325 1374.3 36.4683L1374.3 36.4794C1373.53 36.4858 1372.73 36.5536 1371.91 36.6765C1370.66 36.8574 1369.4 37.0468 1368.14 37.234C1359.07 38.3901 1349.93 38.8546 1340.8 38.6344C1330.32 38.3286 1319.83 38.0061 1309.35 37.7128C1298.25 37.3969 1287.15 37.0727 1276.05 36.715C1265.01 36.3849 1253.97 35.9708 1242.93 35.9046C1229.66 35.9507 1216.37 36.2857 1203.23 38.6763C1190.52 41.2664 1177.92 44.899 1165.08 46.2072C1161.65 46.6704 1158.22 47.0709 1154.78 47.4587C1151.06 47.139 1147.34 46.8191 1143.61 46.4826C1140.96 46.2992 1138.32 46.1597 1135.68 46.0308C1140.98 29.6652 1129.67 1.1228 1111.96 1.26635L1111.95 1.26331ZM-71.0042 364.735C-71.0844 364.546 -71.1785 364.363 -71.2572 364.174C-72.0057 364.295 -72.7572 364.402 -73.5014 364.545C-74.242 364.687 -71.5192 365.472 -71.0045 364.727L-71.0042 364.735ZM-61.2155 275.441C-61.8234 276.095 -63.5115 275.881 -64.5885 275.682C-63.4359 275.836 -62.3208 275.654 -61.2155 275.441Z" fill="url(#paint0_linear_22_2)" fill-opacity="0.5"/>
</g>
<defs>
<linearGradient id="paint0_linear_22_2" x1="627.592" y1="28.9576" x2="606.009" y2="543.302" gradientUnits="userSpaceOnUse">
<stop stop-color="#A53DFF"/>
<stop offset="0.407429" stop-color="#CDA8EE" stop-opacity="0.64"/>
<stop offset="0.580316" stop-color="#E4E4E4" stop-opacity="0"/>
</linearGradient>
<clipPath id="clip0_22_2">
<rect width="1306" height="500" fill="white"/>
</clipPath>
</defs>
</svg>
