<svg width="1306" height="500" viewBox="0 0 1306 500" fill="none" xmlns="http://www.w3.org/2000/svg">
<g clip-path="url(#clip0_32_2)">
<path d="M1102.6 24.3332L1102.61 24.3446C1101.83 24.3293 1101.05 24.3753 1100.25 24.4758C1099.02 24.6222 1097.79 24.777 1096.56 24.9297C1087.66 25.8388 1078.58 26.0458 1069.44 25.5676C1058.93 24.9651 1048.42 24.3457 1037.91 23.7559C1026.78 23.1258 1015.65 22.4876 1004.52 21.8154C993.451 21.1729 982.37 20.446 971.343 20.0689C958.094 19.7415 944.869 19.704 932.066 21.737C919.722 23.9827 907.621 27.2796 894.973 28.2326C879.164 29.9591 863.186 31.0001 846.887 30.0378C817.355 29.1745 787.884 28.7491 758.161 26.6093C695.927 22.9887 633.705 19.5613 572.035 19.6419C546.571 19.5128 521.169 19.7337 495.737 19.7918C492.761 19.185 489.783 18.5277 486.792 17.7234C481.255 16.0797 476.942 17.1058 473.792 19.8083C471.98 19.7883 470.18 19.8315 468.368 19.8115C449.051 19.6495 418.31 18.7657 398.707 18.2734C388.703 18.0151 378.706 17.7779 368.705 17.5427C324.946 16.6517 281.154 15.682 237.881 17.6348C235.643 17.8558 232.828 17.9776 229.966 18.2527C189.575 13.8317 149.247 9.89151 109.01 6.73456C89.7387 4.75733 70.449 2.51639 51.1443 0.254708C47.4346 -0.180217 41.3188 -5.53136 40.0282 -0.97012C39.8912 -0.482351 39.8473 -0.328732 39.7122 0.146526C42.3884 0.784996 43.6289 1.07882 44.0284 1.5535C42.589 1.07888 41.1525 0.679858 39.7122 0.146526L39.7048 0.146275C25.6716 49.6457 24.4899 47.6633 40.1834 54.6439C41.3416 55.0188 42.4969 55.3244 43.6546 55.6825C28.6482 57.3447 13.6047 58.849 -1.50649 60.0406C-25.8169 61.8663 -50.4197 62.1892 -75.2243 61.177C-96.5539 60.3008 -103.666 50.9219 -83.2477 114.803C-83.2066 115.32 -83.1607 115.76 -83.1211 116.287C-83.0957 116.64 -82.8837 116.714 -82.6348 116.708C-80.9491 121.622 -75.6195 117.386 -72.1314 117.78C-55.0397 119.35 -38.0816 120.036 -21.1924 120.279C-20.6197 124.76 -19.092 131.652 -17.1076 141.182C-23.7682 143.729 -29.7409 148.101 -32.881 156.236C-52.4489 154.224 -72.006 152.279 -91.5838 150.188C-120.842 150.717 -123.43 139.538 -108.184 205.81C-107.32 209.565 -103.051 207.9 -100.487 208.603C-99.4549 208.885 -98.424 209.115 -97.3935 209.375C-97.9935 209.631 -98.3463 210.13 -98.1611 211.178C-87.0827 273.802 -91.0601 266.005 -66.0512 267.459C-55.3757 267.369 -44.7123 267.231 -34.0442 267.097C-32.9182 270.106 -31.3066 273.812 -29.1572 278.324C-30.2806 286.613 -30.8355 292.822 -30.8102 297.345C-33.2455 297.271 -35.8941 297.191 -38.2281 297.112C-57.1866 296.675 -76.0659 296.792 -94.7848 297.74C-97.9558 297.9 -101.168 297.882 -104.257 298.422C-106.439 298.806 -111.414 297.111 -110.546 300.507C-105.826 318.98 -97.227 336.048 -90.371 353.751C-90.2718 353.737 -90.17 353.737 -90.071 353.719C-90.0622 353.803 -90.0455 353.888 -90.0362 353.972C-90.0205 354.119 -90.068 354.226 -90.1338 354.318L-90.1339 354.329C-89.9932 354.697 -89.8288 355.05 -89.6895 355.418C-79.1046 354.602 -68.4992 353.929 -57.8733 353.33C-60.3072 370.244 -49.8264 394.59 -32.6155 393.716C-3.91077 393.285 24.7177 392.444 53.3965 391.872C52.986 393.818 52.5809 395.776 52.1211 397.676C59.9722 405.823 67.2218 416.175 75.6735 422.114C80.1485 425.259 84.7611 423.341 89.2861 423.795C95.0615 424.374 100.82 424.768 106.578 425.208C120.722 426.291 134.839 427.181 148.961 428.104C152.3 431.962 156.786 434.319 162.422 434.039C183.646 433.73 204.863 433.182 226.082 432.702C233.566 433.125 241.052 433.568 248.536 433.985C248.029 435.33 247.526 436.681 246.99 437.995C253.564 446.098 259.171 456.393 266.706 462.301C270.696 465.43 275.645 463.523 280.121 463.976C285.835 464.553 291.556 464.945 297.274 465.384C317.795 466.964 338.323 468.267 358.85 469.603C408.423 472.547 457.999 475.171 507.573 478.051C558.413 480.75 609.263 481.919 660.115 482.491C668.732 482.482 677.349 482.383 685.965 482.29C739.583 491.199 795.345 497.378 851.48 500.632C978.358 507.897 1101.96 499.928 1203.04 477.963C1212.6 477.201 1222.16 476.221 1231.71 475.221C1246.15 473.812 1260.55 472.073 1275.03 471.588C1285.21 471.325 1295.4 471.853 1305.58 472.403C1314.25 472.825 1322.92 473.474 1331.59 473.994C1348.43 474.941 1349 471.78 1344.2 441.978C1352.53 441.69 1360.67 441.382 1369.01 441.043C1376.53 441.535 1381.4 442.039 1384.33 440.341C1386.72 440.182 1389.12 440.006 1391.51 439.918C1392.49 439.889 1394.65 441.547 1394.45 440.102C1392.74 427.618 1391.68 418.559 1390.75 410.857C1390.97 407.62 1391.28 403.839 1391.56 399.89C1401.88 399.654 1412.2 399.456 1422.53 399.176C1457.36 398.741 1467.81 398.278 1501.13 399.006C1509.48 399.187 1520.21 408.619 1526.19 399.968C1527.09 398.652 1527.89 397.225 1528.63 395.737C1533.4 399.757 1538.15 403.779 1537.78 400.923C1536.55 391.478 1536.18 381.038 1535.02 371.206C1536.21 362.483 1536.96 353.403 1538.34 345.103C1538.77 342.491 1534.37 345.751 1529.7 349.298C1528.97 347.699 1528.17 346.146 1527.24 344.724C1523.01 338.232 1516.29 340.754 1509.68 342.908C1513.51 331.558 1511.78 316.512 1504.86 308.148C1504.94 299.514 1503.99 292.702 1502.28 287.231C1502.37 285.862 1502.4 284.479 1502.54 283.133C1502.29 283.139 1502.04 283.13 1501.78 283.129C1502.26 279.625 1502.11 276.592 1501.41 273.95C1516.79 273.164 1532.15 271.598 1547.51 270.237C1549.97 269.733 1552.46 269.696 1554.96 269.694C1556.85 270.42 1558.69 271.074 1559.35 269.632C1560.91 269.581 1562.46 269.487 1564 269.211C1565.89 268.869 1569.84 270.504 1569.64 267.652C1566.51 223.875 1568.74 214.787 1562.02 213.293C1562.19 212.507 1561.22 212.744 1560.07 213.142C1557.81 213.023 1555 213.202 1550.93 213.346C1546.19 213.801 1541.44 214.182 1536.69 214.577C1537.75 203.756 1534.75 191.983 1526.36 185.608C1528.56 185.258 1530.76 184.881 1532.95 184.411C1534.99 183.973 1539.14 185.815 1539.02 182.735C1536.59 119.39 1540.45 126.961 1515.05 128.014C1506.22 128.621 1497.38 129.201 1488.54 129.834C1483.99 130.16 1483.01 130.236 1479.26 130.512C1480.26 124.245 1479.92 123.083 1475.73 122.791C1475.72 122.221 1475.05 122.642 1474.58 122.741C1474.06 122.72 1473.48 122.687 1472.86 122.671C1471.07 122.568 1469.04 122.436 1467.58 122.344C1466.16 122.253 1464.74 122.142 1463.31 122.03C1451.51 121.088 1439.7 119.955 1427.95 118.006C1414.29 115.771 1400.6 114.394 1386.91 112.759C1384.3 112.502 1381.67 112.289 1379.05 112.086C1387.47 95.9672 1381.6 67.2758 1363.85 66.9185L1363.85 66.9296C1363.07 66.9142 1362.28 66.9595 1361.46 67.0593C1360.19 67.2047 1358.93 67.3585 1357.67 67.5102C1348.57 68.4104 1339.42 68.6168 1330.3 68.1395C1319.83 67.5384 1309.36 66.9204 1298.89 66.3318C1287.8 65.7031 1276.72 65.0664 1265.63 64.3958C1254.61 63.7548 1243.58 63.0296 1232.55 62.6524C1219.28 62.3243 1205.99 62.2847 1192.78 64.304C1180.01 66.5348 1167.31 69.8109 1154.44 70.7567C1151 71.1231 1147.56 71.4266 1144.11 71.7174C1140.4 71.2929 1136.69 70.8683 1132.97 70.4269C1130.33 70.1688 1127.69 69.955 1125.05 69.7516C1130.81 53.5419 1120.31 24.6921 1102.6 24.3363L1102.6 24.3332ZM-90.1338 354.318C-90.2087 354.127 -90.2975 353.942 -90.371 353.751C-91.1225 353.851 -91.8768 353.937 -92.6246 354.058C-93.369 354.179 -90.6694 355.04 -90.1339 354.311L-90.1338 354.318ZM-77.8323 265.336C-78.4583 265.972 -80.1398 265.712 -81.2107 265.482C-80.0629 265.668 -78.9431 265.518 -77.8323 265.336Z" fill="url(#paint0_linear_32_2)" fill-opacity="0.5"/>
</g>
<defs>
<linearGradient id="paint0_linear_32_2" x1="775.5" y1="23.5" x2="762.424" y2="528.122" gradientUnits="userSpaceOnUse">
<stop offset="0.12806" stop-color="#EBC0EC"/>
<stop offset="0.436323" stop-color="#EBC0EC" stop-opacity="0.64"/>
<stop offset="0.823638" stop-color="#E4E4E4" stop-opacity="0"/>
</linearGradient>
<clipPath id="clip0_32_2">
<rect width="1306" height="500" fill="white"/>
</clipPath>
</defs>
</svg>
