<svg width="1280" height="479" viewBox="0 0 1280 479" fill="none" xmlns="http://www.w3.org/2000/svg">
<path d="M1082.23 0.693249L1082.24 0.704327C1081.48 0.726149 1080.72 0.809656 1079.94 0.948413C1078.74 1.15388 1077.54 1.3676 1076.35 1.57934C1067.68 2.91462 1058.8 3.55751 1049.83 3.51892C1039.51 3.42182 1029.19 3.30815 1018.88 3.22358C1007.95 3.12883 997.031 3.02561 986.097 2.88908C975.234 2.77879 964.351 2.58503 953.539 2.73793C940.553 3.04723 927.605 3.64498 915.167 6.29052C903.188 9.12644 891.496 13.0008 879.16 14.5602C863.765 17.0439 848.172 18.8512 832.17 18.6728C803.219 19.2288 774.348 20.2194 745.15 19.5096C684.055 18.8822 622.981 18.4472 562.611 21.4896C537.677 22.5837 512.82 24.0244 487.926 25.3039C484.984 24.8407 482.038 24.3272 479.071 23.6675C473.574 22.2916 469.4 23.5236 466.443 26.3744C464.669 26.4414 462.908 26.571 461.134 26.638C442.215 27.404 412.079 27.9977 392.866 28.4474C383.06 28.6699 373.262 28.9131 363.46 29.1586C320.581 30.3702 277.664 31.5049 235.393 35.5339C233.213 35.8621 230.463 36.1189 227.674 36.5312C187.925 34.0552 148.259 32.0565 108.721 30.8357C89.7618 29.7863 70.7724 28.4744 51.7674 27.1425C48.1153 26.8863 41.8762 21.835 40.8275 26.453C40.7164 26.9468 40.6806 27.1023 40.5707 27.5835C43.2207 28.0927 44.4489 28.3266 44.8623 28.7816C43.4309 28.3766 42.0058 28.0471 40.5707 27.5835L40.5635 27.5836C29.1556 77.6999 27.9055 75.7766 43.5974 81.9954C44.7489 82.3142 45.8942 82.564 47.0444 82.8661C32.432 85.2471 17.7758 87.4721 3.03862 89.3882C-20.6744 92.3793 -44.7443 93.8835 -69.0748 94.0638C-89.9968 94.213 -97.4006 85.1866 -74.405 148.014C-74.3404 148.528 -74.2748 148.965 -74.2112 149.49C-74.1697 149.841 -73.9587 149.905 -73.7153 149.887C-71.8338 154.714 -66.8157 150.227 -63.3825 150.453C-46.5765 151.2 -29.9429 151.071 -13.3976 150.502C-12.6259 154.95 -10.8059 161.762 -8.41478 171.185C-14.8153 174.049 -20.4565 178.703 -23.1476 186.98C-42.3985 185.91 -61.6357 184.907 -80.9001 183.757C-109.518 185.691 -112.577 174.65 -94.5324 240.112C-93.5098 243.822 -89.409 241.954 -86.866 242.533C-85.8426 242.765 -84.8225 242.946 -83.8014 243.155C-84.3768 243.44 -84.6986 243.956 -84.4681 244.993C-70.6749 307.013 -74.9356 299.416 -50.3844 299.667C-39.9377 299.065 -29.5053 298.414 -19.0679 297.768C-17.8239 300.72 -16.0718 304.344 -13.7552 308.748C-14.4648 317.081 -14.7157 323.31 -14.4781 327.826C-16.8656 327.869 -19.4623 327.916 -21.7509 327.95C-40.3311 328.424 -58.8076 329.448 -77.0881 331.293C-80.1849 331.605 -83.3307 331.742 -86.329 332.43C-88.4465 332.918 -93.3967 331.463 -92.3876 334.814C-86.8972 353.039 -77.6757 369.675 -70.1305 387.027C-70.0342 387.008 -69.9345 387.004 -69.8384 386.981C-69.8258 387.065 -69.8055 387.149 -69.7925 387.232C-69.7701 387.378 -69.8116 387.488 -69.8717 387.583L-69.8712 387.594C-69.7162 387.954 -69.5387 388.299 -69.385 388.66C-59.0611 387.337 -48.7105 386.155 -38.3364 385.046C-39.923 402.057 -28.5166 425.873 -11.709 424.173C16.3716 422.364 44.3582 420.148 72.4066 418.2C72.0963 420.163 71.7919 422.138 71.4313 424.059C79.5007 431.819 87.0851 441.81 95.6386 447.337C100.167 450.263 104.593 448.126 109.044 448.362C114.725 448.663 120.381 448.78 126.038 448.943C139.936 449.346 153.798 449.556 167.666 449.8C171.116 453.493 175.619 455.632 181.123 455.082C201.886 453.754 222.631 452.188 243.381 450.688C250.728 450.752 258.077 450.834 265.423 450.892C264.99 452.259 264.561 453.633 264.099 454.972C270.915 462.749 276.889 472.763 284.544 478.303C288.597 481.236 293.352 479.094 297.755 479.331C303.376 479.633 308.995 479.75 314.614 479.914C334.777 480.506 354.935 480.822 375.093 481.17C423.761 481.73 472.417 481.97 521.084 482.466C570.981 482.72 620.817 481.446 670.626 479.575C679.061 479.152 687.492 478.638 695.923 478.132C748.832 484.455 803.712 487.95 858.819 488.503C983.369 489.666 1103.99 475.77 1201.92 448.976C1211.24 447.755 1220.55 446.317 1229.86 444.859C1243.92 442.759 1257.94 440.33 1272.09 439.151C1282.05 438.398 1292.05 438.437 1302.04 438.497C1310.54 438.502 1319.06 438.734 1327.57 438.837C1344.11 438.974 1344.51 435.789 1338.41 406.252C1346.55 405.565 1354.51 404.866 1362.65 404.127C1370.04 404.257 1374.83 404.526 1377.62 402.69C1379.96 402.416 1382.29 402.125 1384.63 401.922C1385.59 401.846 1387.78 403.398 1387.52 401.965C1385.25 389.578 1383.79 380.58 1382.52 372.931C1382.58 369.688 1382.71 365.896 1382.79 361.938C1392.88 361.207 1402.98 360.513 1413.08 359.738C1447.15 357.631 1457.36 356.666 1490.01 355.793C1498.2 355.573 1509.15 364.478 1514.59 355.551C1515.42 354.192 1516.13 352.728 1516.79 351.207C1521.65 354.993 1526.49 358.782 1525.99 355.948C1524.33 346.572 1523.48 336.163 1521.88 326.398C1522.64 317.627 1522.95 308.521 1523.9 300.165C1524.2 297.536 1520.05 301.003 1515.64 304.77C1514.85 303.208 1514 301.695 1513.02 300.319C1508.58 294.038 1502.12 296.88 1495.74 299.349C1498.96 287.828 1496.56 272.883 1489.39 264.861C1489.06 256.233 1487.82 249.474 1485.88 244.092C1485.9 242.72 1485.87 241.337 1485.94 239.986C1485.69 240.004 1485.45 240.007 1485.2 240.018C1485.5 236.495 1485.21 233.474 1484.4 230.868C1499.42 229.344 1514.38 227.042 1529.36 224.945C1531.74 224.323 1534.18 224.167 1536.62 224.044C1538.51 224.68 1540.34 225.244 1540.92 223.772C1542.45 223.646 1543.96 223.478 1545.45 223.128C1547.29 222.696 1551.23 224.139 1550.9 221.3C1545.77 177.724 1547.53 168.539 1540.88 167.37C1541.02 166.576 1540.08 166.86 1538.96 167.313C1536.75 167.302 1534.01 167.616 1530.03 167.955C1525.41 168.638 1520.78 169.246 1516.15 169.868C1516.68 159.01 1513.19 147.394 1504.67 141.43C1506.81 140.974 1508.94 140.492 1511.07 139.917C1513.04 139.382 1517.19 141.022 1516.93 137.951C1511.56 74.7966 1515.7 82.1734 1490.89 84.445C1482.27 85.4759 1473.64 86.4797 1465.02 87.5362C1460.58 88.0807 1459.63 88.2031 1455.97 88.6591C1456.65 82.3516 1456.27 81.2064 1452.15 81.1165C1452.12 80.5473 1451.48 81.0005 1451.02 81.1214C1450.51 81.1259 1449.94 81.1213 1449.33 81.1346C1447.58 81.1176 1445.58 81.083 1444.15 81.0614C1442.75 81.0393 1441.36 80.9961 1439.95 80.9531C1428.36 80.5788 1416.75 80.0141 1405.15 78.6322C1391.67 77.055 1378.21 76.3375 1364.73 75.3618C1362.15 75.2307 1359.58 75.1437 1357 75.067C1364.49 58.5625 1357.39 30.1861 1339.99 30.682L1339.99 30.693C1339.23 30.7148 1338.46 30.7984 1337.66 30.9374C1336.43 31.1433 1335.2 31.3576 1333.97 31.5698C1325.11 32.9057 1316.15 33.5518 1307.21 33.5128C1296.93 33.4152 1286.65 33.301 1276.37 33.2159C1265.48 33.1206 1254.61 33.0167 1243.72 32.8796C1232.9 32.7687 1222.07 32.574 1211.25 32.7269C1198.25 33.0365 1185.23 33.6354 1172.4 36.2865C1160 39.1284 1147.73 43.0104 1135.17 44.5733C1131.82 45.1045 1128.46 45.5731 1125.1 46.029C1121.45 45.7833 1117.8 45.5375 1114.14 45.275C1111.54 45.1442 1108.95 45.0572 1106.35 44.9808C1111.23 28.5132 1099.59 0.200936 1082.24 0.696268L1082.23 0.693249ZM-69.8717 387.583C-69.9539 387.396 -70.0497 387.215 -70.1305 387.027C-70.8616 387.163 -71.596 387.286 -72.3223 387.442C-73.0453 387.599 -70.362 388.33 -69.8721 387.575L-69.8717 387.583ZM-62.0176 298.112C-62.6005 298.778 -64.2588 298.598 -65.3181 298.421C-64.1856 298.551 -63.0965 298.347 -62.0176 298.112Z" fill="url(#paint0_linear_13_27)" fill-opacity="0.5"/>
<defs>
<linearGradient id="paint0_linear_13_27" x1="845.523" y1="102.667" x2="840.875" y2="512.956" gradientUnits="userSpaceOnUse">
<stop stop-color="#A53DFF"/>
<stop offset="0.332571" stop-color="#CDA8EE" stop-opacity="0.64"/>
<stop offset="0.580316" stop-color="#E4E4E4" stop-opacity="0"/>
</linearGradient>
</defs>
</svg>
