<svg width="1306" height="500" viewBox="0 0 1306 500" fill="none" xmlns="http://www.w3.org/2000/svg">
<g clip-path="url(#clip0_31_2)">
<path d="M1119.13 27.5018L1119.14 27.5149C1118.36 27.5387 1117.58 27.6354 1116.79 27.7974C1115.57 28.037 1114.35 28.2865 1113.13 28.5335C1104.29 30.0889 1095.24 30.8256 1086.08 30.757C1075.55 30.6158 1065.02 30.455 1054.5 30.3287C1043.35 30.1887 1032.2 30.0387 1021.05 29.8494C1009.96 29.6912 998.853 29.4344 987.821 29.5873C974.572 29.9194 961.364 30.5924 948.692 33.686C936.489 37.0057 924.586 41.553 912.009 43.3636C896.318 46.2585 880.42 48.3536 864.09 48.1019C834.553 48.6844 805.099 49.7807 775.3 48.8672C712.952 47.9693 650.628 47.2986 589.049 50.7382C563.614 51.9668 538.26 53.6051 512.867 55.0528C509.861 54.4981 506.851 53.8838 503.819 53.0968C498.199 51.4572 493.95 52.902 490.953 56.2624C489.143 56.337 487.347 56.4857 485.537 56.5603C466.238 57.4168 435.491 58.0408 415.888 58.5229C405.884 58.7605 395.888 59.0228 385.888 59.2876C342.141 60.609 298.357 61.8395 255.252 66.491C253.029 66.8732 250.225 67.1695 247.383 67.6494C206.804 64.6222 166.314 62.1591 125.96 60.6154C106.606 59.327 87.2196 57.7284 67.817 56.1061C64.0885 55.7939 57.6854 49.8103 56.6487 55.2634C56.539 55.8465 56.5036 56.0301 56.3949 56.5984C59.1027 57.2067 60.3576 57.4862 60.7828 58.0248C59.3192 57.5427 57.8627 57.1497 56.3949 56.5984L56.3875 56.5985C45.11 115.778 43.8204 113.503 59.8777 120.89C61.055 121.27 62.2256 121.568 63.4015 121.928C48.508 124.703 33.5687 127.294 18.5446 129.52C-5.63084 132.993 -30.1813 134.708 -55.0071 134.859C-76.3552 134.982 -83.9756 124.298 -60.0551 198.584C-59.9855 199.191 -59.9154 199.708 -59.8467 200.328C-59.8018 200.743 -59.586 200.819 -59.3378 200.798C-57.3829 206.506 -52.2949 201.218 -48.7899 201.494C-31.6354 202.419 -14.6632 202.31 2.21579 201.68C3.03541 206.937 4.94194 214.989 7.45021 226.128C0.939828 229.495 -4.78286 234.979 -7.46887 244.751C-27.1206 243.437 -46.7578 242.203 -66.4238 240.796C-95.6115 243.007 -98.8136 229.954 -79.9258 307.34C-78.8555 311.725 -74.6846 309.53 -72.0854 310.219C-71.0395 310.497 -69.9972 310.713 -68.9538 310.963C-69.5389 311.298 -69.8635 311.906 -69.6207 313.132C-55.0964 386.44 -59.4992 377.454 -34.445 377.813C-23.7894 377.128 -13.1486 376.387 -2.50289 375.65C-1.21208 379.14 0.602069 383.427 2.99788 388.636C2.33416 398.479 2.12328 405.837 2.39849 411.173C-0.0374824 411.218 -2.6868 411.267 -5.02188 411.301C-23.978 411.813 -42.8243 412.975 -61.4646 415.109C-64.6223 415.47 -67.8313 415.623 -70.8859 416.428C-73.0431 417 -78.1049 415.268 -77.0509 419.229C-71.3163 440.775 -61.786 460.452 -53.961 480.973C-53.8628 480.951 -53.7611 480.945 -53.6632 480.919C-53.6497 481.018 -53.6284 481.117 -53.6146 481.216C-53.5907 481.389 -53.6322 481.518 -53.6928 481.63L-53.6923 481.643C-53.5315 482.069 -53.3478 482.477 -53.1884 482.903C-42.6634 481.367 -32.1101 479.997 -21.5321 478.714C-23.0278 498.807 -11.216 526.973 5.92246 525.007C34.5632 522.943 63.105 520.397 91.712 518.167C91.4096 520.485 91.1133 522.818 90.7592 525.086C99.0496 534.275 106.861 546.098 115.629 552.65C120.272 556.119 124.772 553.605 129.316 553.896C135.115 554.266 140.888 554.418 146.661 554.625C160.845 555.137 174.992 555.421 189.145 555.744C192.692 560.116 197.303 562.655 202.915 562.02C224.092 560.504 245.249 558.706 266.413 556.988C273.909 557.082 281.41 557.199 288.906 557.285C288.474 558.9 288.046 560.522 287.584 562.102C294.596 571.308 300.764 583.154 308.615 589.719C312.772 593.194 317.609 590.676 322.104 590.967C327.842 591.338 333.577 591.491 339.311 591.699C359.891 592.45 380.462 592.876 401.034 593.339C450.7 594.125 500.351 594.533 550.015 595.244C600.933 595.672 651.777 594.294 702.589 592.212C711.193 591.734 719.792 591.149 728.392 590.572C782.427 598.179 838.452 602.447 894.688 603.243C1021.79 604.937 1144.77 588.829 1244.5 557.424C1254.01 556.006 1263.5 554.331 1272.98 552.633C1287.32 550.187 1301.61 547.354 1316.04 545.997C1326.19 545.133 1336.4 545.205 1346.6 545.301C1355.27 545.329 1363.97 545.624 1372.65 545.769C1389.52 545.973 1389.92 542.211 1383.48 507.299C1391.78 506.508 1399.89 505.703 1408.19 504.85C1415.73 505.023 1420.63 505.354 1423.46 503.191C1425.84 502.874 1428.22 502.536 1430.6 502.303C1431.58 502.215 1433.83 504.055 1433.55 502.361C1431.15 487.72 1429.59 477.086 1428.24 468.046C1428.28 464.215 1428.38 459.735 1428.44 455.059C1438.73 454.221 1449.03 453.428 1459.33 452.538C1494.08 450.136 1504.49 449.021 1537.81 448.075C1546.16 447.835 1557.4 458.384 1562.88 447.851C1563.72 446.248 1564.44 444.52 1565.09 442.725C1570.08 447.21 1575.04 451.699 1574.51 448.349C1572.76 437.269 1571.81 424.968 1570.11 413.427C1570.82 403.067 1571.07 392.31 1571.98 382.441C1572.27 379.335 1568.06 383.421 1563.59 387.859C1562.77 386.012 1561.89 384.223 1560.88 382.595C1556.3 375.162 1549.73 378.503 1543.24 381.404C1546.45 367.801 1543.89 350.138 1536.51 340.643C1536.11 330.448 1534.79 322.46 1532.78 316.096C1532.79 314.475 1532.75 312.842 1532.81 311.246C1532.56 311.267 1532.31 311.27 1532.06 311.281C1532.34 307.12 1532.02 303.55 1531.17 300.469C1546.49 298.708 1561.74 296.027 1577.01 293.587C1579.43 292.858 1581.92 292.68 1584.41 292.542C1586.34 293.297 1588.22 293.969 1588.8 292.231C1590.35 292.086 1591.9 291.891 1593.41 291.482C1595.29 290.976 1599.32 292.692 1598.96 289.336C1593.41 237.841 1595.14 226.995 1588.35 225.595C1588.48 224.658 1587.52 224.991 1586.39 225.524C1584.13 225.505 1581.34 225.868 1577.28 226.259C1572.57 227.054 1567.85 227.76 1563.13 228.484C1563.59 215.656 1559.94 201.924 1551.21 194.856C1553.39 194.324 1555.56 193.759 1557.73 193.085C1559.74 192.459 1563.98 194.407 1563.69 190.778C1557.76 116.151 1562.04 124.877 1536.74 127.497C1527.94 128.693 1519.15 129.857 1510.36 131.083C1505.83 131.715 1504.86 131.857 1501.13 132.386C1501.78 124.936 1501.38 123.582 1497.18 123.466C1497.14 122.793 1496.49 123.327 1496.03 123.468C1495.51 123.472 1494.92 123.465 1494.31 123.48C1492.51 123.455 1490.48 123.409 1489.02 123.38C1487.59 123.35 1486.16 123.296 1484.73 123.241C1472.9 122.769 1461.05 122.072 1449.2 120.41C1435.44 118.512 1421.69 117.63 1407.93 116.442C1405.3 116.281 1402.67 116.171 1400.05 116.074C1407.56 96.5946 1400.12 63.0515 1382.37 63.5927L1382.37 63.6057C1381.59 63.6296 1380.8 63.7263 1379.99 63.8885C1378.73 64.1286 1377.48 64.3787 1376.23 64.6262C1367.19 66.1818 1358.06 66.9221 1348.93 66.8531C1338.44 66.7114 1327.95 66.55 1317.46 66.4232C1306.36 66.2826 1295.25 66.1321 1284.14 65.942C1273.1 65.7833 1262.05 65.5255 1251.01 65.6784C1237.75 66.0108 1224.47 66.6849 1211.4 69.7841C1198.76 73.1098 1186.26 77.6647 1173.46 79.4789C1170.05 80.0979 1166.63 80.6429 1163.2 81.1729C1159.47 80.8732 1155.74 80.5734 1152.01 80.2539C1149.35 80.0928 1146.71 79.9834 1144.06 79.8864C1148.92 60.4436 1136.84 26.9647 1119.13 27.5054L1119.13 27.5018ZM-53.6928 481.63C-53.7781 481.409 -53.8771 481.195 -53.961 480.973C-54.706 481.132 -55.4545 481.274 -56.1946 481.458C-56.9312 481.641 -54.1878 482.511 -53.6934 481.621L-53.6928 481.63ZM-46.3269 375.946C-46.9169 376.732 -48.6104 376.515 -49.6925 376.302C-48.536 376.46 -47.4261 376.221 -46.3269 375.946Z" fill="url(#paint0_linear_31_2)"/>
</g>
<defs>
<linearGradient id="paint0_linear_31_2" x1="878.325" y1="147.369" x2="870.75" y2="631.996" gradientUnits="userSpaceOnUse">
<stop stop-color="#EBC0EC"/>
<stop offset="1" stop-color="#E4E4E4" stop-opacity="0"/>
</linearGradient>
<clipPath id="clip0_31_2">
<rect width="1306" height="500" fill="white"/>
</clipPath>
</defs>
</svg>
