<svg width="1271" height="833" viewBox="0 0 1271 833" fill="none" xmlns="http://www.w3.org/2000/svg">
<path d="M1095 769.353L969.08 160.592" stroke="#0B2749" stroke-width="20" stroke-linecap="round"/>
<path d="M1213 769.353L1087.08 160.592" stroke="#0B2749" stroke-width="20" stroke-linecap="round"/>
<path d="M843.493 768.443L969.409 159.682" stroke="#186CD3" stroke-width="20" stroke-linecap="round"/>
<path d="M1104.88 244.308H984.901" stroke="#0B2749" stroke-width="20"/>
<path d="M1014.57 380.802H1134.55" stroke="#0B2749" stroke-width="20"/>
<path d="M1042.25 515.703H1162.24" stroke="#0B2749" stroke-width="20"/>
<path d="M1068.62 652.424H1188.61" stroke="#0B2749" stroke-width="20"/>
<path d="M962.486 769.353L1088.4 160.592" stroke="#186CD3" stroke-width="20" stroke-linecap="round"/>
<path d="M964.302 776.404C1021.17 553.772 1048.61 407.632 1091.45 151C1096.98 153.538 1101.14 157.388 1100.36 162.073C1057.02 403.81 983.388 770.452 972.219 775.923C961.049 781.393 964.63 778.278 964.302 776.404Z" fill="#93BDF1"/>
<path d="M841.999 775.923C898.862 553.29 929.096 407.632 971.937 151C977.461 153.538 981.626 157.388 980.842 162.073C937.504 403.81 863.871 770.452 852.702 775.923C841.532 781.393 842.326 777.796 841.999 775.923Z" fill="#93BDF1"/>
<path d="M864.906 649.734H984.889" stroke="#186CD3" stroke-width="20"/>
<path d="M902.753 510.822H1022.74" stroke="#186CD3" stroke-width="20"/>
<path d="M922.673 380.591H1042.66" stroke="#186CD3" stroke-width="20"/>
<path d="M949.961 257.73H1069.94" stroke="#186CD3" stroke-width="20"/>
<path d="M681.2 748.131L705.474 750.664C705.474 750.664 701.044 756.324 704.273 764.545C707.502 772.767 708.666 778.114 704.101 780.172C699.537 782.23 676.427 800.908 651.816 793.266C650.51 792.236 648.871 789.572 647.916 786.277C645.161 776.772 677.327 762.558 680.14 760.379C682.952 758.201 681.55 751.807 681.2 748.131Z" fill="#FFC552"/>
<path d="M707.872 777.511C710.77 773.611 701.973 756.73 704.651 753.854L681.298 754.669C681.407 758.565 680.323 760.158 676.466 762.011C676.466 762.011 686.382 767.819 690.156 771.801C693.929 775.783 695.793 784.854 695.793 784.854C695.793 784.854 704.912 781.496 707.872 777.511Z" fill="#C38302"/>
<path d="M758.168 746.292L785.245 747.338C785.245 747.338 780.237 752.976 784.756 763.843C789.276 774.709 789.966 780.99 785.244 782.626C780.522 784.262 756.083 809.059 728.322 802.002C726.811 800.89 724.831 797.872 723.572 794.054C719.939 783.039 754.751 763.656 757.737 760.855C760.724 758.055 758.78 750.609 758.168 746.292Z" fill="#FFC552"/>
<path d="M786.678 781.872C791.47 778.22 786.007 768.352 783.616 754.489L759.126 756.148C757.373 760.664 752.877 764.046 744.585 769.425C759.283 775.758 765.188 781.784 769.841 793.489L779.407 786.85C779.407 786.85 783.93 783.965 786.678 781.872Z" fill="#C38302"/>
<path d="M674.285 125.046C674.847 124.611 638.045 85.3939 637.58 85.7627C628.363 93.0793 634.449 109.487 635.876 112.956C636.038 113.352 635.91 113.788 635.554 114.051L597.922 141.862C597.627 142.08 597.487 142.432 597.565 142.775C598.516 146.936 599.97 148.822 604.385 150.318C604.729 150.434 605.113 150.369 605.391 150.156L642.663 121.482C642.746 121.418 642.831 121.376 642.934 121.41C644.852 122.039 665.05 132.198 674.285 125.046Z" fill="#2F5598"/>
<rect width="58.117" height="9.72218" rx="1" transform="matrix(0.690437 0.723393 -0.782903 0.622144 642.015 79.4985)" fill="#78A6DD"/>
<rect width="53.8121" height="29.1665" transform="matrix(0.690437 0.723393 -0.782903 0.622144 666.335 62.9102)" fill="#FDDAA4"/>
<path d="M693.428 103.572C693.534 103.483 693.544 103.33 693.45 103.229C693.356 103.128 693.194 103.117 693.088 103.205L693.428 103.572ZM693.088 103.205L686.312 108.83L686.652 109.196L693.428 103.572L693.088 103.205ZM686.312 108.83L680.621 113.555L680.961 113.921L686.652 109.196L686.312 108.83Z" fill="#F7AE56"/>
<path d="M691.552 101.551C691.658 101.462 691.668 101.309 691.574 101.208C691.48 101.107 691.318 101.096 691.212 101.184L691.552 101.551ZM691.212 101.184L684.436 106.809L684.777 107.175L691.552 101.551L691.212 101.184ZM684.436 106.809L680.371 110.184L680.711 110.55L684.777 107.175L684.436 106.809Z" fill="#F7AE56"/>
<path d="M687.794 97.5062C687.9 97.418 687.91 97.2645 687.816 97.1633C687.722 97.0621 687.56 97.0516 687.454 97.1398L687.794 97.5062ZM687.454 97.1398L680.678 102.765L681.019 103.131L687.794 97.5062L687.454 97.1398ZM680.678 102.765L676.613 106.139L676.953 106.506L681.019 103.131L680.678 102.765Z" fill="#F7AE56"/>
<path d="M689.673 99.5274C689.779 99.4392 689.789 99.2857 689.695 99.1846C689.601 99.0834 689.439 99.0729 689.333 99.1611L689.673 99.5274ZM689.333 99.1611L682.557 104.786L682.898 105.152L689.673 99.5274L689.333 99.1611ZM682.557 104.786L676.866 109.511L677.206 109.877L682.898 105.152L682.557 104.786Z" fill="#F7AE56"/>
<path d="M685.915 95.484C686.021 95.3958 686.031 95.2423 685.937 95.1411C685.844 95.0399 685.681 95.0294 685.575 95.1176L685.915 95.484ZM685.575 95.1176L678.8 100.742L679.14 101.109L685.915 95.484L685.575 95.1176ZM678.8 100.742L673.108 105.467L673.448 105.834L679.14 101.109L678.8 100.742Z" fill="#F7AE56"/>
<path d="M684.038 93.4613C684.145 93.3731 684.154 93.2196 684.061 93.1184C683.967 93.0172 683.804 93.0067 683.698 93.0949L684.038 93.4613ZM683.698 93.0949L676.923 98.7197L677.263 99.086L684.038 93.4613L683.698 93.0949ZM676.923 98.7197L672.857 102.095L673.198 102.461L677.263 99.086L676.923 98.7197Z" fill="#F7AE56"/>
<path d="M681.288 91.8455C681.395 91.7573 681.404 91.6038 681.311 91.5027C681.217 91.4015 681.054 91.391 680.948 91.4792L681.288 91.8455ZM680.948 91.4792L674.173 97.1039L674.513 97.4703L681.288 91.8455L680.948 91.4792ZM674.173 97.1039L668.481 101.829L668.821 102.195L674.513 97.4703L674.173 97.1039Z" fill="#F7AE56"/>
<path d="M679.409 89.8245C679.516 89.7363 679.526 89.5828 679.432 89.4817C679.338 89.3805 679.175 89.37 679.069 89.4582L679.409 89.8245ZM679.069 89.4582L672.294 95.083L672.634 95.4493L679.409 89.8245L679.069 89.4582ZM672.294 95.083L668.228 98.4578L668.569 98.8242L672.634 95.4493L672.294 95.083Z" fill="#F7AE56"/>
<path d="M675.654 85.7816C675.76 85.6934 675.77 85.5399 675.676 85.4387C675.582 85.3375 675.419 85.327 675.313 85.4152L675.654 85.7816ZM675.313 85.4152L668.538 91.04L668.878 91.4063L675.654 85.7816L675.313 85.4152ZM668.538 91.04L664.473 94.4148L664.813 94.7812L668.878 91.4063L668.538 91.04Z" fill="#F7AE56"/>
<path d="M668.062 77.6063C668.168 77.5181 668.178 77.3646 668.084 77.2634C667.99 77.1622 667.828 77.1517 667.721 77.2399L668.062 77.6063ZM667.721 77.2399L660.946 82.8647L661.286 83.231L668.062 77.6063L667.721 77.2399ZM660.946 82.8647L656.881 86.2396L657.221 86.6059L661.286 83.231L660.946 82.8647Z" fill="#F7AE56"/>
<path d="M677.532 87.803C677.639 87.7149 677.649 87.5614 677.555 87.4602C677.461 87.359 677.298 87.3485 677.192 87.4367L677.532 87.803ZM677.192 87.4367L670.417 93.0615L670.757 93.4278L677.532 87.803L677.192 87.4367ZM670.417 93.0615L664.725 97.7863L665.066 98.1526L670.757 93.4278L670.417 93.0615Z" fill="#F7AE56"/>
<path d="M673.695 83.6722C673.801 83.584 673.811 83.4305 673.717 83.3293C673.623 83.2282 673.461 83.2176 673.354 83.3058L673.695 83.6722ZM673.354 83.3058L666.579 88.9306L666.919 89.297L673.695 83.6722L673.354 83.3058ZM666.579 88.9306L660.887 93.6554L661.228 94.0218L666.919 89.297L666.579 88.9306Z" fill="#F7AE56"/>
<path d="M671.818 81.6497C671.924 81.5615 671.934 81.408 671.84 81.3069C671.746 81.2057 671.584 81.1952 671.477 81.2834L671.818 81.6497ZM671.477 81.2834L664.702 86.9081L665.042 87.2745L671.818 81.6497L671.477 81.2834ZM664.702 86.9081L660.637 90.283L660.977 90.6494L665.042 87.2745L664.702 86.9081Z" fill="#F7AE56"/>
<path d="M669.939 79.6273C670.045 79.5391 670.055 79.3856 669.961 79.2844C669.867 79.1832 669.705 79.1727 669.598 79.2609L669.939 79.6273ZM669.598 79.2609L662.823 84.8857L663.163 85.252L669.939 79.6273L669.598 79.2609ZM662.823 84.8857L657.132 89.6105L657.472 89.9768L663.163 85.252L662.823 84.8857Z" fill="#F7AE56"/>
<path d="M665.941 75.3231C666.047 75.2349 666.057 75.0814 665.963 74.9802C665.869 74.879 665.707 74.8685 665.6 74.9567L665.941 75.3231ZM665.6 74.9567L658.825 80.5815L659.165 80.9478L665.941 75.3231L665.6 74.9567ZM658.825 80.5815L653.134 85.3063L653.474 85.6726L659.165 80.9478L658.825 80.5815Z" fill="#F7AE56"/>
<path d="M664.064 73.3021C664.17 73.2139 664.18 73.0604 664.086 72.9592C663.992 72.858 663.83 72.8475 663.723 72.9357L664.064 73.3021ZM663.723 72.9357L656.948 78.5605L657.288 78.9268L664.064 73.3021L663.723 72.9357ZM656.948 78.5605L652.883 81.9354L653.223 82.3017L657.288 78.9268L656.948 78.5605Z" fill="#F7AE56"/>
<path d="M662.185 71.2794C662.291 71.1912 662.301 71.0377 662.207 70.9365C662.113 70.8353 661.951 70.8248 661.845 70.913L662.185 71.2794ZM661.845 70.913L655.069 76.5378L655.409 76.9041L662.185 71.2794L661.845 70.913ZM655.069 76.5378L649.378 81.2626L649.718 81.6289L655.409 76.9041L655.069 76.5378Z" fill="#F7AE56"/>
<path d="M702.088 101.783C701.889 100.659 668.145 61.4261 663.943 61.3335C659.742 61.2408 656.019 68.4512 650.941 73.012C650.941 73.012 655.797 81.1955 660.078 81.2899C664.358 81.3843 664.7 92.9724 668.026 97.319C671.352 101.666 682.034 94.9815 687.466 101.166C690.002 104.054 687.401 109.711 691.549 109.803C695.698 109.894 702.286 102.908 702.088 101.783Z" fill="#EB7FED"/>
<path d="M691.575 263H771.835C782.094 263 789.384 273.074 786.336 282.87C777.886 310.023 763.524 359.356 758.988 394.522C755.374 422.54 773.505 470.411 779.305 484.793C780.111 486.793 778.641 489 776.485 489L677.328 489C675.158 489 673.676 486.767 674.482 484.753C679.1 473.209 691.24 439.952 692 407.665C696.96 380.262 679.437 356.06 679.437 333.78C679.437 311.5 679.437 297.5 662.999 279.5C657.337 276.503 667.757 270.804 675.599 266.915C680.312 264.577 686.314 263 691.575 263Z" fill="#F92727"/>
<path d="M629.774 221.768C623.947 159.662 637.369 148.471 632.65 146.886C601.972 134.311 602.16 177.494 602.803 241.429C641 281.658 688.852 300.827 694.51 286.582C701.297 274.888 684.096 256.135 629.774 221.768Z" fill="#D30909"/>
<path d="M629.774 221.768C623.947 159.662 637.369 148.471 632.65 146.886C601.972 134.311 602.16 177.494 602.803 241.429C641 281.658 688.852 300.827 694.51 286.582C701.297 274.888 684.096 256.135 629.774 221.768Z" fill="#D30909"/>
<path d="M748.642 262.616C747.012 262.616 743.819 308.331 742.04 313.758C740.262 319.185 708.034 320.871 703.367 313.758C698.699 306.646 705.68 264.277 705.68 264.277C705.68 264.277 697.218 263.04 696.567 263.04H688.105L692.402 284.353L691.142 298.286C692.07 309.251 691.951 315.395 690.031 326.333C690.031 326.333 687.347 332.731 683.585 333.118C680.952 333.39 679.761 333.68 679.633 333.598C679.636 333.578 679.639 333.558 679.642 333.538C679.618 333.566 679.614 333.586 679.633 333.598C676.404 353.976 685.013 369.887 686.803 394.142C689.017 424.141 675.205 438.623 674.028 467.454C674.028 467.454 664.875 552.466 665.376 607.178C665.908 665.3 659.655 746.925 664.693 755.285C669.731 763.644 715.073 755.285 720.703 755.285C726.334 755.285 694.81 665.219 698.509 607.178C700.765 571.773 720.703 517.755 720.703 517.755C720.703 517.755 729.773 566.974 734.039 598.794C742.173 659.463 741.522 755.285 746.041 755.285H800.718C800.718 755.285 789.568 738.962 788.363 728.08C784.686 694.889 779.939 666.858 779.939 666.858C778.051 649.818 769.998 615.902 768.707 598.794C764.668 545.247 789.992 511.036 779.939 458.456C773.2 423.207 761.564 425.113 760.845 397.852C760.133 370.842 782.048 324.936 782.048 324.936C772.713 321.21 763.74 323.596 756.636 315.006C744.882 300.795 764.752 264.445 765.567 263.04C766.382 261.635 756.636 262.061 756.636 262.061C756.636 262.061 750.272 262.616 748.642 262.616Z" fill="#404859"/>
<path d="M735.426 609.035C726.089 554.117 723.437 532.896 719.718 509C726.249 515.058 727.947 528.618 731.093 537.405C733.541 539.29 736.864 570.143 736.509 586.188C735.943 611.804 739.655 622.484 752.218 649.173C764.781 675.861 754.82 684.631 763.593 705.365C772.652 726.775 797.718 754.765 797.718 754.765L744.634 756C742.638 738.3 741.872 724.659 740.435 699.103L740.301 696.72C740.301 696.72 738.659 654.387 738.676 653.495C738.693 652.603 735.426 609.035 735.426 609.035Z" fill="#2C313B"/>
<path d="M704.855 295.778C705.953 283.658 706.765 280.313 707.711 269.803C707.907 267.623 708.408 263 708.408 263H695.167C692.474 263 689.184 263.06 688.199 263.618C687.214 264.177 691.718 302.5 691.718 302.5C691.208 302.617 692.385 308.422 689.497 316.805C688.933 318.442 686.019 320.9 683.922 323.607C682.811 325.043 681.956 325.736 681.135 327.318C680.573 328.4 680.34 329.048 680.038 330.208C679.892 330.765 679.741 331.647 679.741 331.647L679.393 332.884L679.044 334.121C676.294 337.785 683.472 376.815 685.363 377.911C685.363 377.911 688.184 397.581 687.334 408.872C686.379 421.546 678.443 439.875 678.443 439.875C678.443 439.875 674.209 457.01 673.565 468.942C672.976 479.841 671.071 485.174 670.188 496.047C670.188 496.047 666.482 527.394 665.348 547.52C665.348 547.52 663.837 585.082 664.138 608.732C664.439 632.382 662.928 681.072 662.928 681.072C662.251 702.262 661.905 714.14 661.718 735.328C661.831 741.188 661.987 744.476 662.415 750.333C662.415 750.333 662.912 753.906 663.809 755.281C664.21 755.896 664.595 756.098 665.202 756.518C666.163 757.181 667.99 757.755 667.99 757.755C672.983 758.974 675.699 759.059 681.078 758.978C695.864 758.373 703.652 757.326 718.218 755.5L718.226 755.433C718.614 752.204 718.916 749.695 718.59 746.457C718.415 743.284 717.406 738.13 717.38 738.11C717.354 738.09 716.452 732.436 716.17 731.154C716.17 731.154 706.92 726.858 701.649 722.807C695.254 717.892 691.967 714.38 687.129 707.504C681.673 699.751 678.293 694.935 676.238 685.246C673.531 672.479 679.029 664.962 679.868 651.858C681.084 632.894 678.658 619.397 679.868 603.167L684.709 551.694C684.709 551.694 693.179 515.523 696.809 498.829C700.439 482.135 711.218 317.5 711.218 317.5C711.218 317.5 709.994 316.83 709.218 316.5C708.333 316.124 707.482 315.547 706.718 315C705.819 314.357 705.62 314.331 704.924 313.094C704.227 311.857 704.173 303.304 704.855 295.778Z" fill="#2C313B"/>
<path d="M638.234 134.081C638.247 126.385 638.623 122.797 639.914 117.891C637.557 113.339 636.053 114.49 633.287 118.149C633.308 123.991 632.961 126.908 630.422 130.166C616.64 135.308 610.927 138.322 608.599 144.228C608.949 154.679 610.938 158.148 621.532 154.932C632.415 145.89 636.525 141.233 638.234 134.081Z" fill="#734415"/>
<path d="M626.281 132.98C631.833 125.634 632.569 120.585 631.261 110.545C623.042 112.242 615.826 118.34 600.731 133.601C599.065 139.911 601.262 140.651 606.875 140.457L621.517 127.351C622.878 132.286 623.982 133.176 626.281 132.98Z" fill="#734415"/>
<path d="M750.5 379C747.189 343.235 754.857 301.602 765.999 263C763.021 260.683 754.012 261.331 747.999 262.5C746.424 262.388 739.5 353.5 743 379C729 380 720.339 380.819 707.5 382.5C702.763 336.114 702.616 310.568 708.499 263C701.979 261.759 693.499 262.5 687.499 263C687.065 338.868 693.351 359.756 699.5 384.5C692.444 385.639 686 388.5 686 388.5C686 388.5 686.114 391.472 686.5 394C686.892 396.565 687.999 397 687.999 397C708.155 392.25 726.865 387.925 760.5 388.5L762 381.5C759.012 380.468 753.604 379.078 750.5 379Z" fill="#D9D9D9"/>
<path d="M712.021 199.041C702.081 207.278 709.995 212.069 722.579 226.308C735.163 240.547 736.856 248.778 746.795 240.541C754.751 228.328 761.411 217.991 748.827 203.752C736.243 189.513 723.488 195.773 712.021 199.041Z" fill="#FFC552"/>
<path d="M771.935 356.316C766.359 408.869 688.078 385.141 694.578 408.655C713.416 433.806 798.438 409.388 796.859 367.381C800.464 310.212 789.955 263.654 772.585 262.626C754.267 263.571 759.123 288.661 771.935 356.316Z" fill="#F92727"/>
<path d="M771.935 356.316C766.359 408.869 688.078 385.141 694.578 408.655C713.416 433.806 798.438 409.388 796.859 367.381C800.464 310.212 789.955 263.654 772.585 262.626C754.267 263.571 759.123 288.661 771.935 356.316Z" fill="#F92727"/>
<path d="M786.216 356.914C785.555 367.391 783.912 380.933 776.96 386.07C768.388 392.404 756.636 395.86 744.703 397.748C735.429 399.215 724.763 407.613 717.135 408.571C704.673 410.136 690.702 401.139 693.928 408.036C714.624 439.315 806.697 405.053 798.912 357.78C802.508 310.591 789.694 266.26 774.535 263.245C768.681 262.899 775.532 265.82 777.466 275.15C778.986 282.485 777.759 291.276 781.158 304.804C783.123 312.626 787.841 320.277 789.753 330.22C790.957 336.482 785.194 349.799 786.216 356.914Z" fill="#D30909"/>
<path d="M786.216 356.914C785.555 367.391 783.912 380.933 776.96 386.07C768.388 392.404 756.636 395.86 744.703 397.748C735.429 399.215 724.763 407.613 717.135 408.571C704.673 410.136 690.702 401.139 693.928 408.036C714.624 439.315 806.697 405.053 798.912 357.78C802.508 310.591 789.694 266.26 774.535 263.245C768.681 262.899 775.532 265.82 777.466 275.15C778.986 282.485 777.759 291.276 781.158 304.804C783.123 312.626 787.841 320.277 789.753 330.22C790.957 336.482 785.194 349.799 786.216 356.914Z" fill="#D30909"/>
<path d="M689.727 213.946C696.993 229.507 699.393 219.259 708.91 213.396C718.426 207.533 737.044 220.127 720.052 195.504C710.56 185.746 700.076 180.398 690.56 186.261C681.044 192.124 686.525 203.969 689.727 213.946Z" fill="#D58F02"/>
<path d="M693.376 204.676C686.374 213.315 692.362 229.183 706.752 240.12C721.141 251.057 738.681 258.732 742.608 242.167C742.91 230.239 736.11 214.108 721.72 203.171C707.331 192.234 700.378 196.038 693.376 204.676Z" fill="black"/>
<path d="M672.224 392.949L650.921 398.021C649.246 401.462 656.663 404.403 668.098 403.494C666.549 409.713 665.946 413.076 670.555 416.446C672.518 419.808 673.792 420.591 676.2 421.099C681.25 421.619 684.611 420.673 691.52 416.952C699.705 418.907 702.757 418.592 705.715 415.832C710.055 403.9 703.45 398.765 672.224 392.949Z" fill="#734415"/>
<path d="M712.78 264.483C715.381 277.477 718.631 278.096 718.631 278.096C718.631 278.096 740.033 284.864 737.962 261.229C734.558 248.806 734.231 245.186 730.226 236.639C719.961 235.865 710.493 253.053 712.78 264.483Z" fill="#734415"/>
<path d="M729.032 229.214C728.819 240.686 736.284 256.588 722.302 262.336C708.32 268.084 697.509 260.526 693.604 242.803C688.779 222.036 692.732 209.117 703.65 208.449C714.083 205.01 729.278 215.909 729.032 229.214Z" fill="#734415"/>
<path d="M727.519 257.118C729.458 255.782 730.528 250.932 730.12 253.406C730.117 253.333 729.753 260.426 719.931 263.246C710.108 266.066 705.222 262.052 704.329 261.389C704.268 260.787 706.067 262.068 706.067 262.068C707.119 262.024 711.197 264.285 713.868 263.306C716.014 263.896 718.531 262.125 721.019 261.45C728.015 259.55 725.581 258.455 727.519 257.118Z" fill="#653B11"/>
<path d="M728.25 228.943C727.893 233.284 729.238 236.301 731.491 235.967C733.745 235.632 736.032 231.933 735.391 227.884C734.751 223.834 731.426 220.967 729.172 221.301C726.918 221.635 726.567 224.904 728.25 228.943Z" fill="#734415"/>
<path d="M704.791 247.848C705.009 249.223 709.101 252.304 712.104 251.859C715.108 251.414 718.06 247.288 717.843 245.913C717.625 244.538 714.32 246.435 711.317 246.88C708.314 247.326 704.574 246.473 704.791 247.848Z" fill="#D9D9D9"/>
<path d="M731.631 257.677C725.098 262.21 726.666 261.797 723.093 263.27C719.453 264.77 713.43 265.102 713.43 265.102C720.928 264.756 725.462 264.095 731.631 257.677Z" fill="#653B11"/>
<path d="M732.631 229.083C732.881 230.728 732.616 231.357 731.483 232C731.53 230.999 731.387 230.528 730.718 229.917C731.127 229.242 731.146 228.488 731.1 227C731.498 228.672 731.822 229.208 732.631 229.083Z" fill="#653B11"/>
<path d="M728.718 224C729.92 224.007 729.818 223.978 730.784 224.6C731.75 225.222 732.243 225.595 732.85 226.4C733.457 227.205 733.405 227.841 733.539 228.8C733.668 229.73 733.867 230.307 733.539 231.2C733.243 232.005 732.161 233 732.161 233" stroke="#653B11" stroke-width="0.25"/>
<path d="M449.375 380.911C463.556 392.703 531.492 319.394 541.332 348.75C537.845 372.167 458.13 416.053 440.097 406.809C433.19 403.268 430.365 399.875 428.477 394.874C416.132 362.168 399.127 293.449 404.057 271.714C428.51 252.876 448.077 341.568 449.375 380.911Z" fill="#D9A160"/>
<path d="M449.375 380.911C463.556 392.703 531.492 319.394 541.332 348.75C537.845 372.167 458.13 416.053 440.097 406.809C433.19 403.268 430.365 399.875 428.477 394.874C416.132 362.168 399.127 293.449 404.057 271.714C428.51 252.876 448.077 341.568 449.375 380.911Z" fill="#D9A160"/>
<path d="M421.238 313.348C419.731 306.952 424.116 301.196 424.255 301.43C424.255 301.43 430.463 313.928 434.442 323.598C440.451 338.2 427.254 383.405 427.833 392.631C427.876 392.786 427.883 392.859 427.849 392.84C427.843 392.773 427.837 392.703 427.833 392.631C427.414 391.144 423.635 382.153 421.131 375.537C416.13 362.318 421.098 357.794 422.39 350.263C423.974 341.031 426.098 326.545 426.098 326.545C426.294 322.683 421.647 315.086 421.238 313.348Z" fill="#BB7829"/>
<path d="M337.448 741.865L308.993 742.927C308.993 742.927 314.256 748.656 309.506 759.695C304.756 770.735 304.03 777.116 308.993 778.778C313.956 780.44 339.64 805.632 368.814 798.463C370.403 797.332 372.483 794.266 373.806 790.388C377.624 779.198 341.04 759.506 337.901 756.66C334.762 753.815 336.805 746.251 337.448 741.865Z" fill="#FFC552"/>
<path d="M460.251 745.394L434.74 747.968C434.74 747.968 439.396 753.718 436.003 762.07C432.609 770.423 431.386 775.855 436.183 777.946C440.979 780.036 465.267 799.012 491.132 791.249C492.504 790.202 494.227 787.495 495.23 784.149C498.125 774.491 464.321 760.051 461.365 757.838C458.409 755.625 459.883 749.129 460.251 745.394Z" fill="#FFC552"/>
<path d="M304.448 305.59C306.433 309.917 321.989 331.227 323.447 333.22C323.528 333.33 323.579 333.428 323.625 333.557C324.128 334.982 327.231 344.053 327.534 344.936C327.551 344.985 327.567 345.027 327.587 345.075C327.788 345.569 328.972 348.484 329.158 349.159C329.862 351.722 329.532 351.917 332.056 351.439C344.824 349.017 382.97 342.815 422.823 346.385C422.38 334.079 420.529 315.521 426.365 308.826C431.944 302.428 418.755 267.319 413.849 264.583C412.187 263.657 403.373 263.641 390.592 263.271C387.768 261.578 364.368 258.741 353.238 263.308C341.201 264.072 331.416 275.657 325.866 275.266C320.315 274.876 312.354 276.032 305.953 287.666C303.827 291.53 302.693 301.764 304.448 305.59Z" fill="#F92727"/>
<path d="M355.577 307.35C347.667 304.648 339.911 266.217 337.961 267.723C336.012 269.228 331.56 270.216 331.56 270.216C331.56 270.216 321.827 274.254 321.158 275.201C320.488 276.149 348.495 308.559 338.544 325.129C335.056 330.937 332.899 330.981 322.874 333.334C322.874 333.334 336.665 365.234 336.385 392.448C336.103 419.915 331.927 419.58 325.146 455.224C315.029 508.395 317.957 597.623 317.957 597.623C317.957 597.623 319.722 609.506 317.957 626.707L307.554 702.327L300.353 743.045C300.353 743.045 350.574 747.3 355.566 747.2C360.557 747.1 356.522 663.123 364.368 601.85C368.483 569.713 373.97 512.032 379.711 488.556C385.452 465.081 411.201 594.189 409.166 601.85C406.268 612.758 423.764 748.156 429.983 748.031C436.203 747.906 476.394 749.693 476.394 749.693C476.394 749.693 451.719 628.236 453.989 609.257C460.29 556.569 427.702 462.548 427.375 460.342C418.129 430.41 414.654 418.334 415.58 388.215C416.556 356.438 428.383 346.666 429.983 329.215C430.052 328.465 429.983 315.92 425.982 312.596C423.188 310.274 417.98 310.103 417.98 310.103C415.654 299.13 410.687 301.702 411.505 290.64L412.437 276.304L413.979 265.23C413.979 265.23 406.308 262.714 405.178 262.737C404.459 262.751 395.575 263.568 395.575 263.568C395.575 263.568 403.315 299.226 398.293 306.492C393.272 313.757 363.487 310.052 355.577 307.35Z" fill="#6A67E3"/>
<path d="M379.738 187.267C385.897 201.073 382.075 197.006 370.889 215.566C359.703 234.126 359.958 252.937 349.018 249.479C331.248 243.971 328.773 211.949 346.763 192.619C357.814 158.264 367.966 160.879 379.738 187.267Z" fill="#FFDA6A"/>
<path d="M377.167 257.434C379.928 271.963 376.857 274.121 376.857 274.121C376.857 274.121 357.762 291.084 350.016 265.902C348.316 251.581 347.139 247.72 347.673 237.087C357.864 231.484 374.738 244.654 377.167 257.434Z" fill="#D6BAD6"/>
<path d="M346.416 227.102C348.2 242.742 345.82 256.936 359.012 265.128C372.204 273.32 379.653 267.736 386.815 234.596C388.799 213.332 379.553 199.172 368.367 198.751C357.604 199.489 344.769 212.669 346.416 227.102Z" fill="#D6BAD6"/>
<path d="M357.27 262.604L353.81 258.679C355.673 262.714 360.73 266.528 366.425 267.799C372.121 269.07 376.281 262.844 376.974 261.709C376.899 260.905 375.687 262.161 375.687 262.161C375.687 262.161 372.296 267.211 369.566 266.749C367.676 268.173 365.616 266.485 363.125 266.362C361.045 265.835 357.27 262.604 357.27 262.604Z" fill="#C19CC1"/>
<path d="M348.47 231.316C350.746 236.666 350.476 241.058 347.716 241.589C344.955 242.12 340.714 238.401 339.723 232.998C338.731 227.596 341.365 222.555 344.125 222.024C346.886 221.493 348.694 225.485 348.47 231.316Z" fill="#D6BAD6"/>
<path d="M379.848 244.958C379.829 246.825 375.393 251.649 371.652 251.588C367.91 251.528 363.572 246.564 363.59 244.697C363.609 242.829 367.978 244.767 371.719 244.827C375.46 244.888 379.866 243.091 379.848 244.958Z" fill="#D9D9D9"/>
<path d="M351.108 260.902C358.324 266.338 356.705 265.931 360.482 267.567C364.329 269.233 370.334 269.132 370.334 269.132C362.87 269.348 358.281 268.878 351.108 260.902Z" fill="#C19CC1"/>
<path d="M343.102 233.072C343.423 235.274 344.09 235.916 346.073 236.099C345.578 234.869 345.595 234.199 346.345 233.064C345.44 232.443 345.093 231.507 344.53 229.616C344.639 231.932 344.378 232.783 343.102 233.072Z" fill="#C19CC1"/>
<path fill-rule="evenodd" clip-rule="evenodd" d="M345.043 224.805C345.101 224.783 345.161 224.761 345.225 224.737L345.36 225.128C345.308 225.148 345.258 225.166 345.211 225.184C344.644 225.394 344.406 225.483 344.216 225.636C344.027 225.788 343.885 226.006 343.547 226.523C343.519 226.567 343.489 226.612 343.458 226.659C342.68 227.849 342.319 228.51 342.017 229.771C341.779 230.766 341.94 231.443 342.16 232.37C342.213 232.592 342.269 232.829 342.324 233.088C342.374 233.324 342.416 233.544 342.456 233.75C342.633 234.672 342.76 235.335 343.349 236.143C343.666 236.579 344.218 237.014 344.706 237.345C344.948 237.509 345.168 237.645 345.329 237.739C345.409 237.786 345.473 237.823 345.518 237.848L345.569 237.876L345.582 237.883L345.585 237.885L345.403 238.255L345.402 238.254L345.398 238.252L345.383 238.244L345.329 238.214C345.282 238.188 345.214 238.149 345.131 238.1C344.965 238.003 344.737 237.863 344.487 237.693C343.993 237.357 343.391 236.891 343.03 236.394C342.382 235.504 342.236 234.74 342.058 233.807C342.02 233.606 341.98 233.397 341.933 233.177C341.883 232.94 341.83 232.716 341.778 232.501C341.553 231.56 341.365 230.774 341.629 229.671C341.947 228.343 342.336 227.635 343.127 226.426C343.165 226.368 343.201 226.313 343.235 226.26C343.547 225.781 343.728 225.503 343.971 225.307C344.214 225.112 344.519 224.999 345.043 224.805Z" fill="#C19CC1"/>
<path d="M348.791 380.904C352.822 344.568 334.568 314.42 321 275.203C327.665 271.36 331.499 269.698 338.461 267.371C340.379 267.257 362.892 318.148 363.148 379.452C380.001 378.443 379.453 380.212 395.088 381.92C400.856 334.795 402.508 311.66 395.344 263.334C403.284 262.073 406.715 261.569 414.143 264.537C414.672 341.613 412.553 358.552 405.065 383.69C413.657 384.848 415.579 388.215 415.579 388.215L415.579 394.863L415.579 401.511C385.195 391.981 370.626 389.511 336.378 395.496L334.676 383.998C338.314 382.95 345.01 380.983 348.791 380.904Z" fill="#D9D9D9"/>
<path d="M406.974 605.111C406.974 605.111 377.313 484.547 379.754 484.785C384.14 466.297 414.178 597.538 414.178 597.538C400.085 598.351 450.84 748.718 460.611 749L425.387 748.156C403.841 733.265 402.43 605.703 406.974 605.111Z" fill="#254783"/>
<path d="M432.242 775.421C429.163 771.394 438.51 753.969 435.665 751L460.478 751.842C460.361 755.863 461.513 757.508 465.611 759.421C465.611 759.421 455.076 765.416 451.066 769.526C447.056 773.637 445.076 783 445.076 783C445.076 783 435.387 779.534 432.242 775.421Z" fill="#C38302"/>
<path d="M331.609 430C339.245 400.481 340.434 379.968 323.611 334.254C330.817 333.43 335.986 331.792 341.206 326C357.391 368.907 351.717 396.982 331.609 430Z" fill="#254783"/>
<path d="M307.605 778.085C302.595 774.34 308.306 764.219 310.806 750L336.409 751.702C338.242 756.333 342.942 759.802 351.611 765.319C336.245 771.815 330.072 777.995 325.208 790L315.207 783.191C315.207 783.191 310.478 780.232 307.605 778.085Z" fill="#C38302"/>
<path d="M593.392 311.795C593.805 311.134 544.978 284.489 544.639 285.045C537.912 296.085 549.213 310.761 551.714 313.781C551.994 314.119 552.006 314.591 551.744 314.958L531.718 342.997C531.379 343.472 531.527 344.11 532.04 344.384L542.829 350.147C543.327 350.412 543.968 350.227 544.246 349.738L561.155 319.981C561.197 319.909 561.246 319.849 561.332 319.844C563.17 319.733 586.56 322.725 593.392 311.795Z" fill="#2F5598"/>
<rect width="60.0927" height="10.6672" rx="1" transform="matrix(0.882079 0.471101 -0.519948 0.854198 546.991 276.907)" fill="#78A6DD"/>
<rect width="55.6414" height="32.0015" transform="matrix(0.882079 0.471101 -0.519948 0.854198 565.593 250.62)" fill="#FDDAA4"/>
<path d="M539.484 320.418C546.032 319.393 548.993 318.61 552.847 316.899C557.31 318.243 556.706 319.634 554.281 322.396C549.303 323.149 546.906 323.819 544.767 326.341C543.83 338.381 542.691 343.488 538.244 346.185C529.26 347.274 525.811 346.091 525.903 336.934C530.884 326.77 533.823 322.769 539.484 320.418Z" fill="#D6BAD6"/>
<path d="M544.433 332.635C549.203 327.013 553.289 325.681 562.141 325.312C562.857 332.315 559.581 339.126 550.604 353.735C545.693 356.014 544.49 354.314 543.184 349.67L550.452 335.743C545.913 335.334 544.869 334.554 544.433 332.635Z" fill="#D6BAD6"/>
<path d="M539.484 320.418C546.032 319.393 548.993 318.61 552.847 316.899C557.31 318.243 556.706 319.634 554.281 322.396C549.303 323.149 546.906 323.819 544.767 326.341C543.83 338.381 542.691 343.488 538.244 346.185C529.26 347.274 525.811 346.091 525.903 336.934C530.884 326.77 533.823 322.769 539.484 320.418Z" fill="#D6BAD6"/>
<path d="M544.433 332.635C549.203 327.013 553.289 325.681 562.141 325.312C562.857 332.315 559.581 339.126 550.604 353.735C545.693 356.014 544.49 354.314 543.184 349.67L550.452 335.743C545.913 335.334 544.869 334.554 544.433 332.635Z" fill="#D6BAD6"/>
<path d="M329.666 549.871L325.619 546.218L338.496 542.566L341.439 545.175L340.335 549.871L343.646 560.828V574.916L336.288 580.134L328.194 572.829V559.263L329.666 549.871Z" fill="#F92727" stroke="black"/>
<rect x="285.148" y="533.695" width="64.0152" height="61.5701" fill="#EFA056"/>
<ellipse cx="317.156" cy="596.309" rx="32.0076" ry="14.6098" fill="#EFA056"/>
<ellipse cx="317.156" cy="535.782" rx="32.0076" ry="14.6098" fill="#FFBE5C"/>
<ellipse cx="316.788" cy="535.261" rx="26.489" ry="10.9574" fill="black"/>
<path d="M343.277 535.782C340.219 524.83 292.083 524.246 290.667 536.304C290.667 536.304 288.981 545.526 315.684 546.219C342.387 546.911 343.412 536.267 343.277 535.782Z" fill="#DC6177"/>
<path d="M349.164 570.22C325.346 584.533 311.211 583.37 285.148 571.27V583.865C311.89 596.572 325.968 596.656 349.164 581.766V570.22Z" fill="#E9E8E8"/>
<path d="M349.164 552.479C325.346 566.793 311.211 565.629 285.148 553.529V566.125C311.89 578.831 325.968 578.916 349.164 564.026V552.479Z" fill="#EAE9E9"/>
<path d="M328.561 551.436C327.965 548.666 325.25 545.696 325.25 545.696C325.344 545.287 333.361 538.817 337.391 542.566C338.58 543.672 339.104 544.614 339.966 546.218C342.886 551.655 341.813 556.622 342.174 563.437C342.432 568.314 341.735 570.639 341.07 575.438C340.571 579.042 342.347 583.383 339.966 584.83C334.816 587.961 336.655 573.872 333.344 576.481C331.315 578.08 329.665 585.873 327.09 580.656C323.959 574.312 326.288 568.487 327.09 560.828C327.479 557.112 329.335 555.03 328.561 551.436Z" fill="#DC6177"/>
<path d="M284.611 534L295.88 488H339.343L350.611 534" stroke="#272420" stroke-width="2" stroke-linecap="round" stroke-linejoin="round"/>
<path d="M284.611 534L295.88 488H339.343L350.611 534" stroke="#79746E" stroke-opacity="0.59" stroke-width="0.5" stroke-linecap="round" stroke-linejoin="round"/>
<path d="M337.314 484.666L331.228 500.437C327.133 503.462 324.978 504.608 324.636 492.941C317.045 496.947 312.908 498.882 308.089 495.665C303.622 495.062 302.475 494.114 301.528 491.935C300.222 487.15 300.971 483.451 304.738 475.139C301.228 467.825 301.228 464.682 304.303 460.659C318.691 451.62 325.98 456.108 337.314 484.666Z" fill="#D6BAD6"/>
<path d="M604.947 282.903C605.015 282.783 604.973 282.629 604.853 282.561C604.733 282.492 604.581 282.534 604.513 282.655L604.947 282.903ZM604.513 282.655L599.889 290.883L600.323 291.131L604.947 282.903L604.513 282.655ZM599.889 290.883L596.005 297.795L596.439 298.043L600.323 291.131L599.889 290.883Z" fill="#F7AE56"/>
<path d="M602.572 281.544C602.64 281.423 602.598 281.27 602.478 281.202C602.358 281.133 602.206 281.175 602.138 281.296L602.572 281.544ZM602.138 281.296L597.514 289.524L597.948 289.772L602.572 281.544L602.138 281.296ZM597.514 289.524L594.74 294.461L595.174 294.709L597.948 289.772L597.514 289.524Z" fill="#F7AE56"/>
<path d="M597.815 278.825C597.882 278.705 597.84 278.552 597.72 278.483C597.6 278.414 597.448 278.456 597.381 278.577L597.815 278.825ZM597.381 278.577L592.756 286.805L593.19 287.053L597.815 278.825L597.381 278.577ZM592.756 286.805L589.982 291.742L590.416 291.99L593.19 287.053L592.756 286.805Z" fill="#F7AE56"/>
<path d="M600.194 280.184C600.261 280.063 600.219 279.91 600.099 279.842C599.979 279.773 599.827 279.815 599.76 279.935L600.194 280.184ZM599.76 279.935L595.135 288.164L595.569 288.412L600.194 280.184L599.76 279.935ZM595.135 288.164L591.251 295.076L591.685 295.324L595.569 288.412L595.135 288.164Z" fill="#F7AE56"/>
<path d="M595.44 277.466C595.507 277.346 595.465 277.192 595.345 277.124C595.225 277.055 595.073 277.097 595.006 277.218L595.44 277.466ZM595.006 277.218L590.381 285.446L590.815 285.694L595.44 277.466L595.006 277.218ZM590.381 285.446L586.497 292.358L586.931 292.606L590.815 285.694L590.381 285.446Z" fill="#F7AE56"/>
<path d="M593.063 276.106C593.13 275.985 593.088 275.832 592.968 275.764C592.848 275.695 592.696 275.737 592.629 275.858L593.063 276.106ZM592.629 275.858L588.004 284.086L588.438 284.334L593.063 276.106L592.629 275.858ZM588.004 284.086L585.23 289.023L585.664 289.271L588.438 284.334L588.004 284.086Z" fill="#F7AE56"/>
<path d="M589.992 275.483C590.06 275.363 590.018 275.21 589.898 275.141C589.778 275.073 589.626 275.115 589.558 275.235L589.992 275.483ZM589.558 275.235L584.934 283.463L585.368 283.712L589.992 275.483L589.558 275.235ZM584.934 283.463L581.05 290.375L581.484 290.623L585.368 283.712L584.934 283.463Z" fill="#F7AE56"/>
<path d="M587.615 274.124C587.683 274.004 587.641 273.851 587.521 273.782C587.401 273.714 587.249 273.756 587.181 273.876L587.615 274.124ZM587.181 273.876L582.557 282.104L582.991 282.352L587.615 274.124L587.181 273.876ZM582.557 282.104L579.783 287.041L580.217 287.289L582.991 282.352L582.557 282.104Z" fill="#F7AE56"/>
<path d="M582.108 270.726C582.178 270.607 582.136 270.456 582.015 270.389C581.894 270.323 581.74 270.365 581.671 270.485L582.108 270.726ZM581.671 270.485L576.811 278.844L577.249 279.086L582.108 270.726L581.671 270.485ZM576.811 278.844L573.895 283.86L574.333 284.102L577.249 279.086L576.811 278.844Z" fill="#F7AE56"/>
<path d="M572.007 265.143C572.076 265.023 572.035 264.872 571.914 264.806C571.793 264.739 571.639 264.781 571.569 264.901L572.007 265.143ZM571.569 264.901L566.709 273.26L567.147 273.502L572.007 265.143L571.569 264.901ZM566.709 273.26L563.794 278.276L564.231 278.518L567.147 273.502L566.709 273.26Z" fill="#F7AE56"/>
<path d="M584.606 272.108C584.676 271.988 584.634 271.837 584.513 271.771C584.393 271.704 584.238 271.747 584.169 271.866L584.606 272.108ZM584.169 271.866L579.309 280.225L579.747 280.467L584.606 272.108L584.169 271.866ZM579.309 280.225L575.227 287.247L575.664 287.489L579.747 280.467L579.309 280.225Z" fill="#F7AE56"/>
<path d="M579.501 269.287C579.57 269.167 579.529 269.016 579.408 268.95C579.287 268.883 579.133 268.925 579.063 269.045L579.501 269.287ZM579.063 269.045L574.204 277.404L574.641 277.646L579.501 269.287L579.063 269.045ZM574.204 277.404L570.121 284.426L570.559 284.668L574.641 277.646L574.204 277.404Z" fill="#F7AE56"/>
<path d="M577.005 267.905C577.074 267.786 577.033 267.635 576.912 267.568C576.791 267.501 576.637 267.544 576.567 267.663L577.005 267.905ZM576.567 267.663L571.708 276.023L572.145 276.265L577.005 267.905L576.567 267.663ZM571.708 276.023L568.792 281.039L569.229 281.28L572.145 276.265L571.708 276.023Z" fill="#F7AE56"/>
<path d="M574.505 266.524C574.574 266.404 574.533 266.253 574.412 266.187C574.291 266.12 574.137 266.163 574.067 266.282L574.505 266.524ZM574.067 266.282L569.208 274.641L569.645 274.883L574.505 266.524L574.067 266.282ZM569.208 274.641L565.125 281.663L565.563 281.905L569.645 274.883L569.208 274.641Z" fill="#F7AE56"/>
<path d="M569.187 263.583C569.256 263.464 569.214 263.313 569.093 263.246C568.973 263.179 568.818 263.222 568.749 263.341L569.187 263.583ZM568.749 263.341L563.889 271.701L564.327 271.943L569.187 263.583L568.749 263.341ZM563.889 271.701L559.807 278.723L560.245 278.965L564.327 271.943L563.889 271.701Z" fill="#F7AE56"/>
<path d="M566.689 262.203C566.758 262.083 566.716 261.932 566.595 261.866C566.475 261.799 566.32 261.841 566.251 261.961L566.689 262.203ZM566.251 261.961L561.391 270.32L561.829 270.562L566.689 262.203L566.251 261.961ZM561.391 270.32L558.475 275.336L558.913 275.578L561.829 270.562L561.391 270.32Z" fill="#F7AE56"/>
<path d="M564.189 260.821C564.258 260.702 564.216 260.551 564.095 260.484C563.975 260.417 563.82 260.46 563.751 260.579L564.189 260.821ZM563.751 260.579L558.891 268.939L559.329 269.181L564.189 260.821L563.751 260.579ZM558.891 268.939L554.809 275.961L555.246 276.203L559.329 269.181L558.891 268.939Z" fill="#F7AE56"/>
<path d="M613.566 277.058C613.017 275.987 567.426 248.714 563.256 250.202C559.086 251.69 557.681 260.441 554.109 267.001C554.109 267.001 561.468 273.512 565.717 271.996C569.966 270.48 573.943 282.161 578.588 285.338C583.232 288.515 591.661 277.679 598.959 281.936C602.366 283.924 601.58 290.669 605.698 289.2C609.816 287.73 614.115 278.129 613.566 277.058Z" fill="#EB7FED"/>
<path d="M336.278 396L347.111 395.105C348.475 389.327 349.103 385.126 349.611 379L334.611 384.368L336.278 396Z" fill="#ADA4A4"/>
<path d="M340.611 325.569L328.451 291C323.651 304.924 323.368 314.114 321.611 329.784L323.891 334C330.275 333.97 334.534 332.267 340.611 325.569Z" fill="#CD0606"/>
<path d="M301.585 386.803C310.711 401.505 327.799 459.375 316.579 466.582C302.296 480.848 279.801 418.089 276.245 401.511C274.751 394.544 272.896 391.629 273.579 386.893C278.044 355.92 298.394 297.057 310.723 281.947C341.469 282.053 329.963 317.76 301.585 386.803Z" fill="#D9A160"/>
<path d="M301.585 386.803C310.711 401.505 327.799 459.375 316.579 466.582C302.296 480.848 279.801 418.089 276.245 401.511C274.751 394.544 272.896 391.629 273.579 386.893C278.044 355.92 298.394 297.057 310.723 281.947C341.469 282.053 329.963 317.76 301.585 386.803Z" fill="#D9A160"/>
<path d="M60.8122 702.163L68.2451 695.651L44.5949 689.139L39.1891 693.791L41.2163 702.163L35.1348 721.697V746.814L48.6492 756.116L63.5151 743.093V718.907L60.8122 702.163Z" fill="#F92727" stroke="black"/>
<rect width="117.576" height="109.767" transform="matrix(-1 0 0 1 142.575 673.326)" fill="#AD9681"/>
<ellipse cx="58.7878" cy="26.0465" rx="58.7878" ry="26.0465" transform="matrix(-1 0 0 1 142.575 758.907)" fill="#AD9681"/>
<ellipse cx="58.7878" cy="26.0465" rx="58.7878" ry="26.0465" transform="matrix(-1 0 0 1 142.575 651)" fill="#AEABA6"/>
<ellipse cx="48.6519" cy="19.5348" rx="48.6519" ry="19.5348" transform="matrix(-1 0 0 1 133.116 656.582)" fill="black"/>
<path d="M24.9997 706.814C68.7458 732.332 94.7072 730.257 142.575 708.685V731.141C93.4592 753.794 67.6026 753.944 24.9997 727.398V706.814Z" fill="#2F5598"/>
<g style="mix-blend-mode:lighten">
<path d="M142.575 731C140.774 731.42 135.818 734.721 122.304 739.372V749.604C134.134 747.548 141.224 745.782 142.575 745.465V731Z" fill="#AEABA6"/>
</g>
<path d="M24.9997 738.442C68.7458 763.96 94.7072 761.885 142.575 740.313V762.769C93.4592 785.422 67.6026 785.573 24.9997 759.026V738.442Z" fill="#2F5598"/>
<g style="mix-blend-mode:lighten">
<path d="M142.241 739.597C133.457 743.318 128.727 745.568 121.97 747.969V770.571C133.8 766.484 140.89 762.699 142.241 762.068V739.597Z" fill="#4270C0"/>
</g>
<g style="mix-blend-mode:lighten">
<path d="M142.241 707.969C133.457 711.69 128.727 713.941 121.97 716.342V738.949C133.8 734.861 140.89 731.071 142.241 730.44V707.969Z" fill="#4270C0"/>
</g>
<g style="mix-blend-mode:lighten">
<path d="M142.575 687.279C141.328 690.245 122.804 702.073 122.304 699.93V717.046C134.134 714.167 141.224 708.904 142.575 708.46V687.279Z" fill="#AEABA6"/>
</g>
<g style="mix-blend-mode:lighten">
<path d="M142.575 762.628C140.774 763.468 135.818 765.419 122.304 771C122.304 771 120.757 801.303 120.757 804.333C120.757 807.363 139.545 797.666 142.575 786.757V762.628Z" fill="#AEABA6"/>
</g>
<path d="M28.6548 674.022C35.0624 648.65 135.927 647.297 138.894 675.23C138.894 675.23 142.426 696.594 86.4726 698.198C30.5195 699.801 28.3709 675.145 28.6548 674.022Z" fill="#AD9681"/>
<path d="M31.0786 674.292C37.2046 651.739 133.635 650.537 136.472 675.366C136.472 675.366 139.849 694.357 86.355 695.782C32.8614 697.207 30.8072 675.291 31.0786 674.292Z" fill="#AEABA6"/>
<path d="M187.812 702.163L195.245 695.651L171.595 689.139L166.189 693.791L168.216 702.163L162.135 721.697V746.814L175.649 756.116L190.515 743.093V718.907L187.812 702.163Z" fill="#F92727" stroke="black"/>
<rect width="117.576" height="109.767" transform="matrix(-1 0 0 1 269.575 673.326)" fill="#AD9681"/>
<ellipse cx="58.7878" cy="26.0465" rx="58.7878" ry="26.0465" transform="matrix(-1 0 0 1 269.575 758.907)" fill="#AD9681"/>
<ellipse cx="58.7878" cy="26.0465" rx="58.7878" ry="26.0465" transform="matrix(-1 0 0 1 269.575 651)" fill="#AEABA6"/>
<ellipse cx="48.6519" cy="19.5348" rx="48.6519" ry="19.5348" transform="matrix(-1 0 0 1 260.116 656.582)" fill="black"/>
<path d="M152 706.814C195.746 732.332 221.707 730.257 269.575 708.685V731.141C220.459 753.794 194.603 753.944 152 727.398V706.814Z" fill="#2F5598"/>
<g style="mix-blend-mode:lighten">
<path d="M269.575 731C267.774 731.42 262.818 734.721 249.304 739.372V749.604C261.134 747.548 268.224 745.782 269.575 745.465V731Z" fill="#AEABA6"/>
</g>
<path d="M152 738.442C195.746 763.96 221.707 761.885 269.575 740.313V762.769C220.459 785.422 194.603 785.573 152 759.026V738.442Z" fill="#2F5598"/>
<g style="mix-blend-mode:lighten">
<path d="M269.241 739.597C260.457 743.318 255.727 745.568 248.97 747.969V770.571C260.8 766.484 267.89 762.699 269.241 762.068V739.597Z" fill="#4270C0"/>
</g>
<g style="mix-blend-mode:lighten">
<path d="M269.241 707.969C260.457 711.69 255.727 713.941 248.97 716.342V738.949C260.8 734.861 267.89 731.071 269.241 730.44V707.969Z" fill="#4270C0"/>
</g>
<g style="mix-blend-mode:lighten">
<path d="M269.575 687.279C268.328 690.245 249.804 702.073 249.304 699.93V717.046C261.134 714.167 268.224 708.904 269.575 708.46V687.279Z" fill="#AEABA6"/>
</g>
<g style="mix-blend-mode:lighten">
<path d="M269.575 762.628C267.774 763.468 262.818 765.419 249.304 771C249.304 771 247.757 801.303 247.757 804.333C247.757 807.363 266.545 797.666 269.575 786.757V762.628Z" fill="#AEABA6"/>
</g>
<path d="M155.655 674.022C162.062 648.65 262.927 647.297 265.894 675.23C265.894 675.23 269.426 696.594 213.473 698.198C157.52 699.801 155.371 675.145 155.655 674.022Z" fill="#AD9681"/>
<path d="M158.079 674.292C164.205 651.739 260.635 650.537 263.472 675.366C263.472 675.366 266.849 694.356 213.355 695.782C159.861 697.207 157.807 675.291 158.079 674.292Z" fill="#AEABA6"/>
<path d="M115.812 578.163L123.245 571.651L99.5949 565.139L94.1891 569.791L96.2163 578.163L90.1348 597.697V622.814L103.649 632.116L118.515 619.093V594.907L115.812 578.163Z" fill="#F92727" stroke="black"/>
<rect width="117.576" height="109.767" transform="matrix(-1 0 0 1 197.575 549.326)" fill="#AD9681"/>
<ellipse cx="58.7878" cy="26.0465" rx="58.7878" ry="26.0465" transform="matrix(-1 0 0 1 197.575 634.907)" fill="#AD9681"/>
<ellipse cx="58.7878" cy="26.0465" rx="58.7878" ry="26.0465" transform="matrix(-1 0 0 1 197.575 527)" fill="#AEABA6"/>
<ellipse cx="48.6519" cy="19.5348" rx="48.6519" ry="19.5348" transform="matrix(-1 0 0 1 188.116 532.582)" fill="black"/>
<path d="M79.9997 582.814C123.746 608.332 149.707 606.257 197.575 584.685V607.141C148.459 629.794 122.603 629.944 79.9997 603.398V582.814Z" fill="#2F5598"/>
<g style="mix-blend-mode:lighten">
<path d="M197.575 607C195.774 607.42 190.818 610.721 177.304 615.372V625.604C189.134 623.548 196.224 621.782 197.575 621.465V607Z" fill="#AEABA6"/>
</g>
<path d="M79.9997 614.442C123.746 639.96 149.707 637.885 197.575 616.313V638.769C148.459 661.422 122.603 661.573 79.9997 635.026V614.442Z" fill="#2F5598"/>
<g style="mix-blend-mode:lighten">
<path d="M197.241 615.597C188.457 619.318 183.727 621.568 176.97 623.969V646.571C188.8 642.484 195.89 638.699 197.241 638.068V615.597Z" fill="#4270C0"/>
</g>
<g style="mix-blend-mode:lighten">
<path d="M197.241 583.969C188.457 587.69 183.727 589.941 176.97 592.342V614.949C188.8 610.861 195.89 607.071 197.241 606.44V583.969Z" fill="#4270C0"/>
</g>
<g style="mix-blend-mode:lighten">
<path d="M197.575 563.279C196.328 566.245 177.804 578.073 177.304 575.93V593.046C189.134 590.167 196.224 584.904 197.575 584.46V563.279Z" fill="#AEABA6"/>
</g>
<g style="mix-blend-mode:lighten">
<path d="M197.575 638.628C195.774 639.468 190.818 641.419 177.304 647C177.304 647 175.757 677.303 175.757 680.333C175.757 683.363 194.545 673.666 197.575 662.757V638.628Z" fill="#AEABA6"/>
</g>
<path d="M83.6548 550.022C90.0624 524.65 190.927 523.297 193.894 551.23C193.894 551.23 197.426 572.594 141.473 574.198C85.5195 575.801 83.3709 551.145 83.6548 550.022Z" fill="#AD9681"/>
<path d="M86.0786 550.292C92.2046 527.739 188.635 526.537 191.472 551.366C191.472 551.366 194.849 570.357 141.355 571.782C87.8614 573.207 85.8072 551.291 86.0786 550.292Z" fill="#AEABA6"/>
</svg>
