<svg width="1440" height="1024" viewBox="0 0 1440 1024" fill="none" xmlns="http://www.w3.org/2000/svg">
<g clip-path="url(#clip0_25_587)">
<rect width="96.7737" height="423.976" rx="15" transform="matrix(0.59919 0.800606 -0.81399 0.580879 359.806 18.0499)" fill="url(#paint0_linear_25_587)"/>
<rect width="96.7737" height="423.976" rx="15" transform="matrix(-0.59919 0.800606 0.81399 0.580879 1091.99 28)" fill="url(#paint1_linear_25_587)"/>
<path d="M332.701 26.7781C308.403 33.0576 44.4396 226.269 44.4396 226.269C-4.99804 266.499 29.6067 331.968 70.6465 285.499C86.5178 267.529 93.7561 274.501 126.924 269.225C179.225 260.905 157.042 183.895 204.763 162.036C239.965 145.912 301.704 193.165 304.808 155.137C306.864 129.943 351.671 98.9496 360.525 100.065C372.896 98.0307 379.656 38.3887 374.202 33.5433C361.445 22.2086 357 20.4986 332.701 26.7781Z" fill="#61DC75"/>
<path d="M398.131 48.6918L419.603 32.2804L458.274 90.1019L399.171 142.174L1105.99 960.001" stroke="#824F20" stroke-width="17" stroke-linecap="round" stroke-linejoin="round"/>
<path d="M1002.17 951.155L1033.15 954.389C1033.15 954.389 1027.5 961.615 1031.62 972.11C1035.74 982.605 1037.23 989.431 1031.4 992.058C1025.57 994.685 996.073 1018.53 964.655 1008.77C962.988 1007.46 960.896 1004.06 959.677 999.852C956.161 987.717 997.222 969.572 1000.81 966.791C1004.4 964.011 1002.61 955.848 1002.17 951.155Z" fill="#FFC552"/>
<path d="M1036.21 988.661C1039.91 983.682 1028.68 962.133 1032.1 958.461L1002.29 959.502C1002.43 964.475 1001.05 966.509 996.122 968.875C996.122 968.875 1008.78 976.288 1013.6 981.372C1018.42 986.455 1020.79 998.034 1020.79 998.034C1020.79 998.034 1032.44 993.748 1036.21 988.661Z" fill="#C38302"/>
<path d="M1100.42 948.809L1134.98 950.143C1134.98 950.143 1128.59 957.341 1134.36 971.213C1140.13 985.084 1141.01 993.102 1134.98 995.19C1128.96 997.279 1097.76 1028.93 1062.32 1019.93C1060.39 1018.5 1057.86 1014.65 1056.26 1009.78C1051.62 995.718 1096.06 970.974 1099.87 967.399C1103.68 963.824 1101.2 954.32 1100.42 948.809Z" fill="#FFC552"/>
<path d="M1136.81 994.228C1142.93 989.566 1135.96 976.97 1132.9 959.272L1101.64 961.39C1099.4 967.155 1093.66 971.472 1083.08 978.339C1101.84 986.423 1109.38 994.116 1115.32 1009.06L1127.53 1000.58C1127.53 1000.58 1133.3 996.9 1136.81 994.228Z" fill="#C38302"/>
<path d="M958.254 165.088C958.826 164.384 901.687 126.325 901.216 126.919C891.756 138.853 904.559 157.833 907.106 161.369C907.356 161.716 907.335 162.177 907.048 162.514L868.108 208.299C867.87 208.579 867.813 208.952 867.966 209.269C870.403 214.316 872.768 216.26 878.867 216.823C879.229 216.856 879.587 216.706 879.809 216.434L917.938 169.809C918.005 169.728 918.078 169.665 918.186 169.672C920.487 169.826 948.8 176.724 958.254 165.088Z" fill="#D2A272"/>
<rect width="74.1892" height="12.4108" rx="1" transform="matrix(0.836934 0.547303 -0.620793 0.783975 904.908 117.844)" fill="#CC6B0A"/>
<rect width="68.6937" height="37.2325" transform="matrix(0.836934 0.547303 -0.620793 0.783975 930.321 90.1591)" fill="#FDDAA4"/>
<path d="M975.755 132.795C975.839 132.685 975.813 132.533 975.699 132.456C975.584 132.379 975.424 132.405 975.34 132.515L975.755 132.795ZM975.34 132.515L968.552 141.475L968.967 141.755L975.755 132.795L975.34 132.515ZM968.552 141.475L962.85 149.002L963.265 149.281L968.967 141.755L968.552 141.475Z" fill="#F7AE56"/>
<path d="M972.834 130.828C972.918 130.718 972.892 130.566 972.778 130.489C972.663 130.412 972.503 130.438 972.42 130.548L972.834 130.828ZM972.42 130.548L965.631 139.509L966.046 139.788L972.834 130.828L972.42 130.548ZM965.631 139.509L961.558 144.885L961.973 145.164L966.046 139.788L965.631 139.509Z" fill="#F7AE56"/>
<path d="M966.989 126.892C967.072 126.782 967.047 126.63 966.932 126.553C966.818 126.476 966.657 126.502 966.574 126.612L966.989 126.892ZM966.574 126.612L959.786 135.572L960.2 135.852L966.989 126.892L966.574 126.612ZM959.786 135.572L955.712 140.949L956.127 141.228L960.2 135.852L959.786 135.572Z" fill="#F7AE56"/>
<path d="M969.911 128.858C969.995 128.748 969.97 128.596 969.855 128.519C969.741 128.442 969.58 128.469 969.497 128.579L969.911 128.858ZM969.497 128.579L962.708 137.539L963.123 137.818L969.911 128.858L969.497 128.579ZM962.708 137.539L957.006 145.066L957.421 145.345L963.123 137.818L962.708 137.539Z" fill="#F7AE56"/>
<path d="M964.066 124.924C964.149 124.814 964.124 124.662 964.009 124.585C963.895 124.508 963.734 124.534 963.651 124.644L964.066 124.924ZM963.651 124.644L956.863 133.604L957.277 133.884L964.066 124.924L963.651 124.644ZM956.863 133.604L951.16 141.131L951.575 141.41L957.277 133.884L956.863 133.604Z" fill="#F7AE56"/>
<path d="M961.146 122.954C961.229 122.844 961.204 122.693 961.089 122.615C960.975 122.538 960.814 122.565 960.731 122.675L961.146 122.954ZM960.731 122.675L953.943 131.635L954.357 131.914L961.146 122.954L960.731 122.675ZM953.943 131.635L949.87 137.011L950.284 137.29L954.357 131.914L953.943 131.635Z" fill="#F7AE56"/>
<path d="M957.257 121.745C957.341 121.635 957.315 121.483 957.201 121.406C957.086 121.329 956.926 121.356 956.842 121.466L957.257 121.745ZM956.842 121.466L950.054 130.426L950.469 130.705L957.257 121.745L956.842 121.466ZM950.054 130.426L944.352 137.952L944.767 138.232L950.469 130.705L950.054 130.426Z" fill="#F7AE56"/>
<path d="M954.335 119.778C954.419 119.668 954.393 119.517 954.279 119.439C954.164 119.362 954.004 119.389 953.921 119.499L954.335 119.778ZM953.921 119.499L947.132 128.459L947.547 128.738L954.335 119.778L953.921 119.499ZM947.132 128.459L943.059 133.835L943.474 134.114L947.547 128.738L947.132 128.459Z" fill="#F7AE56"/>
<path d="M948.492 115.844C948.575 115.734 948.55 115.582 948.435 115.505C948.321 115.428 948.16 115.455 948.077 115.565L948.492 115.844ZM948.077 115.565L941.288 124.525L941.703 124.804L948.492 115.844L948.077 115.565ZM941.288 124.525L937.215 129.901L937.63 130.18L941.703 124.804L941.288 124.525Z" fill="#F7AE56"/>
<path d="M936.68 107.887C936.763 107.777 936.738 107.625 936.624 107.548C936.509 107.471 936.349 107.497 936.265 107.607L936.68 107.887ZM936.265 107.607L929.477 116.567L929.892 116.847L936.68 107.887L936.265 107.607ZM929.477 116.567L925.404 121.944L925.819 122.223L929.892 116.847L929.477 116.567Z" fill="#F7AE56"/>
<path d="M951.413 117.811C951.497 117.701 951.472 117.549 951.357 117.472C951.243 117.395 951.082 117.422 950.999 117.532L951.413 117.811ZM950.999 117.532L944.21 126.492L944.625 126.771L951.413 117.811L950.999 117.532ZM944.21 126.492L938.508 134.018L938.923 134.298L944.625 126.771L944.21 126.492Z" fill="#F7AE56"/>
<path d="M945.444 113.791C945.527 113.681 945.502 113.529 945.387 113.452C945.273 113.375 945.112 113.402 945.029 113.512L945.444 113.791ZM945.029 113.512L938.241 122.472L938.655 122.751L945.444 113.791L945.029 113.512ZM938.241 122.472L932.538 129.998L932.953 130.277L938.655 122.751L938.241 122.472Z" fill="#F7AE56"/>
<path d="M942.523 111.822C942.606 111.712 942.581 111.56 942.466 111.483C942.352 111.406 942.191 111.433 942.108 111.543L942.523 111.822ZM942.108 111.543L935.32 120.503L935.734 120.782L942.523 111.822L942.108 111.543ZM935.32 120.503L931.247 125.879L931.661 126.158L935.734 120.782L935.32 120.503Z" fill="#F7AE56"/>
<path d="M939.6 109.854C939.683 109.744 939.658 109.592 939.544 109.515C939.429 109.438 939.269 109.465 939.185 109.575L939.6 109.854ZM939.185 109.575L932.397 118.535L932.812 118.814L939.6 109.854L939.185 109.575ZM932.397 118.535L926.695 126.061L927.109 126.34L932.812 118.814L932.397 118.535Z" fill="#F7AE56"/>
<path d="M933.38 105.665C933.464 105.555 933.438 105.403 933.324 105.326C933.209 105.249 933.049 105.276 932.965 105.386L933.38 105.665ZM932.965 105.386L926.177 114.346L926.592 114.625L933.38 105.665L932.965 105.386ZM926.177 114.346L920.475 121.872L920.89 122.151L926.592 114.625L926.177 114.346Z" fill="#F7AE56"/>
<path d="M930.46 103.698C930.544 103.588 930.518 103.436 930.404 103.359C930.289 103.282 930.129 103.308 930.046 103.418L930.46 103.698ZM930.046 103.418L923.257 112.379L923.672 112.658L930.46 103.698L930.046 103.418ZM923.257 112.379L919.184 117.755L919.599 118.034L923.672 112.658L923.257 112.379Z" fill="#F7AE56"/>
<path d="M927.536 101.729C927.62 101.619 927.595 101.468 927.48 101.39C927.366 101.313 927.205 101.34 927.122 101.45L927.536 101.729ZM927.122 101.45L920.333 110.41L920.748 110.689L927.536 101.729L927.122 101.45ZM920.333 110.41L914.631 117.937L915.046 118.216L920.748 110.689L920.333 110.41Z" fill="#F7AE56"/>
<path d="M989.177 126.838C988.61 125.514 933.543 87.4932 927.989 88.6626C922.435 89.832 919.493 99.8518 914.05 107.021C914.05 107.021 922.664 115.619 928.323 114.427C933.982 113.236 937.579 127.407 943.137 131.745C948.695 136.083 960.937 124.586 969.766 130.545C973.888 133.327 972.002 141.091 977.486 139.936C982.971 138.782 989.743 128.162 989.177 126.838Z" fill="#61DC75"/>
<path d="M1114 34.0002C1147 39.0004 1418.5 242.512 1418.5 242.512C1447.25 258.191 1429.69 335.676 1392.29 301.742C1374.53 285.631 1359.55 284.502 1326.38 279.226C1274.08 270.907 1296.26 193.896 1248.54 172.038C1213.34 155.914 1151.6 203.167 1148.5 165.138C1146.44 139.944 1101.64 108.951 1092.78 110.067C1080.41 108.032 1061.22 60.8455 1066.67 56.0001C1079.43 44.6654 1081 29 1114 34.0002Z" fill="#61DC75"/>
<path d="M1060.6 61.2389L1042.33 46.6522L1005.68 102.664L1055.67 149.311L396 948" stroke="#824F20" stroke-width="17" stroke-linecap="round" stroke-linejoin="round"/>
<path d="M1125.06 620.363L995.948 620.363C993.778 620.363 992.291 618.15 993.106 616.14C998.583 602.641 1014.95 558.933 1015.95 516.535C1022.28 481.553 999.915 450.659 999.915 422.217C999.915 393.775 999.915 375.904 978.931 352.926C971.183 348.824 987.028 340.758 997.118 335.826C1001.84 333.515 1007.8 331.863 1013.06 331.863H1034.5C1052.89 321.763 1063.08 317.992 1081 329L1117.84 332.042C1127.08 332.805 1133.45 341.676 1131.28 350.69C1123.64 382.377 1107.73 451.193 1101.47 499.757C1096.75 536.351 1121.08 599.475 1127.89 616.198C1128.7 618.195 1127.22 620.363 1125.06 620.363Z" fill="#F92727"/>
<path d="M931.02 298.249C905.736 222.741 919.17 204.93 912.843 204.33C871.056 197.61 883.833 251.235 903.204 330.523C962.371 369.435 1027.42 379.362 1030.32 360.011C1035.36 343.504 1008.53 325.189 931.02 298.249Z" fill="#F92727"/>
<path d="M931.02 298.249C905.736 222.741 919.17 204.93 912.843 204.33C871.056 197.61 883.833 251.235 903.204 330.523C962.371 369.435 1027.42 379.362 1030.32 360.011C1035.36 343.504 1008.53 325.189 931.02 298.249Z" fill="#F92727"/>
<path d="M1088.26 331.373C1086.18 331.373 1082.1 389.73 1079.83 396.658C1077.56 403.586 1036.42 405.737 1030.46 396.658C1024.5 387.579 1033.42 333.493 1033.42 333.493C1033.42 333.493 1022.61 331.914 1021.78 331.914H1010.98L1016.46 359.121L1014.86 376.907C1016.04 390.904 1015.89 398.747 1013.44 412.711C1013.44 412.711 1010.01 420.878 1005.21 421.372C1001.85 421.718 1000.33 422.089 1000.16 421.984C1000.17 421.959 1000.17 421.933 1000.18 421.908C1000.15 421.944 1000.14 421.969 1000.16 421.984C996.043 447.999 1007.03 468.31 1009.32 499.271C1012.14 537.567 994.513 556.054 993.01 592.858C993.01 592.858 981.325 701.38 981.964 771.222C982.644 845.419 974.662 949.616 981.093 960.288C987.524 970.959 1045.41 960.288 1052.59 960.288C1059.78 960.288 1019.54 845.315 1024.26 771.222C1027.14 726.027 1052.59 657.069 1052.59 657.069C1052.59 657.069 1064.17 719.901 1069.62 760.52C1080 837.967 1079.17 960.288 1084.94 960.288H1154.74C1154.74 960.288 1140.5 939.451 1138.96 925.56C1134.27 883.19 1128.21 847.407 1128.21 847.407C1125.8 825.654 1115.52 782.36 1113.87 760.52C1108.72 692.164 1141.04 648.493 1128.21 581.371C1119.61 536.374 1104.75 538.808 1103.84 504.008C1102.93 469.529 1130.9 410.927 1130.9 410.927C1118.99 406.171 1107.53 409.216 1098.46 398.25C1083.46 380.11 1108.82 333.707 1109.86 331.914C1110.9 330.12 1098.46 330.664 1098.46 330.664C1098.46 330.664 1090.34 331.373 1088.26 331.373Z" fill="#404859"/>
<path d="M1071.39 773.593C1059.47 703.488 1056.08 676.398 1051.34 645.894C1059.67 653.627 1061.84 670.937 1065.86 682.154C1068.98 684.561 1073.22 723.945 1072.77 744.427C1072.05 777.128 1076.79 790.761 1092.82 824.831C1108.86 858.9 1096.14 870.095 1107.34 896.563C1118.91 923.894 1150.91 959.625 1150.91 959.625L1083.14 961.201C1080.59 938.606 1079.62 921.193 1077.78 888.57L1077.61 885.527C1077.61 885.527 1075.52 831.487 1075.54 830.349C1075.56 829.21 1071.39 773.593 1071.39 773.593Z" fill="#2C313B"/>
<path d="M1032.36 373.705C1033.76 358.234 1034.8 353.963 1036.01 340.547C1036.26 337.764 1036.9 331.863 1036.9 331.863H1020C1016.56 331.863 1012.36 331.939 1011.1 332.652C1009.84 333.365 1015.59 382.286 1015.59 382.286C1014.94 382.435 1016.44 389.847 1012.76 400.547C1012.04 402.637 1008.32 405.775 1005.64 409.231C1004.22 411.063 1003.13 411.949 1002.08 413.968C1001.37 415.349 1001.07 416.176 1000.68 417.657C1000.5 418.368 1000.3 419.494 1000.3 419.494L999.858 421.073L999.413 422.652C995.903 427.329 1005.07 477.153 1007.48 478.553C1007.48 478.553 1011.08 503.661 1010 518.075C1008.78 534.255 998.646 557.652 998.646 557.652C998.646 557.652 993.241 579.526 992.418 594.757C991.667 608.67 989.235 615.479 988.108 629.358C988.108 629.358 983.377 669.375 981.929 695.066C981.929 695.066 980.001 743.016 980.385 773.206C980.769 803.396 978.84 865.552 978.84 865.552C977.976 892.601 977.534 907.765 977.295 934.812C977.439 942.292 977.64 946.49 978.185 953.967C978.185 953.967 978.82 958.528 979.964 960.283C980.476 961.068 980.968 961.327 981.744 961.862C982.97 962.708 985.302 963.441 985.302 963.441C991.676 964.998 995.143 965.106 1002.01 965.002C1020.89 964.23 1030.83 962.894 1049.42 960.563L1049.43 960.477C1049.93 956.355 1050.31 953.152 1049.9 949.019C1049.67 944.968 1048.38 938.389 1048.35 938.364C1048.32 938.339 1047.17 931.121 1046.81 929.484C1046.81 929.484 1035 924 1028.27 918.829C1020.11 912.554 1015.91 908.071 1009.73 899.294C1002.77 889.396 998.455 883.249 995.831 870.88C992.375 854.583 999.393 844.987 1000.47 828.258C1002.02 804.05 998.921 786.821 1000.47 766.102L1006.64 700.394C1006.64 700.394 1017.46 654.221 1022.09 632.91C1026.72 611.599 1040.48 401.435 1040.48 401.435C1040.48 401.435 1038.92 400.579 1037.93 400.158C1036.8 399.678 1035.71 398.941 1034.74 398.243C1033.59 397.422 1033.34 397.389 1032.45 395.81C1031.56 394.231 1031.49 383.312 1032.36 373.705Z" fill="#2C313B"/>
<path d="M916.065 186.792C913.845 177.221 913.271 172.651 913.45 166.178C909.198 161.205 907.663 163.072 905.288 168.424C907.011 175.68 907.427 179.407 905.218 184.194C889.579 194.589 883.353 199.995 882.175 208.012C885.646 220.903 889.126 224.637 901.361 217.562C912.262 203.161 916.018 196.177 916.065 186.792Z" fill="#734415"/>
<path d="M900.887 188.895C905.654 178.151 905.103 171.661 900.56 159.56C890.836 164.058 883.638 173.734 869.307 197.089C869.069 205.416 872.015 205.698 878.935 203.826L893.33 183.282C896.455 189.02 898.086 189.806 900.887 188.895Z" fill="#734415"/>
<path d="M1090.63 479.943C1086.4 434.286 1095.78 380.778 1110 331.5C1106.2 328.542 1095.68 328.008 1088 329.5C1085.99 329.357 1076.59 447.391 1081.06 479.943C1063.18 481.219 1052.13 482.265 1035.74 484.41C1029.69 425.197 1029.5 392.586 1037.01 331.863C1028.69 330.278 1017.87 331.225 1010.21 331.863C1009.65 428.712 1017.68 455.377 1025.53 486.964C1016.52 488.418 1008.29 492.07 1008.29 492.07C1008.29 492.07 1008.44 495.864 1008.93 499.091C1009.43 502.365 1010.84 502.92 1010.84 502.92C1036.57 496.856 1060.46 491.335 1103.4 492.07L1105.31 483.134C1101.5 481.817 1094.59 480.042 1090.63 479.943Z" fill="#D9D9D9"/>
<path d="M1041.51 250.216C1028.82 260.731 1038.92 266.846 1054.99 285.023C1071.05 303.201 1073.21 313.708 1085.9 303.193C1096.06 287.602 1104.56 274.407 1088.49 256.23C1072.43 238.052 1056.15 246.045 1041.51 250.216Z" fill="#FFC552"/>
<path d="M1013.05 269.243C1022.33 289.107 1025.39 276.026 1037.54 268.541C1049.69 261.056 1073.45 277.133 1051.76 245.701C1039.65 233.245 1026.26 226.417 1014.11 233.901C1001.97 241.386 1008.96 256.507 1013.05 269.243Z" fill="#D58F02"/>
<path d="M1017.71 257.41C1008.77 268.437 1016.41 288.694 1034.78 302.656C1053.15 316.617 1075.54 326.414 1080.56 305.268C1080.94 290.042 1072.26 269.45 1053.89 255.489C1035.52 241.527 1026.65 246.382 1017.71 257.41Z" fill="black"/>
<path d="M990.707 497.749L963.512 504.224C961.375 508.617 970.843 512.371 985.44 511.21C983.462 519.149 982.693 523.442 988.576 527.743C991.083 532.035 992.709 533.036 995.783 533.684C1002.23 534.348 1006.52 533.141 1015.34 528.391C1025.79 530.886 1029.68 530.484 1033.46 526.96C1039 511.728 1030.57 505.174 990.707 497.749Z" fill="#734415"/>
<path d="M1042.48 333.755C1045.8 350.343 1049.95 351.133 1049.95 351.133C1049.95 351.133 1077.27 359.773 1074.62 329.602C1070.28 313.744 1069.86 309.123 1064.75 298.211C1051.65 297.224 1039.56 319.165 1042.48 333.755Z" fill="#734415"/>
<path d="M1063.22 288.733C1062.95 303.378 1072.48 323.678 1054.63 331.015C1036.79 338.352 1022.98 328.705 1018 306.08C1011.84 279.57 1016.89 263.079 1030.82 262.226C1044.14 257.836 1063.54 271.749 1063.22 288.733Z" fill="#734415"/>
<path d="M1061.29 324.354C1063.77 322.648 1065.14 316.457 1064.61 319.615C1064.61 319.522 1064.15 328.577 1051.61 332.176C1039.07 335.776 1032.83 330.652 1031.69 329.807C1031.61 329.038 1033.91 330.673 1033.91 330.673C1035.25 330.616 1040.46 333.503 1043.87 332.253C1046.61 333.007 1049.82 330.746 1053 329.884C1061.93 327.458 1058.82 326.06 1061.29 324.354Z" fill="#653B11"/>
<path d="M1062.23 288.387C1061.77 293.929 1063.49 297.78 1066.37 297.353C1069.24 296.927 1072.16 292.205 1071.34 287.035C1070.53 281.865 1066.28 278.205 1063.4 278.632C1060.53 279.059 1060.08 283.231 1062.23 288.387Z" fill="#734415"/>
<path d="M1032.28 312.52C1032.56 314.275 1037.78 318.209 1041.62 317.641C1045.45 317.072 1049.22 311.805 1048.94 310.05C1048.66 308.295 1044.45 310.717 1040.61 311.285C1036.78 311.854 1032 310.765 1032.28 312.52Z" fill="#D9D9D9"/>
<path d="M1066.54 325.067C1058.2 330.854 1060.2 330.327 1055.64 332.207C1051 334.122 1043.31 334.546 1043.31 334.546C1052.88 334.105 1058.67 333.261 1066.54 325.067Z" fill="#653B11"/>
<path d="M1067.82 288.567C1068.14 290.667 1067.8 291.469 1066.35 292.29C1066.41 291.012 1066.23 290.41 1065.38 289.63C1065.9 288.769 1065.92 287.807 1065.87 285.907C1066.37 288.041 1066.79 288.726 1067.82 288.567Z" fill="#653B11"/>
<path d="M1062.82 282.077C1064.36 282.087 1064.23 282.049 1065.46 282.843C1066.7 283.638 1067.32 284.114 1068.1 285.141C1068.87 286.169 1068.81 286.981 1068.98 288.205C1069.14 289.393 1069.4 290.129 1068.98 291.269C1068.6 292.296 1067.22 293.566 1067.22 293.566" stroke="#653B11" stroke-width="0.25"/>
<path d="M472.09 445.123C490.993 460.84 581.545 363.126 594.66 402.255C590.013 433.467 483.76 491.963 459.724 479.642C450.518 474.923 446.752 470.4 444.236 463.734C427.781 420.14 405.115 328.544 411.686 299.573C444.28 274.465 470.36 392.682 472.09 445.123Z" fill="#F92727"/>
<path d="M472.09 445.123C490.993 460.84 581.545 363.126 594.66 402.255C590.013 433.467 483.76 491.963 459.724 479.642C450.518 474.923 446.752 470.4 444.236 463.734C427.781 420.14 405.115 328.544 411.686 299.573C444.28 274.465 470.36 392.682 472.09 445.123Z" fill="#F92727"/>
<path d="M434.588 355.068C432.579 346.543 438.424 338.87 438.609 339.182C438.609 339.182 446.884 355.841 452.188 368.73C460.198 388.193 442.607 448.447 443.379 460.744C443.437 460.951 443.446 461.049 443.4 461.023C443.392 460.933 443.385 460.84 443.379 460.744C442.821 458.762 437.783 446.779 434.446 437.959C427.78 420.34 434.402 414.31 436.124 404.272C438.235 391.967 441.066 372.658 441.066 372.658C441.328 367.511 435.134 357.385 434.588 355.068Z" fill="#CD0606"/>
<path d="M322.904 926.24L284.976 927.656C284.976 927.656 291.991 935.292 285.66 950.006C279.329 964.721 278.362 973.226 284.976 975.441C291.591 977.656 325.826 1011.24 364.712 1001.68C366.83 1000.17 369.603 996.086 371.366 990.917C376.455 976.001 327.692 949.753 323.508 945.961C319.324 942.169 322.047 932.086 322.904 926.24Z" fill="#FFC552"/>
<path d="M486.588 930.942L452.584 934.373C452.584 934.373 458.79 942.037 454.267 953.17C449.744 964.303 448.113 971.544 454.507 974.331C460.9 977.117 493.273 1002.41 527.748 992.062C529.578 990.667 531.874 987.059 533.211 982.598C537.07 969.726 492.012 950.478 488.072 947.529C484.133 944.579 486.097 935.92 486.588 930.942Z" fill="#FFC552"/>
<path d="M278.925 344.725C281.589 350.533 302.594 379.292 304.286 381.606C304.367 381.716 304.419 381.817 304.465 381.946C305.071 383.653 309.341 396.134 309.703 397.191C309.72 397.241 309.736 397.283 309.756 397.331C309.992 397.91 311.61 401.888 311.861 402.799C312.8 406.215 312.359 406.476 315.724 405.838C332.743 402.611 383.587 394.343 436.707 399.101C436.117 382.699 433.649 357.963 441.429 349.039C448.864 340.511 431.285 293.714 424.746 290.068C422.53 288.833 410.783 288.813 393.747 288.32C389.982 286.062 358.792 282.28 343.958 288.368C327.913 289.386 314.871 304.828 307.473 304.308C300.075 303.788 289.463 305.329 280.93 320.835C278.097 325.985 276.585 339.627 278.925 344.725Z" fill="#F92727"/>
<path d="M347.072 347.072C336.529 343.471 326.191 292.246 323.592 294.252C320.993 296.259 315.059 297.575 315.059 297.575C315.059 297.575 302.086 302.958 301.194 304.221C300.302 305.485 337.632 348.684 324.369 370.77C319.72 378.511 316.845 378.569 303.482 381.706C303.482 381.706 321.864 424.226 321.491 460.5C321.115 497.111 315.549 496.663 306.51 544.174C293.025 615.045 296.928 733.978 296.928 733.978C296.928 733.978 299.281 749.817 296.928 772.744L283.062 873.538L273.463 927.811C273.463 927.811 340.403 933.483 347.057 933.35C353.71 933.216 348.331 821.283 358.789 739.612C364.274 696.777 371.588 619.893 379.24 588.602C386.892 557.312 421.214 729.401 418.501 739.612C414.638 754.151 437.959 934.624 446.248 934.457C454.538 934.29 508.11 936.672 508.11 936.672C508.11 936.672 475.22 774.782 478.246 749.484C486.644 679.257 443.207 553.936 442.772 550.996C430.447 511.098 425.816 495.002 427.05 454.857C428.352 412.501 444.115 399.476 446.248 376.216C446.34 375.216 446.248 358.494 440.915 354.064C437.191 350.97 430.25 350.741 430.25 350.741C427.149 336.116 420.528 339.543 421.619 324.799L422.86 305.69L424.917 290.93C424.917 290.93 414.691 287.577 413.185 287.607C412.226 287.626 400.386 288.714 400.386 288.714C400.386 288.714 410.702 336.243 404.009 345.928C397.315 355.612 357.616 350.673 347.072 347.072Z" fill="#6A67E3"/>
<path d="M379.278 187.013C387.487 205.415 382.393 199.994 367.483 224.733C352.574 249.471 352.913 274.545 338.331 269.935C314.646 262.594 311.346 219.911 335.326 194.146C350.055 148.355 363.586 151.84 379.278 187.013Z" fill="#FFDA6A"/>
<path d="M375.848 280.538C379.529 299.905 375.436 302.78 375.436 302.78C375.436 302.78 349.983 325.39 339.659 291.825C337.393 272.737 335.825 267.59 336.536 253.417C350.12 245.949 372.61 263.504 375.848 280.538Z" fill="#F0ABB7"/>
<path d="M334.862 240.11C337.241 260.956 334.068 279.876 351.652 290.795C369.235 301.714 379.164 294.271 388.71 250.099C391.356 221.755 379.031 202.882 364.122 202.32C349.775 203.304 332.667 220.872 334.862 240.11Z" fill="#F0ABB7"/>
<path d="M349.317 287.43L344.705 282.199C347.188 287.578 353.929 292.661 361.52 294.356C369.112 296.05 374.657 287.751 375.581 286.238C375.48 285.167 373.865 286.84 373.865 286.84C373.865 286.84 369.346 293.572 365.706 292.956C363.187 294.853 360.441 292.603 357.121 292.44C354.349 291.737 349.317 287.43 349.317 287.43Z" fill="#C19CC1"/>
<path d="M337.597 245.725C340.63 252.856 340.271 258.711 336.591 259.419C332.912 260.126 327.259 255.17 325.938 247.968C324.616 240.767 328.126 234.048 331.806 233.34C335.485 232.632 337.896 237.954 337.597 245.725Z" fill="#F0ABB7"/>
<path d="M379.419 263.909C379.394 266.398 373.481 272.828 368.495 272.747C363.508 272.667 357.725 266.05 357.75 263.561C357.775 261.072 363.598 263.655 368.584 263.735C373.571 263.816 379.444 261.421 379.419 263.909Z" fill="#D9D9D9"/>
<path d="M341.116 285.161C350.733 292.407 348.576 291.864 353.611 294.045C358.739 296.266 366.742 296.13 366.742 296.13C356.794 296.419 350.677 295.792 341.116 285.161Z" fill="#C19CC1"/>
<path d="M330.442 248.067C330.869 251.001 331.759 251.857 334.402 252.101C333.741 250.462 333.764 249.568 334.764 248.056C333.558 247.228 333.095 245.981 332.345 243.46C332.49 246.547 332.142 247.682 330.442 248.067Z" fill="#C19CC1"/>
<path fill-rule="evenodd" clip-rule="evenodd" d="M333.033 237.047C333.11 237.018 333.19 236.988 333.275 236.957L333.455 237.478C333.386 237.504 333.32 237.529 333.257 237.552C332.501 237.833 332.184 237.951 331.931 238.155C331.678 238.358 331.489 238.648 331.038 239.338C331.001 239.395 330.961 239.456 330.92 239.519C329.883 241.105 329.401 241.986 328.999 243.666C328.682 244.993 328.896 245.895 329.19 247.131C329.26 247.427 329.335 247.742 329.408 248.087C329.475 248.403 329.531 248.695 329.584 248.97C329.82 250.199 329.99 251.083 330.774 252.16C331.198 252.742 331.933 253.32 332.584 253.762C332.905 253.981 333.199 254.161 333.413 254.287C333.52 254.35 333.606 254.399 333.666 254.432L333.734 254.47L333.751 254.479L333.755 254.481L333.512 254.974L333.51 254.973L333.505 254.971L333.486 254.96L333.413 254.92C333.351 254.885 333.261 254.834 333.15 254.769C332.929 254.639 332.625 254.452 332.292 254.226C331.633 253.778 330.831 253.157 330.349 252.494C329.485 251.308 329.291 250.29 329.054 249.046C329.003 248.778 328.95 248.5 328.888 248.206C328.82 247.89 328.749 247.593 328.681 247.305C328.381 246.051 328.13 245.003 328.482 243.533C328.905 241.763 329.425 240.82 330.479 239.208C330.529 239.131 330.577 239.057 330.623 238.987C331.039 238.348 331.28 237.978 331.604 237.717C331.928 237.456 332.333 237.306 333.033 237.047Z" fill="#C19CC1"/>
<path d="M338.027 445.113C343.401 396.681 319.07 356.496 300.985 304.224C309.869 299.101 314.979 296.886 324.259 293.784C326.816 293.633 356.823 361.466 357.165 443.178C379.627 441.833 378.897 444.191 399.737 446.467C407.425 383.655 409.627 352.818 400.079 288.404C410.662 286.723 415.235 286.051 425.135 290.007C425.841 392.743 423.016 415.321 413.035 448.827C424.488 450.37 427.05 454.859 427.05 454.859L427.05 463.72L427.05 472.581C386.551 459.878 367.131 456.586 321.483 464.564L319.214 449.237C324.063 447.84 332.988 445.218 338.027 445.113Z" fill="#D9D9D9"/>
<path d="M415.566 743.96C415.566 743.96 376.031 583.26 379.284 583.577C385.13 558.935 425.168 733.866 425.168 733.866C406.384 734.95 474.035 935.374 487.059 935.75L440.108 934.626C411.389 914.777 409.509 744.749 415.566 743.96Z" fill="#254783"/>
<path d="M449.246 970.967C445.142 965.6 457.601 942.373 453.808 938.416L486.881 939.538C486.726 944.898 488.262 947.091 493.724 949.64C493.724 949.64 479.681 957.63 474.336 963.11C468.992 968.589 466.353 981.069 466.353 981.069C466.353 981.069 453.438 976.449 449.246 970.967Z" fill="#C38302"/>
<path d="M315.113 510.553C325.291 471.207 326.876 443.865 304.453 382.933C314.058 381.835 320.947 379.651 327.904 371.931C349.479 429.122 341.915 466.544 315.113 510.553Z" fill="#254783"/>
<path d="M283.122 974.516C276.444 969.524 284.056 956.034 287.388 937.082L321.515 939.35C323.957 945.523 330.222 950.147 341.777 957.5C321.296 966.159 313.067 974.396 306.584 990.398L293.253 981.323C293.253 981.323 286.951 977.378 283.122 974.516Z" fill="#C38302"/>
<path d="M664.056 352.997C664.607 352.116 599.524 316.601 599.073 317.342C589.965 332.288 605.648 352.234 608.65 355.822C608.933 356.159 608.952 356.64 608.691 357.006L581.641 394.879C581.302 395.354 581.45 395.992 581.963 396.266L596.962 404.278C597.46 404.543 598.102 404.358 598.38 403.869L621.108 363.872C621.149 363.8 621.204 363.735 621.289 363.728C623.475 363.54 654.906 367.635 664.056 352.997Z" fill="#D2A272"/>
<rect width="80.0978" height="14.2183" rx="1" transform="matrix(0.882079 0.471101 -0.519948 0.854198 602.202 306.496)" fill="#CC6B0A"/>
<rect width="74.1646" height="42.6549" transform="matrix(0.882079 0.471101 -0.519948 0.854198 627.005 271.456)" fill="#FDDAA4"/>
<path d="M592.201 364.49C600.929 363.125 604.875 362.081 610.013 359.801C615.961 361.591 615.156 363.446 611.924 367.128C605.288 368.131 602.094 369.024 599.242 372.386C597.994 388.433 596.475 395.241 590.548 398.835C578.573 400.287 573.976 398.71 574.099 386.504C580.738 372.958 584.655 367.624 592.201 364.49Z" fill="#D6BAD6"/>
<path d="M598.789 380.776C605.147 373.281 610.593 371.506 622.392 371.015C623.346 380.349 618.979 389.428 607.014 408.9C600.469 411.937 598.865 409.671 597.124 403.482L606.811 384.918C600.762 384.373 599.37 383.333 598.789 380.776Z" fill="#D6BAD6"/>
<path d="M592.201 364.49C600.929 363.125 604.875 362.081 610.013 359.801C615.961 361.591 615.156 363.446 611.924 367.128C605.288 368.131 602.094 369.024 599.242 372.386C597.994 388.433 596.475 395.241 590.548 398.835C578.573 400.287 573.976 398.71 574.099 386.504C580.738 372.958 584.655 367.624 592.201 364.49Z" fill="#F0ABB7"/>
<path d="M598.789 380.776C605.147 373.281 610.593 371.506 622.392 371.015C623.346 380.349 618.979 389.428 607.014 408.9C600.469 411.937 598.865 409.671 597.124 403.482L606.811 384.918C600.762 384.373 599.37 383.333 598.789 380.776Z" fill="#F0ABB7"/>
<path d="M312.537 670.33L307.143 665.461L324.306 660.593L328.229 664.07L326.758 670.33L331.171 684.935V703.713L321.364 710.668L310.575 700.931V682.848L312.537 670.33Z" fill="#F92727" stroke="black"/>
<rect x="253.204" y="648.768" width="85.326" height="82.0669" fill="#EFA056"/>
<ellipse cx="295.867" cy="732.226" rx="42.663" ry="19.4735" fill="#EFA056"/>
<ellipse cx="295.867" cy="651.551" rx="42.663" ry="19.4735" fill="#FFBE5C"/>
<ellipse cx="295.368" cy="650.856" rx="35.3073" ry="14.6051" fill="black"/>
<path d="M330.678 651.551C326.602 636.953 262.441 636.174 260.554 652.246C260.554 652.246 258.307 664.539 293.899 665.462C329.492 666.384 330.858 652.198 330.678 651.551Z" fill="#61DC75"/>
<path d="M338.53 697.453C306.783 716.531 287.943 714.98 253.204 698.852V715.641C288.848 732.577 307.613 732.69 338.53 712.842V697.453Z" fill="#E9E8E8"/>
<path d="M338.53 673.806C306.783 692.884 287.943 691.333 253.204 675.205V691.994C288.848 708.93 307.613 709.043 338.53 689.196V673.806Z" fill="#EAE9E9"/>
<path d="M311.075 672.415C310.28 668.723 306.661 664.765 306.661 664.765C306.786 664.219 317.473 655.595 322.844 660.592C324.429 662.067 325.127 663.322 326.276 665.46C330.169 672.707 328.737 679.327 329.219 688.411C329.563 694.911 328.634 698.011 327.748 704.407C327.082 709.212 329.45 714.997 326.276 716.926C319.411 721.099 321.863 702.321 317.45 705.798C314.745 707.929 312.546 718.317 309.113 711.362C304.94 702.907 308.045 695.143 309.113 684.934C309.632 679.98 312.106 677.205 311.075 672.415Z" fill="#61DC75"/>
<path d="M252.474 649.175L267.493 587.861H325.426L340.445 649.175" stroke="#272420" stroke-width="2" stroke-linecap="round" stroke-linejoin="round"/>
<path d="M252.474 649.175L267.493 587.861H325.426L340.445 649.175" stroke="#79746E" stroke-opacity="0.59" stroke-linecap="round" stroke-linejoin="round"/>
<path d="M322.725 583.417L314.613 604.439C309.155 608.471 306.282 609.998 305.826 594.448C295.708 599.787 290.194 602.365 283.771 598.079C277.817 597.274 276.289 596.011 275.025 593.107C273.285 586.728 274.283 581.797 279.304 570.719C274.626 560.97 274.625 556.781 278.725 551.419C297.903 539.371 307.618 545.352 322.725 583.417Z" fill="#F0ABB7"/>
<path d="M679.384 314.446C679.452 314.325 679.409 314.172 679.289 314.104C679.17 314.035 679.018 314.077 678.95 314.198L679.384 314.446ZM678.95 314.198L672.786 325.165L673.22 325.413L679.384 314.446L678.95 314.198ZM672.786 325.165L667.609 334.378L668.043 334.626L673.22 325.413L672.786 325.165Z" fill="#F7AE56"/>
<path d="M676.213 312.634C676.281 312.514 676.238 312.361 676.119 312.292C675.999 312.224 675.847 312.266 675.779 312.386L676.213 312.634ZM675.779 312.386L669.615 323.354L670.049 323.602L676.213 312.634L675.779 312.386ZM669.615 323.354L665.917 329.934L666.351 330.182L670.049 323.602L669.615 323.354Z" fill="#F7AE56"/>
<path d="M669.871 309.011C669.939 308.89 669.897 308.737 669.777 308.669C669.657 308.6 669.505 308.642 669.437 308.763L669.871 309.011ZM669.437 308.763L663.274 319.73L663.708 319.978L669.871 309.011L669.437 308.763ZM663.274 319.73L659.575 326.311L660.009 326.559L663.708 319.978L663.274 319.73Z" fill="#F7AE56"/>
<path d="M673.042 310.82C673.11 310.7 673.068 310.547 672.948 310.478C672.828 310.41 672.676 310.452 672.608 310.572L673.042 310.82ZM672.608 310.572L666.445 321.54L666.879 321.788L673.042 310.82L672.608 310.572ZM666.445 321.54L661.267 330.753L661.701 331.001L666.879 321.788L666.445 321.54Z" fill="#F7AE56"/>
<path d="M666.7 307.199C666.768 307.079 666.726 306.926 666.606 306.857C666.486 306.789 666.334 306.831 666.266 306.951L666.7 307.199ZM666.266 306.951L660.103 317.919L660.537 318.167L666.7 307.199L666.266 306.951ZM660.103 317.919L654.925 327.131L655.359 327.38L660.537 318.167L660.103 317.919Z" fill="#F7AE56"/>
<path d="M663.546 305.385C663.614 305.265 663.571 305.112 663.452 305.043C663.332 304.975 663.18 305.017 663.112 305.137L663.546 305.385ZM663.112 305.137L656.948 316.105L657.382 316.353L663.546 305.385L663.112 305.137ZM656.948 316.105L653.25 322.685L653.684 322.934L657.382 316.353L656.948 316.105Z" fill="#F7AE56"/>
<path d="M659.446 304.555C659.513 304.435 659.471 304.282 659.351 304.213C659.231 304.145 659.079 304.187 659.011 304.307L659.446 304.555ZM659.011 304.307L652.848 315.275L653.282 315.523L659.446 304.555L659.011 304.307ZM652.848 315.275L647.67 324.488L648.104 324.736L653.282 315.523L652.848 315.275Z" fill="#F7AE56"/>
<path d="M656.275 302.744C656.342 302.623 656.3 302.47 656.18 302.402C656.06 302.333 655.908 302.375 655.841 302.496L656.275 302.744ZM655.841 302.496L649.677 313.463L650.111 313.711L656.275 302.744L655.841 302.496ZM649.677 313.463L645.979 320.044L646.413 320.292L650.111 313.711L649.677 313.463Z" fill="#F7AE56"/>
<path d="M648.939 298.217C649.008 298.097 648.966 297.946 648.845 297.88C648.725 297.813 648.57 297.855 648.501 297.975L648.939 298.217ZM648.501 297.975L642.023 309.117L642.461 309.359L648.939 298.217L648.501 297.975ZM642.023 309.117L638.137 315.802L638.574 316.044L642.461 309.359L642.023 309.117Z" fill="#F7AE56"/>
<path d="M635.475 290.775C635.544 290.656 635.502 290.505 635.382 290.438C635.261 290.371 635.106 290.414 635.037 290.533L635.475 290.775ZM635.037 290.533L628.559 301.675L628.997 301.917L635.475 290.775L635.037 290.533ZM628.559 301.675L624.673 308.361L625.11 308.603L628.997 301.917L628.559 301.675Z" fill="#F7AE56"/>
<path d="M652.275 300.057C652.345 299.938 652.303 299.787 652.182 299.72C652.061 299.653 651.907 299.696 651.838 299.815L652.275 300.057ZM651.838 299.815L645.36 310.958L645.798 311.2L652.275 300.057L651.838 299.815ZM645.36 310.958L639.919 320.317L640.357 320.559L645.798 311.2L645.36 310.958Z" fill="#F7AE56"/>
<path d="M645.469 296.297C645.538 296.178 645.496 296.027 645.376 295.96C645.255 295.893 645.101 295.936 645.031 296.055L645.469 296.297ZM645.031 296.055L638.554 307.198L638.991 307.439L645.469 296.297L645.031 296.055ZM638.554 307.198L633.112 316.557L633.55 316.799L638.991 307.439L638.554 307.198Z" fill="#F7AE56"/>
<path d="M642.132 294.456C642.201 294.337 642.16 294.186 642.039 294.119C641.918 294.053 641.764 294.095 641.694 294.215L642.132 294.456ZM641.694 294.215L635.217 305.357L635.654 305.599L642.132 294.456L641.694 294.215ZM635.217 305.357L631.33 312.042L631.768 312.284L635.654 305.599L635.217 305.357Z" fill="#F7AE56"/>
<path d="M638.812 292.616C638.881 292.496 638.839 292.345 638.718 292.279C638.598 292.212 638.443 292.254 638.374 292.374L638.812 292.616ZM638.374 292.374L631.896 303.516L632.334 303.758L638.812 292.616L638.374 292.374ZM631.896 303.516L626.455 312.876L626.893 313.118L632.334 303.758L631.896 303.516Z" fill="#F7AE56"/>
<path d="M631.723 288.696C631.792 288.576 631.75 288.425 631.63 288.359C631.509 288.292 631.355 288.334 631.285 288.454L631.723 288.696ZM631.285 288.454L624.807 299.596L625.245 299.838L631.723 288.696L631.285 288.454ZM624.807 299.596L619.366 308.956L619.804 309.198L625.245 299.838L624.807 299.596Z" fill="#F7AE56"/>
<path d="M628.386 286.855C628.455 286.736 628.413 286.585 628.293 286.518C628.172 286.451 628.018 286.494 627.948 286.613L628.386 286.855ZM627.948 286.613L621.471 297.755L621.908 297.997L628.386 286.855L627.948 286.613ZM621.471 297.755L617.584 304.441L618.022 304.683L621.908 297.997L621.471 297.755Z" fill="#F7AE56"/>
<path d="M625.049 285.014C625.118 284.895 625.077 284.744 624.956 284.677C624.835 284.61 624.681 284.653 624.611 284.772L625.049 285.014ZM624.611 284.772L618.134 295.915L618.571 296.157L625.049 285.014L624.611 284.772ZM618.134 295.915L612.692 305.274L613.13 305.516L618.571 296.157L618.134 295.915Z" fill="#F7AE56"/>
<path d="M692.5 306.5C691.768 305.072 629.448 268.915 623.889 270.899C618.331 272.882 616.459 284.546 611.698 293.291C611.698 293.291 621.506 301.969 627.169 299.948C632.833 297.927 638.135 313.497 644.325 317.732C650.516 321.966 661.751 307.524 671.478 313.198C676.02 315.847 674.972 324.838 680.461 322.88C685.95 320.921 693.232 307.928 692.5 306.5Z" fill="#61DC75"/>
<path d="M321.35 465.234L336.5 462.5C338.318 454.798 339.322 450.165 340 442L319 449L321.35 465.234Z" fill="#ADA4A4"/>
<path d="M327.122 371.355L308 323.5C301.602 342.059 304.139 356.087 301.797 376.974L304.836 382.594C313.345 382.554 319.022 380.284 327.122 371.355Z" fill="#CD0606"/>
<path d="M275.101 452.976C287.265 472.573 310.042 549.707 295.086 559.313C276.049 578.328 246.066 494.678 241.326 472.58C239.334 463.293 236.861 459.409 237.771 453.096C243.723 411.812 269.566 333.14 286 313C326.981 313.141 312.927 360.949 275.101 452.976Z" fill="#F92727"/>
<path d="M275.101 452.976C287.265 472.573 310.042 549.707 295.086 559.313C276.049 578.328 246.066 494.678 241.326 472.58C239.334 463.293 236.861 459.409 237.771 453.096C243.723 411.812 269.566 333.14 286 313C326.981 313.141 312.927 360.949 275.101 452.976Z" fill="#F92727"/>
<path d="M1117.99 450.986C1110.87 518.071 1010.94 487.782 1019.24 517.798C1043.29 549.905 1151.82 518.734 1149.81 465.11C1154.41 392.131 1141.67 333.311 1119.5 332C1096.12 333.206 1101.64 364.621 1117.99 450.986Z" fill="#F92727"/>
<path d="M1117.99 450.986C1110.87 518.071 1010.94 487.782 1019.24 517.798C1043.29 549.905 1151.82 518.734 1149.81 465.11C1154.41 392.131 1141.67 333.311 1119.5 332C1096.12 333.206 1101.64 364.621 1117.99 450.986Z" fill="#F92727"/>
<path d="M1136.22 451.749C1135.38 465.123 1133.28 482.41 1124.41 488.967C1113.46 497.053 1098.46 501.466 1083.23 503.875C1071.39 505.747 1057.78 516.468 1048.04 517.691C1032.13 519.689 1014.29 508.203 1018.41 517.008C1044.83 556.937 1162.37 513.201 1152.43 452.854C1157.02 392.615 1140.66 336.024 1121.31 332.176C1113.84 331.734 1122.58 335.463 1125.05 347.373C1126.99 356.736 1125.43 367.959 1129.77 385.228C1132.27 395.213 1138.3 404.98 1140.74 417.672C1142.28 425.666 1134.92 442.666 1136.22 451.749Z" fill="#D30909"/>
<path d="M1136.22 451.749C1135.38 465.123 1133.28 482.41 1124.41 488.967C1113.46 497.053 1098.46 501.466 1083.23 503.875C1071.39 505.747 1057.78 516.468 1048.04 517.691C1032.13 519.689 1014.29 508.203 1018.41 517.008C1044.83 556.937 1162.37 513.201 1152.43 452.854C1157.02 392.615 1140.66 336.024 1121.31 332.176C1113.84 331.734 1122.58 335.463 1125.05 347.373C1126.99 356.736 1125.43 367.959 1129.77 385.228C1132.27 395.213 1138.3 404.98 1140.74 417.672C1142.28 425.666 1134.92 442.666 1136.22 451.749Z" fill="#D30909"/>
</g>
<defs>
<linearGradient id="paint0_linear_25_587" x1="98.2277" y1="170.961" x2="-12.2789" y2="172.587" gradientUnits="userSpaceOnUse">
<stop stop-color="#E6D7BA"/>
<stop offset="0.239595" stop-color="white"/>
</linearGradient>
<linearGradient id="paint1_linear_25_587" x1="98.2277" y1="170.961" x2="-12.2789" y2="172.587" gradientUnits="userSpaceOnUse">
<stop stop-color="#E6D7BA"/>
<stop offset="0.239595" stop-color="white"/>
</linearGradient>
<clipPath id="clip0_25_587">
<rect width="1440" height="1024" fill="white"/>
</clipPath>
</defs>
</svg>
