<svg width="5173" height="1188" viewBox="0 0 5173 1188" fill="none" xmlns="http://www.w3.org/2000/svg">
<path d="M1437.2 1187.23L1437.18 1187.2C1439.55 1187.17 1441.95 1186.99 1444.39 1186.68C1448.17 1186.22 1451.94 1185.74 1455.71 1185.26C1482.95 1182.29 1510.76 1181.03 1538.79 1181.43C1571 1182.03 1603.24 1182.66 1635.45 1183.23C1669.57 1183.84 1703.67 1184.47 1737.81 1185.18C1771.74 1185.83 1805.71 1186.68 1839.51 1186.68C1880.12 1186.37 1920.64 1185.35 1959.82 1179.31C1997.59 1172.78 2034.59 1163.71 2073.32 1160.32C2121.72 1154.77 2170.66 1150.89 2220.63 1151.88C2311.14 1151.52 2401.46 1150.09 2492.59 1152.84C2683.38 1156.49 2874.13 1159.67 3063.1 1154.31C3141.13 1152.5 3218.96 1149.83 3296.89 1147.56C3306.03 1148.8 3315.17 1150.15 3324.35 1151.87C3341.36 1155.43 3354.55 1152.56 3364.14 1145.68C3369.69 1145.58 3375.21 1145.33 3380.76 1145.22C3439.95 1144 3534.17 1143.59 3594.25 1143.16C3624.91 1142.95 3655.55 1142.7 3686.21 1142.43C3820.31 1140.95 3954.53 1139.66 4087.08 1131.26C4093.93 1130.53 4102.56 1130 4111.32 1129.09C4235.2 1136.52 4358.87 1142.79 4482.24 1147.15C4541.34 1150.37 4600.51 1154.24 4659.72 1158.16C4671.1 1158.91 4689.97 1171.49 4693.81 1160.22C4694.22 1159.02 4694.35 1158.64 4694.75 1157.46C4686.54 1156.13 4682.73 1155.51 4681.49 1154.38C4685.91 1155.42 4690.33 1156.28 4694.75 1157.46H4694.77C4736.54 1035.2 4740.21 1039.95 4691.95 1024.19C4688.39 1023.37 4684.85 1022.71 4681.29 1021.94C4727.23 1016.61 4773.29 1011.68 4819.57 1007.5C4894.01 1001 4969.39 998.147 5045.43 998.548C5110.81 998.907 5132.83 1021.26 5068.68 866.69C5068.54 865.429 5068.39 864.357 5068.25 863.071C5068.17 862.209 5067.52 862.046 5066.75 862.082C5061.47 850.202 5045.24 861.01 5034.54 860.338C4982.13 857.929 4930.15 857.667 4878.39 858.488C4876.52 847.574 4871.67 830.84 4865.35 807.695C4885.7 800.906 4903.89 789.712 4913.31 769.546C4973.32 772.832 5033.3 775.953 5093.34 779.432C5182.98 775.69 5191.19 802.819 5142.82 641.975C5140.08 632.861 5127.04 637.289 5119.17 635.786C5116 635.181 5112.84 634.704 5109.67 634.156C5111.5 633.479 5112.57 632.228 5111.98 629.681C5076.47 477.41 5088.86 496.151 5012.19 494.687C4979.48 495.8 4946.8 497.03 4914.12 498.25C4910.59 490.984 4905.56 482.053 4898.86 471.193C4902.1 450.822 4903.65 435.587 4903.46 424.525C4910.92 424.503 4919.04 424.476 4926.19 424.474C4984.3 423.956 5042.14 422.09 5099.48 418.206C5109.19 417.549 5119.04 417.324 5128.49 415.745C5135.16 414.622 5150.45 418.354 5147.71 410.119C5132.78 365.323 5106.01 324.288 5084.56 281.556C5084.26 281.599 5083.95 281.607 5083.64 281.658C5083.61 281.453 5083.56 281.248 5083.53 281.043C5083.48 280.684 5083.62 280.417 5083.82 280.187V280.16C5083.38 279.273 5082.87 278.422 5082.43 277.535C5050.02 280.416 5017.54 282.949 4984.99 285.304C4992.03 243.724 4959.31 185.041 4906.59 188.621C4818.64 192.076 4730.94 196.53 4643.07 200.328C4644.28 195.535 4645.48 190.71 4646.84 186.022C4622.58 166.75 4600.11 142.034 4574.06 128.21C4560.27 120.892 4546.18 125.97 4532.31 125.237C4514.59 124.304 4496.94 123.822 4479.28 123.228C4435.92 121.761 4392.64 120.767 4349.34 119.69C4339.01 110.532 4325.21 105.14 4307.95 106.296C4242.92 108.828 4177.92 111.944 4112.91 114.895C4089.96 114.485 4067.01 114.029 4044.07 113.634C4045.59 110.302 4047.1 106.955 4048.71 103.695C4028.36 84.4234 4010.93 59.7066 3987.69 45.8834C3975.39 38.5651 3960.27 43.6432 3946.54 42.9102C3929.02 41.9772 3911.48 41.4953 3893.95 40.9006C3831.02 38.7527 3768.09 37.2815 3705.16 35.7318C3553.18 32.6765 3401.2 30.407 3249.22 27.5076C3093.37 25.1597 2937.52 26.5537 2781.69 29.4091C2755.28 30.1524 2728.88 31.1163 2702.48 32.0647C2537.96 14.7567 2366.94 4.30535 2194.85 1.04272C1805.88 -6.11456 1427.34 23.7226 1118.14 85.9119C1088.86 88.5776 1059.59 91.774 1030.35 95.02C986.141 99.6747 942.064 105.133 897.718 107.53C866.516 109.027 835.277 108.586 804.062 108.094C777.494 107.787 750.905 106.926 724.34 106.377C672.698 105.47 671.041 113.25 686.484 185.755C660.979 187.154 636.024 188.59 610.502 190.117C587.438 189.543 572.497 188.718 563.552 193.116C556.23 193.706 548.907 194.336 541.577 194.752C538.564 194.905 531.906 191.03 532.549 194.547C538.106 224.943 541.581 247.016 544.623 265.78C544.025 273.716 543.175 282.994 542.43 292.677C510.8 294.117 479.168 295.465 447.542 297.013C340.822 300.991 308.811 303 206.695 304.005C181.089 304.262 147.977 282.087 129.886 303.749C127.133 307.045 124.72 310.603 122.494 314.304C107.776 304.87 93.1227 295.428 94.3364 302.383C98.3504 325.386 99.7466 350.893 103.542 374.848C100.105 396.289 98.0247 418.564 94.0229 438.982C92.7616 445.408 106.161 437.065 120.388 427.999C122.663 431.849 125.153 435.581 128.026 438.982C141.142 454.51 161.681 447.778 181.898 441.956C170.421 470.04 176.101 506.702 197.512 526.584C197.492 547.712 200.555 564.298 205.934 577.538C205.717 580.896 205.631 584.281 205.262 587.584C206.029 587.549 206.796 587.55 207.568 587.533C206.202 596.144 206.74 603.55 208.955 609.955C161.829 613.164 114.816 618.28 67.7671 622.895C60.2524 624.335 52.6149 624.633 44.9629 624.848C39.1518 623.228 33.4914 621.783 31.5005 625.366C26.728 625.622 21.9795 625.981 17.2764 626.786C11.4731 627.78 -0.667778 624.11 0.0288086 631.071C10.7165 737.9 4.10309 760.319 24.7358 763.412C24.2157 765.35 27.1853 764.689 30.7168 763.617C37.628 763.72 46.2303 763.048 58.6938 762.356C73.2229 760.844 87.7703 759.516 102.308 758.153C99.3297 784.711 108.812 813.261 134.698 828.154C127.953 829.194 121.225 830.302 114.516 831.634C108.288 832.875 95.5287 828.717 95.9683 836.243C105 991 92.9686 972.802 170.762 968.101C197.827 965.876 224.902 963.718 251.963 961.43C265.896 960.251 268.898 959.985 280.389 958.995C277.472 974.409 278.539 977.225 291.388 977.588C291.421 978.982 293.478 977.895 294.904 977.615C296.499 977.621 298.297 977.653 300.19 977.641C305.677 977.744 311.894 977.897 316.363 978C320.736 978.102 325.094 978.256 329.467 978.41C365.655 979.727 401.854 981.511 437.928 985.295C479.828 989.622 521.809 991.844 563.795 994.698C571.822 995.108 579.867 995.41 587.898 995.687C562.502 1035.82 581.197 1105.52 635.61 1104.91V1104.88C637.986 1104.85 640.427 1104.68 642.935 1104.36C646.802 1103.9 650.672 1103.42 654.539 1102.94C682.382 1099.98 710.438 1098.71 738.382 1099.11C770.476 1099.71 802.587 1100.34 834.681 1100.91C868.679 1101.52 902.65 1102.15 936.646 1102.86C970.439 1103.51 1004.25 1104.36 1038.05 1104.36C1078.72 1104.05 1119.45 1103.04 1159.86 1096.99C1198.96 1090.47 1237.78 1081.39 1277.2 1078C1287.73 1076.81 1298.28 1075.78 1308.83 1074.78C1320.21 1075.51 1331.59 1076.24 1342.99 1077.01C1351.1 1077.42 1359.18 1077.72 1367.27 1078C1350.03 1118.13 1382.91 1187.83 1437.2 1187.22L1437.2 1187.23ZM5083.82 280.185C5084.06 280.646 5084.33 281.093 5084.56 281.554C5086.86 281.246 5089.17 280.975 5091.46 280.616C5093.74 280.257 5085.44 278.376 5083.82 280.206L5083.82 280.185ZM5048.34 498.895C5050.24 497.286 5055.4 497.783 5058.69 498.254C5055.17 497.895 5051.74 498.357 5048.34 498.895Z" fill="url(#paint0_linear_13_28)"/>
<defs>
<linearGradient id="paint0_linear_13_28" x1="4596.5" y1="594" x2="-80.4999" y2="594" gradientUnits="userSpaceOnUse">
<stop stop-color="#FF2EEE" stop-opacity="0.5"/>
<stop offset="1" stop-color="#A53DFF" stop-opacity="0.5"/>
</linearGradient>
</defs>
</svg>
