<svg width="1024" height="768" viewBox="0 0 1024 768" fill="none" xmlns="http://www.w3.org/2000/svg">
<path d="M261.583 550.125C261.406 549.854 261.229 549.588 261.052 549.318C260.984 549.588 260.922 549.854 260.854 550.125C261.099 550.125 261.339 550.125 261.583 550.125Z" fill="#6592D3"/>
<path d="M404.818 226.646L403.292 226.625L403.24 229.797C403.766 229.964 404.271 230.177 404.76 230.401L404.818 226.646Z" fill="#6FA2DC"/>
<path d="M400.323 229.245L400.365 226.578L398.833 226.557L398.797 229.224C398.995 229.219 399.193 229.198 399.391 229.198C399.708 229.198 400.016 229.224 400.323 229.245Z" fill="#6FA2DC"/>
<path d="M410.286 241.896C410.286 239.182 409.276 236.698 407.625 234.786L407.594 236.713C407.583 237.521 406.917 238.172 406.109 238.156C405.297 238.146 404.651 237.479 404.667 236.667L404.729 232.411C404.245 232.141 403.74 231.911 403.214 231.713L403.12 237.75C403.109 238.557 402.443 239.203 401.635 239.193C400.828 239.182 400.182 238.516 400.193 237.703L400.292 231.052C399.995 231.026 399.698 231.005 399.391 231.005C399.182 231.005 398.974 231.021 398.766 231.036L398.635 239.693C398.62 240.5 397.958 241.146 397.151 241.13C396.339 241.12 395.698 240.453 395.708 239.646L395.828 231.615C395.141 231.854 394.479 232.161 393.865 232.526L393.802 236.505C393.792 237.312 393.125 237.958 392.318 237.943C391.51 237.932 390.865 237.266 390.875 236.458L390.896 235.099C389.401 236.963 388.5 239.328 388.5 241.896H410.286Z" fill="#6FA2DC"/>
<path d="M518.302 145.104L519.266 146.292L523.26 143.063L523.213 141.135L518.302 145.104Z" fill="#6FA2DC"/>
<path d="M521.104 148.568L522.068 149.76L524.005 148.188C523.646 147.807 523.406 147.307 523.359 146.745L521.104 148.568Z" fill="#6FA2DC"/>
<path d="M395.906 226.51L393.953 226.484L393.896 230.464C394.526 230.161 395.177 229.906 395.859 229.708L395.906 226.51Z" fill="#6FA2DC"/>
<path d="M716.943 110.927C717.396 110.927 717.724 110.984 717.969 111.078C718.214 111.172 718.385 111.276 718.599 111.5C718.74 111.651 718.828 111.807 718.906 112.021C718.979 112.229 719.026 112.5 719.026 112.833C719.036 114.411 719.036 115.984 719.036 117.573C719.036 120.729 719.026 123.896 719.026 127.063C719.026 129.578 719.026 132.089 719.026 134.594C719.026 134.979 719.031 135.359 719.031 135.734C719.031 135.911 719.026 136.099 719.026 136.292V136.281C719.026 136.62 718.964 136.896 718.859 137.13C718.76 137.359 718.625 137.547 718.406 137.734C718.219 137.891 718.089 137.948 717.797 138.021C717.516 138.089 717.068 138.12 716.484 138.12C715.234 138.12 713.99 138.12 712.74 138.12C708.099 138.12 703.458 138.12 698.818 138.12C694.135 138.12 689.448 138.12 684.766 138.12C683.391 138.12 682.016 138.12 680.641 138.12C674.99 138.12 669.339 138.12 663.688 138.12C660.198 138.12 656.708 138.12 653.219 138.12H652.786C651.807 138.125 650.573 138.12 649.188 138.547C646.172 139.484 643.828 141.818 642.807 144.76C642.318 146.182 642.302 147.479 642.297 148.526C642.297 151.844 642.297 155.156 642.297 158.469H649.917C650.057 158.469 650.193 158.51 650.333 158.516C650.333 156.094 650.333 153.677 650.333 151.255C650.328 150.391 650.271 149.589 650.276 148.891C650.276 148.401 650.297 147.974 650.354 147.656C650.411 147.328 650.495 147.12 650.557 147.005C650.771 146.672 650.938 146.542 651.234 146.391C651.536 146.25 652.01 146.156 652.615 146.156C655.724 146.156 658.839 146.156 661.948 146.156C667.479 146.156 673.005 146.156 678.531 146.156C684.234 146.156 689.938 146.156 695.646 146.156C696.089 146.156 696.536 146.156 696.979 146.156C701.901 146.156 706.818 146.156 711.74 146.156C713.156 146.156 714.583 146.156 716.005 146.156C716.214 146.156 716.427 146.156 716.651 146.156C717.464 146.156 718.422 146.146 719.505 145.906C722.594 145.198 725.078 143.031 726.286 140.198C726.891 138.76 727.068 137.318 727.063 136C727.063 134.005 727.063 132.01 727.063 130.016C727.063 124.62 727.063 119.224 727.063 113.833C727.063 113.583 727.068 113.318 727.068 113.036L727.063 112.609V112.604C727.026 109.531 725.568 106.641 723.089 104.802C721.906 103.911 720.599 103.417 719.365 103.156C718.12 102.896 716.927 102.844 715.828 102.844C714.74 102.844 713.74 102.896 712.875 102.891C711.964 102.891 711.042 102.891 710.125 102.891V110.927C712.396 110.927 714.672 110.927 716.943 110.927Z" fill="#2E3192"/>
<path d="M642.297 158.474H642.099C638.063 158.474 634.792 161.745 634.792 165.776V214.833H657.224V165.776C657.224 161.885 654.167 158.729 650.328 158.516C650.193 158.505 650.057 158.474 649.917 158.474H642.297Z" fill="#4E86CA"/>
<path d="M582.5 121.542C582.5 126.391 586.432 130.318 591.276 130.318H701.344C706.198 130.318 710.125 126.391 710.125 121.542V92.2865C710.125 87.4376 706.198 83.5105 701.344 83.5105H591.276C586.573 83.5105 582.766 87.2136 582.542 91.8595C582.531 92.0053 582.5 92.1407 582.5 92.2865V121.542Z" fill="#F9A72B"/>
<path d="M650.516 447.703C650.516 441.531 645.51 436.526 639.339 436.526C637.719 436.526 636.182 436.88 634.792 437.5V559.219H657.224V447.703H650.516Z" fill="#2F5598"/>
<path d="M634.792 219.187V403.271C636.182 403.891 637.719 404.24 639.339 404.24C645.51 404.24 650.516 399.24 650.516 393.068H657.224V214.833H634.792V219.187Z" fill="#2F5598"/>
<path d="M670.875 533.641C672.146 533.318 673.474 533.125 674.849 533.125H700.177C701.026 533.125 701.849 533.214 702.661 533.339V447.703H670.875V533.641Z" fill="#7B7979"/>
<path d="M605.818 393.068V447.703H628.167V393.068H605.818Z" fill="#E9E9E9"/>
<path d="M650.51 447.703H720.375C720.375 447.703 749.182 422.042 775.333 422.042V407.146C775.333 407.146 758.115 393.068 720.375 393.068H650.51V447.703Z" fill="#E9E9E9"/>
<path d="M650.516 447.703V393.068C650.516 399.24 645.51 404.24 639.339 404.24C637.719 404.24 636.182 403.891 634.792 403.271C630.891 401.531 628.167 397.62 628.167 393.068V447.703C628.167 443.151 630.891 439.24 634.792 437.5C636.182 436.88 637.719 436.526 639.339 436.526C645.51 436.526 650.516 441.531 650.516 447.703Z" fill="#7B7979"/>
<path d="M674.849 533.125C673.474 533.125 672.146 533.318 670.875 533.641C664.026 535.411 658.958 541.615 658.958 549.021V559.219H716.073V549.021C716.073 541.089 710.255 534.536 702.661 533.339C701.849 533.214 701.026 533.125 700.177 533.125H674.849Z" fill="#F9A72B"/>
<path d="M451.318 144.76C452.469 144.76 453.401 143.828 453.401 142.682C453.401 141.531 452.469 140.599 451.318 140.599L451.245 140.604L451.307 144.755L451.318 144.76Z" fill="#ED3F7C"/>
<path d="M441.875 235.177C442.464 235.229 443.057 235.26 443.662 235.26C447.557 235.26 451.188 234.141 454.255 232.203L480.037 262.63L480.385 310.781H480.406L480.385 307.51L496.005 307.396L498.495 307.38L498.141 259.51C498.135 258.255 497.87 257.062 497.401 255.979C497.047 254.99 496.521 254.042 495.797 253.193L463.573 215.151V215.135H458.719L458.406 155.359H458.151L453.406 155.349V155.359L453.839 215.135H432.787L432.469 155.359H432.214L427.464 155.349V155.359L427.901 215.135H423.745V351.005H441.875V235.177Z" fill="#426FBF"/>
<path d="M432.786 215.135H453.839L453.406 155.359H449.542V155.573C449.526 158.729 446.953 161.281 443.797 161.266C440.635 161.255 438.089 158.682 438.104 155.521V155.359H432.219H432.469L432.786 215.135Z" fill="#18272E"/>
<path d="M443.792 161.271C446.953 161.286 449.526 158.734 449.536 155.573V155.359L449.562 150.448C448.219 152.036 446.229 153.057 443.99 153.094C441.63 153.13 439.51 152.057 438.125 150.359L438.099 155.359V155.521C438.088 158.682 440.635 161.255 443.792 161.271Z" fill="#ED3F7C"/>
<path d="M443.99 153.094C446.229 153.057 448.219 152.036 449.563 150.448C450.677 149.125 451.344 147.411 451.313 145.547L451.302 144.76L451.24 140.609L451.198 137.854H458.766C465.714 137.854 471.339 132.224 471.339 125.281C471.339 118.333 465.714 112.708 458.766 112.708C452.042 112.708 446.563 118 446.229 124.641C440.688 125.021 436.307 129.63 436.307 135.266V137.854H436.318L436.438 145.771C436.464 147.516 437.094 149.109 438.125 150.359C439.51 152.057 441.625 153.13 443.99 153.094Z" fill="#18272E"/>
<path d="M427.469 155.359H423.745V155.396C419.807 155.187 415.823 156.745 413.083 159.984C412.875 160.229 412.693 160.484 412.505 160.74L403.578 171.292L405.182 172.651L421.167 186.172L423.5 188.151L423.745 187.854V215.135H427.906L427.469 155.359Z" fill="#18272E"/>
<path d="M390.896 235.099L390.932 232.453C388.338 234.776 386.693 238.146 386.693 241.896H388.5C388.5 239.328 389.401 236.964 390.896 235.099Z" fill="#2F5598"/>
<path d="M410.286 241.896H412.094C412.094 238.052 410.37 234.609 407.661 232.276L407.625 234.787C409.276 236.698 410.286 239.182 410.286 241.896Z" fill="#2F5598"/>
<path d="M400.292 231.052L400.323 229.245C400.016 229.224 399.708 229.198 399.391 229.198C399.193 229.198 398.995 229.219 398.797 229.224L398.766 231.037C398.974 231.021 399.182 231.005 399.391 231.005C399.698 231.005 399.995 231.026 400.292 231.052Z" fill="#2F5598"/>
<path d="M404.76 230.401C404.271 230.177 403.766 229.964 403.24 229.797L403.214 231.714C403.74 231.911 404.245 232.141 404.729 232.411L404.76 230.401Z" fill="#2F5598"/>
<path d="M395.859 229.708C395.177 229.906 394.526 230.161 393.896 230.463L393.865 232.526C394.479 232.161 395.141 231.854 395.828 231.615L395.859 229.708Z" fill="#2F5598"/>
<path d="M378.589 245.406L382.391 272.771H415.708L419.333 245.396L419.224 245.406H378.589Z" fill="#2F5598"/>
<path d="M388.5 241.896H378.391C377.667 241.896 377.073 242.49 377.073 243.213V244.083C377.073 244.818 377.667 245.406 378.391 245.406H419.224L419.333 245.396C420.01 245.344 420.542 244.781 420.542 244.083V243.213C420.542 242.49 419.953 241.896 419.224 241.896H388.5Z" fill="#F9A72B"/>
<path d="M398.662 196.568C397.167 198.333 394.526 198.552 392.76 197.057C390.995 195.563 390.771 192.922 392.266 191.156C393.76 189.391 396.401 189.172 398.167 190.667C399.932 192.161 400.156 194.802 398.662 196.568ZM391.875 188.38C390.099 190.479 389.302 193.078 389.422 195.625H389.401L391.026 226.438L390.932 232.453L390.896 235.104L390.875 236.458C390.859 237.266 391.505 237.938 392.313 237.948C393.125 237.958 393.792 237.318 393.802 236.505L393.859 232.531L393.891 230.469L393.953 226.484L395.906 226.516L395.854 229.714L395.828 231.62L395.708 239.646C395.693 240.458 396.339 241.125 397.146 241.135C397.958 241.146 398.62 240.5 398.635 239.693L398.766 231.036L398.792 229.229L398.833 226.557L400.359 226.578L400.323 229.25L400.292 231.052L400.193 237.708C400.177 238.516 400.828 239.182 401.635 239.193C402.443 239.208 403.109 238.563 403.12 237.75L403.214 231.714L403.24 229.797L403.292 226.625L404.818 226.651L404.76 230.406L404.729 232.417L404.662 236.672C404.651 237.479 405.297 238.146 406.104 238.156C406.912 238.172 407.578 237.526 407.594 236.719L407.62 234.786L407.662 232.281L407.745 226.693L410.052 199.307L421.162 186.177L405.182 172.656L391.875 188.38Z" fill="#F25484"/>
<path d="M392.266 191.151C390.776 192.917 390.995 195.562 392.76 197.052C394.526 198.547 397.167 198.328 398.661 196.562C400.156 194.797 399.937 192.156 398.172 190.661C396.406 189.167 393.76 189.385 392.266 191.151Z" fill="#F573AA"/>
<path d="M524.005 148.187L528.057 144.917L528.01 142.99L523.354 146.745C523.412 147.307 523.641 147.807 524.005 148.187Z" fill="#2F5598"/>
<path d="M526.318 136.74C526.828 137.37 526.729 138.292 526.099 138.802L523.214 141.13L523.255 143.062L527.917 139.297L527.927 139.292L527.787 133.542C531.641 133.365 534.708 130.297 534.927 126.49L515.573 126.943C515.974 130.734 519.177 133.656 523.037 133.656L523.125 137.437L524.26 136.526C524.885 136.01 525.813 136.109 526.318 136.74Z" fill="#2F5598"/>
<path d="M534.703 115.703L533.177 115.74L533.328 122.141L533.036 122.443L532.74 122.156L532.588 115.75L531.562 115.771L531.687 121.016L531.401 121.318L531.099 121.031L530.979 115.786L529.974 115.813L530.13 122.214L529.844 122.516L529.547 122.229L529.391 115.823L528.365 115.849L528.484 121.094L528.203 121.396L527.901 121.109L527.781 115.865L526.781 115.891L526.932 122.292L526.651 122.589L526.349 122.307L526.198 115.901L525.167 115.927L525.292 121.172L525.005 121.469L524.708 121.188L524.583 115.938L523.583 115.964L523.74 122.365L523.453 122.667L523.151 122.38L523 115.974L521.974 116L522.099 121.245L521.812 121.547L521.51 121.255L521.385 116.016L520.391 116.036L520.542 122.443L520.255 122.745L519.958 122.458L519.802 116.052L518.776 116.078L518.901 121.323L518.615 121.62L518.318 121.333L518.193 116.089L517.193 116.115L517.344 122.516L517.057 122.813L516.76 122.531L516.609 116.13L515.286 116.156L515.495 124.948L534.911 124.495L534.703 115.703Z" fill="#FAB750"/>
<path d="M534.963 126.489C535.375 126.479 535.708 126.135 535.698 125.719L535.682 125.224C535.677 124.807 535.328 124.479 534.917 124.489H534.911L515.495 124.948H515.489C515.073 124.958 514.745 125.302 514.755 125.719L514.766 126.213C514.776 126.63 515.12 126.958 515.536 126.948H515.573L534.927 126.489H534.963Z" fill="#78A6DD"/>
<path d="M533.037 122.443L533.323 122.141L533.172 115.74L532.87 115.453L532.589 115.755L532.74 122.156L533.037 122.443Z" fill="#E88C1B"/>
<path d="M531.401 121.318L531.687 121.021L531.568 115.771L531.26 115.49L530.974 115.786L531.099 121.031L531.401 121.318Z" fill="#E88C1B"/>
<path d="M529.844 122.516L530.125 122.219L529.974 115.813L529.672 115.531L529.391 115.828L529.547 122.234L529.844 122.516Z" fill="#E88C1B"/>
<path d="M528.203 121.396L528.49 121.094L528.365 115.849L528.063 115.562L527.781 115.865L527.901 121.109L528.203 121.396Z" fill="#E88C1B"/>
<path d="M526.646 122.594L526.927 122.297L526.776 115.891L526.479 115.604L526.193 115.906L526.349 122.307L526.646 122.594Z" fill="#E88C1B"/>
<path d="M525.005 121.469L525.292 121.172L525.167 115.927L524.87 115.641L524.583 115.938L524.708 121.188L525.005 121.469Z" fill="#E88C1B"/>
<path d="M523.448 122.667L523.734 122.375L523.578 115.969L523.281 115.682L523 115.984L523.151 122.385L523.448 122.667Z" fill="#E88C1B"/>
<path d="M521.813 121.547L522.099 121.245L521.969 116.005L521.672 115.719L521.385 116.021L521.51 121.26L521.813 121.547Z" fill="#E88C1B"/>
<path d="M520.255 122.745L520.542 122.443L520.391 116.036L520.088 115.755L519.802 116.052L519.958 122.458L520.255 122.745Z" fill="#E88C1B"/>
<path d="M518.615 121.625L518.901 121.323L518.776 116.078L518.474 115.797L518.193 116.094L518.312 121.339L518.615 121.625Z" fill="#E88C1B"/>
<path d="M517.057 122.818L517.344 122.521L517.193 116.115L516.891 115.833L516.604 116.13L516.755 122.531L517.057 122.818Z" fill="#E88C1B"/>
<path d="M458.719 215.141H463.578V181.406L476.583 181.505L476.599 179.401L476.755 158.464L476.776 155.406L462.005 155.302C461.552 155.297 461.104 155.318 460.667 155.359H458.151L458.406 155.365L458.719 215.141Z" fill="#18272E"/>
<path d="M497.198 179.547C499.948 179.568 502.458 178.516 504.338 176.792L504.349 176.807L526.969 155.828L534.771 149.526C535.396 149.021 535.5 148.094 534.99 147.469C534.474 146.839 533.557 146.74 532.927 147.25L525.135 153.552L523.906 152.031L534.125 143.776C534.75 143.266 534.849 142.344 534.338 141.714C533.833 141.089 532.911 140.99 532.281 141.5L528.052 144.911L524.01 148.182L522.068 149.755L521.104 148.562L523.359 146.74L528.01 142.984L529.76 141.573C530.391 141.062 530.49 140.141 529.979 139.51C529.469 138.885 528.552 138.786 527.927 139.292L527.917 139.297L523.26 143.062L519.266 146.286L518.307 145.099L523.213 141.13L526.099 138.797C526.729 138.292 526.828 137.37 526.318 136.74C525.812 136.115 524.885 136.016 524.26 136.521L523.125 137.443L516.463 142.823L493.953 158.589L476.755 158.464L476.599 179.396L497.198 179.547Z" fill="#ED3F7C"/>
<path d="M480.385 307.51L480.406 310.781L480.474 320.104H513.542C513.349 309.677 498.568 309.557 498.568 309.557L498.563 307.38H498.49L496.005 307.396L480.385 307.51Z" fill="#512C15"/>
<path d="M441.917 353.182L441.922 351.005H423.745V362.901H456.797C456.016 353.198 441.917 353.182 441.917 353.182Z" fill="#512C15"/>
<path d="M482.365 353.062V362.901H500.984V353.062H482.365Z" fill="#F4F4F4"/>
<path d="M500.984 331.875V323.896H482.365V331.875H500.984Z" fill="#F4F4F4"/>
<path d="M500.984 331.875H503.521V353.062H500.984V362.901H511.495V323.896H500.984V331.875Z" fill="#E9E9E9"/>
<path d="M490.896 336.432C494.224 336.432 496.927 339.135 496.927 342.469C496.927 345.802 494.224 348.505 490.896 348.505C487.557 348.505 484.854 345.802 484.854 342.469C484.854 339.135 487.557 336.432 490.896 336.432ZM482.328 331.875V353.063H503.521V331.875H482.328Z" fill="#2F5598"/>
<path d="M490.896 346.875C493.318 346.875 495.297 344.901 495.297 342.469C495.297 340.042 493.318 338.068 490.896 338.068C488.463 338.068 486.49 340.042 486.49 342.469C486.49 344.901 488.463 346.875 490.896 346.875Z" fill="#2F5598"/>
<path d="M490.896 338.068C493.318 338.068 495.297 340.042 495.297 342.469C495.297 344.901 493.318 346.875 490.896 346.875C488.464 346.875 486.49 344.901 486.49 342.469C486.49 340.042 488.464 338.068 490.896 338.068ZM490.896 348.505C494.224 348.505 496.927 345.802 496.927 342.469C496.927 339.135 494.224 336.432 490.896 336.432C487.557 336.432 484.854 339.135 484.854 342.469C484.854 345.802 487.557 348.505 490.896 348.505Z" fill="#F4F4F4"/>
<path d="M479.854 321.51V322.484C479.854 323.266 480.484 323.896 481.26 323.896H512.662C513.443 323.896 514.073 323.266 514.073 322.484V321.51C514.073 320.734 513.443 320.104 512.662 320.104H481.26C480.484 320.104 479.854 320.734 479.854 321.51Z" fill="#2F5598"/>
<path d="M395.615 710.568C395.615 710.365 395.62 710.162 395.615 709.958C395.542 705.307 395.615 700.656 395.615 696.005V667.479C393.188 667.479 390.76 667.479 388.333 667.479C374.458 667.479 360.578 667.479 346.703 667.479V714.922H399.979C397.776 714.859 395.615 713.412 395.615 710.568Z" fill="#F4F4F4"/>
<path d="M502.182 632.49H404.672V710.568C404.672 713.411 402.516 714.859 400.307 714.922H502.182V632.49Z" fill="#F4F4F4"/>
<path d="M369.109 440.161C371.135 440.161 373.167 440.161 375.193 440.161C376.042 436.672 376.896 433.182 377.75 429.693C380.693 417.641 383.635 405.583 386.583 393.531C384.021 393.531 381.464 393.531 378.906 393.531C368.172 393.531 357.438 393.531 346.703 393.531V440.161C354.172 440.161 361.641 440.161 369.109 440.161Z" fill="#F4F4F4"/>
<path d="M346.703 634.963V660.516C353.724 660.516 360.745 660.516 367.766 660.516C377.047 660.516 386.333 660.516 395.615 660.516V632.49H346.703V634.963Z" fill="#F4F4F4"/>
<path d="M404.672 455.563H502.182V384.807H404.672V455.563Z" fill="#F4F4F4"/>
<path d="M395.615 455.563V447.469C393.188 447.469 390.76 447.469 388.333 447.469C386.193 447.469 384.052 447.469 381.912 447.469C381.255 450.167 380.594 452.865 379.932 455.563H395.615Z" fill="#F4F4F4"/>
<path d="M371.432 455.563C372.01 453.198 372.583 450.839 373.161 448.474C371.057 448.458 368.953 448.422 366.854 448.422C360.135 448.422 353.422 448.422 346.703 448.422V455.563H371.432Z" fill="#F4F4F4"/>
<path d="M383.615 440.505C387.615 440.505 391.615 440.505 395.615 440.505V392.984C395.484 392.984 395.349 392.984 395.219 392.984C394.49 395.974 393.76 398.958 393.031 401.943C389.891 414.797 386.755 427.651 383.615 440.505Z" fill="#F4F4F4"/>
<path d="M346.703 385.172C350.922 385.172 355.135 385.172 359.354 385.172C369.109 385.172 378.87 385.172 388.625 385.172C388.651 385.052 388.677 384.927 388.703 384.807H346.703V385.172Z" fill="#F4F4F4"/>
<path d="M534.104 705.891V694.25H531.219C530.74 694.25 530.255 694.261 529.76 694.276C529.219 694.287 528.662 694.302 528.104 694.302C525.662 694.302 523.083 694.042 520.839 692.359C518.38 690.521 516.938 687.693 516.891 684.604V660.104C516.891 658.521 517.141 657.151 517.662 655.917C518.865 653.078 521.443 650.906 524.391 650.25C525.537 649.99 526.646 649.979 527.609 650H559.281V595.818H527.432L559.281 559.219H589.912V384.807H502.182V455.563H523.359V632.49H502.182V714.922H541.719C537.396 714.177 534.104 710.432 534.104 705.891Z" fill="#E9E9E9"/>
<path d="M525.078 657.891C524.391 658.469 524.25 659.25 524.245 659.802L524.24 674.438C524.234 677.75 524.234 681.057 524.245 684.37C524.25 685.125 524.443 685.703 524.838 686.13C525.177 686.484 525.724 686.896 526.958 686.896H534.104V675.25C534.104 670.177 538.213 666.063 543.292 666.063H559.281V657.354H527.443C526.125 657.354 525.552 657.484 525.078 657.891Z" fill="#E9E9E9"/>
<path d="M337.208 371.943V375.76C337.208 380.76 341.26 384.807 346.255 384.807H388.703C390.229 378.495 391.328 371.823 392.865 365.526C393.031 364.849 393.219 363.938 393.422 362.901H346.255C341.26 362.901 337.208 366.948 337.208 371.943Z" fill="#F9A72B"/>
<path d="M599.406 375.76V371.943C599.406 366.948 595.354 362.901 590.359 362.901H404.688C404.677 364.083 404.672 365.266 404.672 366.453V384.807H590.359C595.354 384.807 599.406 380.76 599.406 375.76Z" fill="#F9A72B"/>
<path d="M346.432 455.562V495.182C349.443 495.182 352.458 495.182 355.469 495.182C357.563 495.182 359.662 495.182 361.755 495.182C363.318 488.771 364.885 482.354 366.453 475.943C368.109 469.151 369.771 462.354 371.432 455.562H346.432Z" fill="#F9A72B"/>
<path d="M346.583 592.099C346.531 592.307 346.484 592.521 346.432 592.724V605.885C353.542 605.885 360.656 605.885 367.766 605.885C377.047 605.885 386.333 605.885 395.615 605.885V589.219C383.109 583.042 373.547 571.823 369.557 558.219C364.656 558.219 359.76 558.219 354.859 558.219C352.099 569.516 349.344 580.807 346.583 592.099Z" fill="#F9A72B"/>
<path d="M348.333 550.125C350.25 542.276 352.167 534.432 354.083 526.588C355.964 518.891 357.844 511.193 359.724 503.495C357.521 503.484 355.313 503.443 353.115 503.443C350.885 503.443 348.662 503.443 346.432 503.443V550.125C347.068 550.125 347.698 550.125 348.333 550.125Z" fill="#F9A72B"/>
<path d="M346.703 632.49H395.615V612.849C393.188 612.849 390.76 612.849 388.333 612.849C374.365 612.849 360.401 612.849 346.432 612.849V632.49H346.703Z" fill="#F9A72B"/>
<path d="M404.672 495.401C408.891 494.25 413.328 493.63 417.911 493.63C445.745 493.63 468.307 516.193 468.307 544.026C468.307 571.859 445.745 594.422 417.911 594.422C413.328 594.422 408.891 593.797 404.672 592.651V632.49H523.359V455.562H404.672V495.401Z" fill="#F9A72B"/>
<path d="M378.854 544.026C378.854 546.495 379.094 548.912 379.537 551.255C384.896 551.255 390.255 551.255 395.615 551.255V511.979C385.495 519.047 378.854 530.771 378.854 544.026Z" fill="#F9A72B"/>
<path d="M356.562 551.255C360.297 551.255 364.031 551.255 367.766 551.255C367.859 551.255 367.948 551.255 368.042 551.255C367.703 548.896 367.516 546.479 367.516 544.026C367.516 527.005 375.964 511.974 388.88 502.844C388.698 502.844 388.516 502.844 388.333 502.844C381.682 502.844 375.036 502.844 368.385 502.844C365.245 515.714 362.099 528.583 358.953 541.453C358.156 544.724 357.359 547.99 356.562 551.255Z" fill="#F9A72B"/>
<path d="M395.615 576.073V558.219C393.187 558.219 390.76 558.219 388.333 558.219C386.068 558.219 383.802 558.219 381.531 558.219C384.375 565.474 389.318 571.672 395.615 576.073Z" fill="#F9A72B"/>
<path d="M371.484 490.167C371.016 492.073 370.552 493.974 370.089 495.88C378.599 495.88 387.104 495.88 395.615 495.88V455.562H379.932C377.12 467.099 374.302 478.635 371.484 490.167Z" fill="#F9A72B"/>
<path d="M456.974 544.026C456.974 522.484 439.453 504.964 417.911 504.964C413.266 504.964 408.807 505.787 404.672 507.281V580.771C408.807 582.266 413.266 583.089 417.911 583.089C439.453 583.089 456.974 565.563 456.974 544.026Z" fill="#F9A72B"/>
<path d="M468.307 544.026C468.307 516.193 445.745 493.63 417.911 493.63C413.328 493.63 408.891 494.25 404.672 495.401V507.281C408.807 505.786 413.266 504.963 417.911 504.963C439.453 504.963 456.974 522.484 456.974 544.026C456.974 565.562 439.453 583.088 417.911 583.088C413.266 583.088 408.807 582.266 404.672 580.771V592.651C408.891 593.797 413.328 594.422 417.911 594.422C445.745 594.422 468.307 571.859 468.307 544.026Z" fill="#F4F4F4"/>
<path d="M395.615 589.219V576.073C389.318 571.672 384.375 565.474 381.531 558.219C377.542 558.219 373.547 558.219 369.557 558.219C373.547 571.823 383.109 583.042 395.615 589.219Z" fill="#F4F4F4"/>
<path d="M367.516 544.026C367.516 546.479 367.703 548.896 368.042 551.255C371.87 551.255 375.703 551.255 379.536 551.255C379.094 548.911 378.854 546.495 378.854 544.026C378.854 530.771 385.495 519.047 395.615 511.979V502.844C393.37 502.844 391.125 502.844 388.88 502.844C375.964 511.974 367.516 527.005 367.516 544.026Z" fill="#F4F4F4"/>
<path d="M404.672 710.568V366.453C404.672 365.266 404.677 364.083 404.688 362.901C404.703 359.964 404.703 357.026 404.677 354.094C404.542 354.646 403.5 359.068 403.458 359.26C402.396 363.854 401.219 368.417 400.099 372.995C398.474 379.661 396.844 386.323 395.219 392.984C395.349 392.984 395.484 392.984 395.615 392.984V440.505C391.615 440.505 387.615 440.505 383.615 440.505C383.464 441.115 383.313 441.729 383.161 442.344C382.948 443.229 382.729 444.115 382.516 444.995L382.417 445.391C382.25 446.083 382.083 446.776 381.911 447.469C384.052 447.469 386.193 447.469 388.333 447.469C390.76 447.469 393.188 447.469 395.615 447.469V495.88C387.104 495.88 378.599 495.88 370.089 495.88C369.75 497.255 369.411 498.641 369.073 500.021L368.979 500.417C368.781 501.224 368.583 502.036 368.385 502.844C375.036 502.844 381.682 502.844 388.333 502.844C388.516 502.844 388.698 502.844 388.88 502.844C391.125 502.844 393.37 502.844 395.615 502.844V551.255C390.255 551.255 384.896 551.255 379.536 551.255C375.703 551.255 371.87 551.255 368.042 551.255C367.948 551.255 367.859 551.255 367.766 551.255C364.031 551.255 360.297 551.255 356.563 551.255C355.995 553.578 355.427 555.896 354.859 558.219C359.76 558.219 364.656 558.219 369.557 558.219C373.547 558.219 377.542 558.219 381.531 558.219C383.802 558.219 386.068 558.219 388.333 558.219C390.76 558.219 393.188 558.219 395.615 558.219V605.885C386.333 605.885 377.047 605.885 367.766 605.885C360.656 605.885 353.542 605.885 346.432 605.885C345.359 605.885 344.292 605.885 343.219 605.885C342.651 608.203 342.083 610.526 341.516 612.849C343.156 612.849 344.797 612.849 346.432 612.849C360.401 612.849 374.365 612.849 388.333 612.849C390.76 612.849 393.188 612.849 395.615 612.849V660.516C386.333 660.516 377.047 660.516 367.766 660.516C360.745 660.516 353.724 660.516 346.703 660.516C341.094 660.516 335.484 660.516 329.875 660.516C329.307 662.833 328.74 665.156 328.172 667.479C331.094 667.479 334.021 667.479 336.943 667.479C340.198 667.479 343.448 667.479 346.703 667.479C360.578 667.479 374.458 667.479 388.333 667.479C390.76 667.479 393.188 667.479 395.615 667.479V696.005C395.615 700.656 395.542 705.307 395.615 709.958C395.62 710.161 395.615 710.365 395.615 710.568C395.615 713.411 397.776 714.859 399.979 714.922C400.089 714.927 400.198 714.927 400.307 714.922C402.516 714.859 404.672 713.411 404.672 710.568Z" fill="#4E86CA"/>
<path d="M300.036 696.005C300.036 700.656 299.958 705.307 300.036 709.958C300.042 710.161 300.036 710.365 300.036 710.568C300.036 716.391 309.094 716.401 309.094 710.568V668.266C306.073 668.266 303.052 668.266 300.036 668.266V696.005Z" fill="#4E86CA"/>
<path d="M309.094 613.323C306.073 613.323 303.052 613.323 300.036 613.323V660.005C303.052 660.005 306.073 660.005 309.094 660.005V613.323Z" fill="#4E86CA"/>
<path d="M300.036 605.063C301.927 605.063 303.818 605.063 305.708 605.063C306.833 605.063 307.963 605.063 309.094 605.063V558.385C306.073 558.385 303.052 558.385 300.036 558.385V605.063Z" fill="#4E86CA"/>
<path d="M309.094 440.161V393.531C306.073 393.531 303.052 393.531 300.036 393.531V440.161C303.052 440.161 306.073 440.161 309.094 440.161Z" fill="#4E86CA"/>
<path d="M309.094 550.125V503.443C306.536 503.443 303.984 503.443 301.432 503.443C300.969 503.443 300.5 503.443 300.036 503.443V550.125C303.052 550.125 306.073 550.125 309.094 550.125Z" fill="#4E86CA"/>
<path d="M304.875 495.182C306.281 495.182 307.687 495.182 309.094 495.182V448.422C306.073 448.422 303.052 448.422 300.036 448.422V495.182C301.646 495.182 303.26 495.182 304.875 495.182Z" fill="#4E86CA"/>
<path d="M309.094 352.5C309.088 352.333 309.088 352.161 309.094 351.99C309.052 352.026 309.005 352.047 308.963 352.083C309.01 352.542 309 353.026 308.87 353.547C308.823 353.75 308.771 353.953 308.724 354.151C307.646 358.812 306.453 363.443 305.318 368.088C303.927 373.781 302.536 379.474 301.146 385.172C303.792 385.172 306.443 385.172 309.094 385.172V366.453C309.094 361.802 309.167 357.146 309.094 352.5Z" fill="#4E86CA"/>
<path d="M293.328 660.005C276.885 660.005 260.437 660.005 243.995 660.005C240.672 660.005 237.344 660.005 234.016 660.005C235.865 652.432 237.714 644.865 239.568 637.286C241.516 629.302 243.469 621.318 245.417 613.323C255.589 613.323 265.755 613.323 275.927 613.323C283.964 613.323 292 613.323 300.036 613.323C303.052 613.323 306.073 613.323 309.094 613.323C312.005 613.323 314.922 613.323 317.833 613.323C320.401 613.323 322.964 613.323 325.531 613.323C327.984 613.323 330.438 613.323 332.896 613.323C332.073 616.693 331.25 620.068 330.427 623.437C330.245 624.187 330.057 624.943 329.875 625.698C327.083 637.135 324.286 648.568 321.495 660.005C317.359 660.005 313.224 660.005 309.094 660.005C306.073 660.005 303.052 660.005 300.036 660.005C297.797 660.005 295.562 660.005 293.328 660.005ZM251.026 590.37C253.63 579.708 256.234 569.047 258.839 558.385C261.646 558.385 264.453 558.385 267.255 558.385C274.359 558.385 281.464 558.385 288.568 558.385C292.391 558.385 296.214 558.385 300.036 558.385C303.052 558.385 306.073 558.385 309.094 558.385C318.974 558.385 328.854 558.385 338.734 558.385C341.26 558.385 343.786 558.385 346.318 558.385C344.729 564.885 343.141 571.38 341.552 577.875C339.339 586.937 337.125 596 334.917 605.062C326.307 605.062 317.698 605.062 309.094 605.062C307.964 605.062 306.833 605.062 305.708 605.062C303.818 605.062 301.927 605.062 300.036 605.062C285.391 605.062 270.745 605.062 256.104 605.062C253.214 605.062 250.323 605.062 247.437 605.062C248.635 600.161 249.828 595.271 251.026 590.37ZM263.578 538.995C266.469 527.146 269.365 515.297 272.26 503.443C274.354 503.443 276.448 503.443 278.542 503.443C285.708 503.443 292.87 503.443 300.036 503.443C300.5 503.443 300.969 503.443 301.432 503.443C303.984 503.443 306.536 503.443 309.094 503.443C315.771 503.443 322.453 503.443 329.135 503.443C334.901 503.443 340.667 503.443 346.432 503.443C348.661 503.443 350.885 503.443 353.115 503.443C355.313 503.443 357.521 503.484 359.724 503.495C357.844 511.193 355.964 518.891 354.083 526.589C352.167 534.432 350.25 542.276 348.333 550.125C347.698 550.125 347.068 550.125 346.432 550.125C337.172 550.125 327.906 550.125 318.641 550.125C315.458 550.125 312.276 550.125 309.094 550.125C306.073 550.125 303.052 550.125 300.036 550.125C289.516 550.125 278.995 550.125 268.474 550.125C266.177 550.125 263.88 550.125 261.583 550.125C261.339 550.125 261.099 550.125 260.854 550.125C260.922 549.854 260.984 549.589 261.052 549.318C261.896 545.875 262.734 542.432 263.578 538.995ZM276.286 486.958C279.422 474.115 282.557 461.266 285.698 448.422C288.375 448.422 291.052 448.422 293.734 448.422C295.833 448.422 297.932 448.422 300.036 448.422C303.052 448.422 306.073 448.422 309.094 448.422C311.443 448.422 313.792 448.422 316.141 448.422C325.224 448.422 334.313 448.422 343.401 448.422C344.5 448.422 345.599 448.422 346.703 448.422C353.422 448.422 360.135 448.422 366.854 448.422C368.953 448.422 371.057 448.458 373.161 448.474C372.583 450.839 372.01 453.198 371.432 455.562C369.771 462.354 368.109 469.151 366.453 475.943C364.885 482.354 363.318 488.771 361.755 495.182C359.661 495.182 357.563 495.182 355.469 495.182C352.458 495.182 349.443 495.182 346.432 495.182C341.818 495.182 337.198 495.182 332.578 495.182C324.75 495.182 316.922 495.182 309.094 495.182C307.688 495.182 306.281 495.182 304.875 495.182C303.26 495.182 301.646 495.182 300.036 495.182C293.656 495.182 287.276 495.182 280.896 495.182C278.698 495.182 276.495 495.146 274.286 495.13C274.953 492.406 275.62 489.682 276.286 486.958ZM288.135 438.437C291.474 424.781 294.807 411.12 298.146 397.458C298.464 396.146 298.786 394.839 299.104 393.526L299.12 393.531C299.427 393.531 299.729 393.531 300.036 393.531C303.052 393.531 306.073 393.531 309.094 393.531C316.026 393.531 322.958 393.531 329.891 393.531C335.495 393.531 341.099 393.531 346.703 393.531C357.438 393.531 368.172 393.531 378.906 393.531C381.464 393.531 384.021 393.531 386.583 393.531C383.635 405.583 380.693 417.641 377.75 429.693C376.896 433.182 376.042 436.672 375.193 440.161C373.167 440.161 371.135 440.161 369.109 440.161C361.641 440.161 354.172 440.161 346.703 440.161C337.615 440.161 328.531 440.161 319.443 440.161C315.99 440.161 312.542 440.161 309.094 440.161C306.073 440.161 303.052 440.161 300.036 440.161C298.688 440.161 297.339 440.161 295.99 440.161C293.245 440.161 290.484 440.094 287.729 440.104C287.865 439.552 288 438.995 288.135 438.437ZM335.286 638.349C336.068 635.151 336.849 631.958 337.63 628.76C338.927 623.453 340.224 618.151 341.516 612.849C342.083 610.526 342.651 608.203 343.219 605.885C344.292 601.495 345.359 597.109 346.432 592.724C346.484 592.521 346.531 592.307 346.583 592.099C349.344 580.807 352.099 569.516 354.859 558.219C355.427 555.896 355.995 553.578 356.563 551.255C357.359 547.99 358.156 544.724 358.953 541.453C362.099 528.583 365.245 515.714 368.385 502.844C368.583 502.036 368.781 501.224 368.979 500.417L369.073 500.021C369.411 498.641 369.75 497.255 370.089 495.88C370.552 493.974 371.016 492.073 371.484 490.167C374.302 478.635 377.12 467.099 379.932 455.562C380.594 452.865 381.255 450.167 381.911 447.469C382.083 446.776 382.25 446.083 382.417 445.391L382.516 444.995C382.729 444.115 382.948 443.229 383.161 442.344C383.313 441.729 383.464 441.115 383.615 440.505C386.755 427.651 389.891 414.797 393.031 401.943C393.76 398.958 394.49 395.974 395.219 392.984C396.844 386.323 398.474 379.661 400.099 372.995C401.219 368.417 402.396 363.854 403.458 359.26C403.5 359.068 404.542 354.646 404.677 354.094C404.682 354.068 404.688 354.042 404.693 354.031C405.953 348.87 396.932 346.01 395.672 351.182C395.063 353.651 394.156 359.125 393.422 362.901C393.219 363.937 393.031 364.849 392.865 365.526C391.328 371.823 390.229 378.495 388.703 384.807C388.677 384.927 388.651 385.052 388.625 385.172C378.87 385.172 369.109 385.172 359.354 385.172C355.135 385.172 350.922 385.172 346.703 385.172C334.583 385.172 322.464 385.172 310.339 385.172C309.922 385.172 309.505 385.172 309.094 385.172C306.443 385.172 303.792 385.172 301.146 385.172C302.536 379.474 303.927 373.781 305.318 368.089C306.453 363.443 307.646 358.812 308.724 354.151C308.771 353.953 308.823 353.75 308.87 353.547C309 353.026 309.01 352.542 308.964 352.083C308.563 348.021 302.036 346.708 300.901 351.349C300.12 354.547 299.339 357.745 298.562 360.943C296.437 369.641 294.312 378.339 292.187 387.042C289.042 399.906 285.901 412.776 282.755 425.641C278.937 441.276 275.12 456.917 271.297 472.557C269.208 481.109 267.12 489.661 265.031 498.214L264.937 498.609C262.875 507.047 260.812 515.495 258.75 523.937C257.469 529.177 256.187 534.411 254.911 539.651C251.953 551.76 248.995 563.865 246.036 575.969C242.089 592.141 238.141 608.312 234.187 624.484C230.849 638.151 227.516 651.812 224.177 665.474C221.786 675.26 219.396 685.052 217.005 694.844C215.87 699.484 214.677 704.12 213.599 708.776C213.557 708.974 213.5 709.177 213.453 709.38C212.193 714.542 220.156 716.75 221.422 711.573C222.203 708.38 222.984 705.182 223.76 701.984C225.891 693.286 228.016 684.583 230.135 675.885C230.766 673.328 231.391 670.76 232.016 668.203C232.224 668.234 232.437 668.266 232.656 668.266C243.047 668.266 253.437 668.266 263.828 668.266C275.896 668.266 287.964 668.266 300.036 668.266C303.052 668.266 306.073 668.266 309.094 668.266C310.448 668.266 311.802 668.266 313.161 668.266C315.266 668.266 317.37 668.266 319.479 668.266C317.297 677.193 315.115 686.12 312.938 695.047C311.818 699.63 310.641 704.193 309.578 708.781C309.536 708.984 309.484 709.182 309.432 709.38C308.172 714.542 316.141 716.75 317.401 711.573C318.172 708.427 318.943 705.271 319.714 702.125C321.807 693.552 323.901 684.974 325.995 676.396C326.719 673.422 327.448 670.453 328.172 667.479C328.74 665.156 329.307 662.833 329.875 660.516C331.677 653.13 333.484 645.74 335.286 638.349Z" fill="#1C355B"/>
<path d="M559.281 595.818V559.219L527.432 595.818H559.281Z" fill="#845333"/>
<path d="M715.146 559.219V715.083H778.844V595.818H746.995L715.146 559.219Z" fill="#845333"/>
<path d="M715.146 559.219H559.281V650H594.333C596.271 650 596.76 649.161 596.943 648.849C597.385 648.089 597.333 646.646 597.286 645.375C597.271 644.943 597.255 644.526 597.255 644.125V636.568H594.391C591.698 636.568 589.51 634.38 589.51 631.688V570.208C589.51 567.516 591.698 565.328 594.391 565.328H608.12C610.818 565.328 613 567.516 613 570.208V631.688C613 634.38 610.818 636.568 608.12 636.568H604.615V646.99C604.615 648.104 604.573 649.422 604.104 650.76C603.083 653.708 600.714 656.016 597.76 656.932C596.401 657.354 595.115 657.359 593.917 657.354H559.281V666.063H658.578C663.656 666.063 667.771 670.177 667.771 675.25V705.891C667.771 710.974 663.656 715.083 658.578 715.083H715.146V559.219Z" fill="#BF935B"/>
<path d="M715.146 559.219L746.995 595.818H810.687L778.844 559.219H715.146Z" fill="#BF935B"/>
<path d="M524.391 650.25C521.443 650.906 518.865 653.078 517.661 655.917C517.141 657.151 516.891 658.521 516.891 660.104V684.604C516.937 687.693 518.38 690.521 520.839 692.359C523.083 694.042 525.661 694.302 528.104 694.302C528.661 694.302 529.219 694.286 529.76 694.276C530.255 694.26 530.74 694.25 531.219 694.25H534.104V686.896H526.958C525.724 686.896 525.177 686.484 524.839 686.13C524.443 685.703 524.25 685.125 524.245 684.37C524.234 681.057 524.234 677.75 524.24 674.437L524.245 659.802C524.25 659.25 524.391 658.469 525.078 657.891C525.552 657.484 526.125 657.354 527.443 657.354H593.917C595.115 657.359 596.401 657.354 597.76 656.932C600.714 656.016 603.083 653.708 604.104 650.76C604.573 649.422 604.615 648.104 604.615 646.99V636.568H597.255V644.125C597.255 644.526 597.271 644.943 597.286 645.375C597.333 646.646 597.385 648.088 596.943 648.849C596.76 649.161 596.271 650 594.333 650H527.609C526.646 649.979 525.536 649.99 524.391 650.25Z" fill="#2C3892"/>
<path d="M608.12 636.568C610.818 636.568 613 634.38 613 631.688V570.208C613 567.516 610.818 565.328 608.12 565.328H594.391C591.698 565.328 589.51 567.516 589.51 570.208V631.688C589.51 634.38 591.698 636.568 594.391 636.568H608.12Z" fill="#78A6DD"/>
<path d="M667.771 705.891V675.25C667.771 670.177 663.656 666.062 658.578 666.062H543.292C538.214 666.062 534.104 670.177 534.104 675.25V705.891C534.104 710.432 537.396 714.177 541.719 714.922C542.229 715.016 542.75 715.083 543.292 715.083H658.578C663.656 715.083 667.771 710.974 667.771 705.891Z" fill="#FAB54C"/>
</svg>
