<svg width="350" height="658" viewBox="0 0 350 658" fill="none" xmlns="http://www.w3.org/2000/svg">
<ellipse cx="143.5" cy="629.5" rx="119.5" ry="8.5" fill="black" fill-opacity="0.26"/>
<path d="M150.075 583H116.286C116.286 583 122.321 589.232 116.286 600.657C110.252 612.082 108.546 620.837 115.219 622.468C121.891 624.099 160.925 629.526 196.071 622.468C198.344 621.43 199.551 621.43 200.758 617.275C204.257 605.233 153.695 601.695 150.075 598.58C146.455 595.464 149.153 587.588 150.075 583Z" fill="#FFC552"/>
<path d="M149.797 589H150.47C150.47 589 150.227 589.111 149.777 589.427C149.575 593.045 148.468 594.519 150.993 597.822C153.615 601.251 204.231 605.707 200.761 617.071C199.564 620.992 198.367 620.992 196.112 621.972C161.256 628.633 138.871 625.166 132.307 624.553C125.743 623.94 134.237 612.524 140.222 601.742C144.78 593.53 148.34 590.436 149.777 589.427C149.785 589.288 149.792 589.146 149.797 589Z" fill="#D58F02"/>
<path d="M72.5098 589H38.3457C38.3457 589 44.4471 594.942 38.3457 605.836C32.2444 616.729 30.5199 625.078 37.2663 626.632C44.0127 628.187 83.4809 633.362 119.017 626.632C121.315 625.642 122.535 625.642 123.756 621.681C127.294 610.199 76.1697 606.826 72.5099 603.855C68.85 600.884 71.5775 593.374 72.5098 589Z" fill="#FFC552"/>
<path d="M71.515 602.903C69.6388 598.042 71.3926 594.018 71.1473 594C71.1473 594 56.5755 597.679 50.0836 607.849C43.5917 618.02 35.4447 625.043 35.9542 626.283C36.4636 627.523 81.4151 633.77 118.858 626.644C121.232 625.655 122.493 625.655 123.754 621.698C127.41 610.229 73.3913 607.764 71.515 602.903Z" fill="#D58F02"/>
<path d="M202.829 156.836C265.322 156.314 274.564 141.938 276.798 146.435C293.564 175.438 250.651 179.615 187.064 185.438C141.783 151.808 116.073 106.523 129.431 99.5C140.099 91.6216 161.122 106.701 202.829 156.836Z" fill="#D30909"/>
<path d="M202.829 156.836C265.322 156.314 274.564 141.938 276.798 146.435C293.564 175.438 250.651 179.615 187.064 185.438C141.783 151.808 116.073 106.523 129.431 99.5C140.099 91.6216 161.122 106.701 202.829 156.836Z" fill="#D30909"/>
<path d="M134.074 97H53.8145C43.5555 97 36.2651 107.074 39.3135 116.87C47.7633 144.023 62.125 193.356 66.6611 228.522C70.2753 256.54 52.1445 304.411 46.3445 318.793C45.5383 320.793 47.0083 323 49.1639 323L148.321 323C150.491 323 151.973 320.767 151.167 318.753C146.55 307.209 134.409 273.952 133.649 241.665C128.69 214.262 138.807 200.917 146.212 167.78C151.739 143.046 148.154 117.757 145.102 105.062C143.872 99.9469 139.336 97 134.074 97Z" fill="#F92727"/>
<path d="M77.0069 96.6165C78.6368 96.6165 81.8306 142.331 83.6087 147.758C85.3869 153.185 117.615 154.871 122.282 147.758C126.95 140.646 119.969 98.2767 119.969 98.2767C119.969 98.2767 128.431 97.0399 129.082 97.0399H137.545L133.247 118.353L134.507 132.286C133.58 143.251 133.698 149.395 135.618 160.333C135.618 160.333 138.302 166.731 142.064 167.118C144.697 167.39 145.888 167.68 146.016 167.598C146.013 167.578 146.01 167.558 146.007 167.538C146.031 167.566 146.035 167.586 146.016 167.598C149.245 187.976 140.636 203.887 138.846 228.142C136.633 258.141 150.444 272.623 151.621 301.454C151.621 301.454 160.775 386.466 160.274 441.178C159.741 499.3 165.994 580.925 160.956 589.285C155.918 597.644 110.577 589.285 104.946 589.285C99.3153 589.285 130.839 499.219 127.14 441.178C124.884 405.773 104.946 351.755 104.946 351.755C104.946 351.755 95.8765 400.974 91.6102 432.794C83.4758 493.463 84.1274 589.285 79.608 589.285H24.9314C24.9314 589.285 36.0807 572.962 37.2863 562.08C40.9633 528.889 45.7101 500.858 45.7101 500.858C47.5978 483.818 55.6514 449.902 56.9418 432.794C60.9808 379.247 35.6575 345.036 45.7101 292.456C52.4491 257.207 64.0852 259.113 64.804 231.852C65.5162 204.842 43.6015 158.936 43.6015 158.936C52.9365 155.21 61.9087 157.596 69.0135 149.006C80.7668 134.795 60.8973 98.4451 60.0823 97.0399C59.2674 95.6348 69.0135 96.0607 69.0135 96.0607C69.0135 96.0607 75.3769 96.6165 77.0069 96.6165Z" fill="#404859"/>
<path d="M90.2231 443.035C99.5605 388.117 102.212 366.896 105.931 343C99.3998 349.058 97.702 362.618 94.5564 371.405C92.1086 373.29 88.785 404.143 89.1397 420.188C89.7061 445.804 85.9943 456.484 73.4314 483.173C60.8685 509.861 70.8295 518.631 62.0564 539.365C52.9973 560.775 27.9314 588.765 27.9314 588.765L81.0147 590C83.0108 572.3 83.7776 558.659 85.2141 533.103L85.3481 530.72C85.3481 530.72 86.99 488.387 86.9731 487.495C86.9561 486.603 90.2231 443.035 90.2231 443.035Z" fill="#2C313B"/>
<path d="M113.629 33.0409C123.568 41.2779 115.654 46.0684 103.07 60.3078C90.4867 74.5471 88.7941 82.7779 78.8546 74.5408C70.8991 62.3274 64.2387 51.9911 76.8224 37.7517C89.4062 23.5124 102.161 29.7731 113.629 33.0409Z" fill="#FFC552"/>
<path d="M135.922 47.946C128.656 63.5067 126.256 53.2593 116.739 47.3961C107.223 41.533 88.6051 54.1267 105.596 29.5043C115.089 19.7461 125.573 14.3975 135.089 20.2607C144.605 26.1238 139.124 37.9694 135.922 47.946Z" fill="#D58F02"/>
<path d="M132.274 38.6761C139.276 47.3147 133.287 63.1834 118.898 74.1204C104.509 85.0573 86.9684 92.7316 83.0414 76.1666C82.7392 64.2388 89.54 48.1083 103.929 37.1713C118.319 26.2344 125.272 30.0375 132.274 38.6761Z" fill="black"/>
<path d="M112.869 98.4827C110.269 111.477 107.019 112.096 107.019 112.096C107.019 112.096 85.6169 118.864 87.6881 95.2289C91.0921 82.8064 91.4188 79.1863 95.4238 70.6385C105.689 69.8651 115.157 87.0534 112.869 98.4827Z" fill="#734415"/>
<path d="M96.618 63.2136C96.8307 74.6858 89.3661 90.5881 103.348 96.336C117.329 102.084 128.141 94.5265 132.045 76.8025C136.871 56.0361 132.918 43.1171 122 42.4494C111.567 39.0099 96.3714 49.9094 96.618 63.2136Z" fill="#734415"/>
<path d="M98.1303 91.1181C96.192 89.7817 95.1213 84.9319 95.5298 87.4056C95.5329 87.3327 95.8963 94.4256 105.719 97.2455C115.542 100.066 120.428 96.0515 121.32 95.3892C121.382 94.7871 119.582 96.0682 119.582 96.0682C118.531 96.0235 114.453 98.2848 111.782 97.3058C109.635 97.896 107.118 96.1249 104.631 95.4495C97.6347 93.5497 100.068 92.4545 98.1303 91.1181Z" fill="#653B11"/>
<path d="M97.3988 62.9428C97.7563 67.2842 96.4112 70.3011 94.1575 69.9668C91.9039 69.6326 89.6173 65.9335 90.2578 61.8837C90.8983 57.8339 94.2232 54.967 96.4769 55.3012C98.7305 55.6355 99.0817 58.9039 97.3988 62.9428Z" fill="#734415"/>
<path d="M120.858 81.848C120.641 83.2228 116.548 86.3045 113.545 85.8591C110.542 85.4137 107.589 81.2876 107.807 79.9128C108.024 78.538 111.329 80.435 114.333 80.8804C117.336 81.3259 121.076 80.4732 120.858 81.848Z" fill="#D9D9D9"/>
<path d="M94.0178 91.6767C100.551 96.2096 98.9829 95.7967 102.556 97.2696C106.196 98.7701 112.219 99.1018 112.219 99.1018C104.721 98.7564 100.187 98.0955 94.0178 91.6767Z" fill="#653B11"/>
<path d="M156.234 194.035C157.202 186.557 163.57 180.959 171.11 180.959L216.029 180.959C225.076 180.959 232.064 188.908 230.905 197.881L219.773 284.04C218.805 291.528 212.423 297.13 204.873 297.118L159.953 297.05C150.914 297.036 143.941 289.09 145.1 280.126L156.234 194.035Z" fill="#5A6479"/>
<path d="M211.557 181.998C211.557 181.998 179.057 182.068 179.056 181.998C179.056 181.927 181.198 173.777 186.151 171.808L194.17 171.742C199.676 164.821 202.246 163.82 205.15 172.41L209.641 172.684C213.204 173.717 213.507 176.322 211.557 181.998Z" fill="#968A8A"/>
<path d="M219.431 285.5C218.146 304.128 232.858 180.929 230.931 195.5C228.293 215.453 201.59 215.622 198.431 235.5C195.107 256.416 220.89 264.372 219.431 285.5Z" fill="#555D6D"/>
<path d="M93.0178 63.0833C92.7679 64.7285 93.0334 65.3569 94.166 66C94.1191 64.9989 94.2627 64.5276 94.9314 63.9167C94.5218 63.2416 94.5033 62.488 94.5487 61C94.151 62.6716 93.8274 63.2085 93.0178 63.0833Z" fill="#653B11"/>
<path d="M96.9314 58C95.7296 58.0073 95.8317 57.9776 94.8652 58.6C93.8987 59.2224 93.4059 59.5951 92.799 60.4C92.1921 61.2049 92.2438 61.8409 92.1103 62.8C91.9808 63.7304 91.7824 64.3073 92.1103 65.2C92.4058 66.0046 93.4877 67 93.4877 67" stroke="#653B11" stroke-width="0.25"/>
<path d="M305.425 136.68L326.728 141.752C328.403 145.194 320.985 148.134 309.551 147.225C311.1 153.444 311.703 156.807 307.094 160.177C305.13 163.539 303.856 164.322 301.449 164.83C296.399 165.35 293.038 164.405 286.129 160.684C277.944 162.638 274.892 162.323 271.934 159.563C267.594 147.631 274.199 142.497 305.425 136.68Z" fill="#734415"/>
<path d="M120.794 129.778C119.696 117.658 118.884 114.313 117.938 103.803C117.742 101.623 117.241 97 117.241 97H130.482C133.175 97 136.465 97.0601 137.45 97.6185C138.436 98.1768 133.931 136.5 133.931 136.5C134.441 136.617 133.264 142.422 136.152 150.805C136.716 152.442 139.63 154.9 141.727 157.607C142.838 159.043 143.693 159.736 144.514 161.318C145.076 162.4 145.309 163.048 145.612 164.208C145.757 164.765 145.908 165.647 145.908 165.647L146.256 166.884L146.605 168.121C149.355 171.785 142.177 210.815 140.286 211.911C140.286 211.911 137.465 231.581 138.316 242.872C139.27 255.546 147.206 273.875 147.206 273.875C147.206 273.875 151.44 291.01 152.084 302.942C152.673 313.841 154.578 319.174 155.461 330.047C155.461 330.047 159.167 361.394 160.301 381.52C160.301 381.52 161.812 419.082 161.511 442.732C161.211 466.382 162.721 515.072 162.721 515.072C163.398 536.262 163.744 548.14 163.931 569.328C163.819 575.188 163.662 578.476 163.234 584.333C163.234 584.333 162.737 587.906 161.841 589.281C161.44 589.896 161.054 590.098 160.447 590.518C159.486 591.181 157.659 591.755 157.659 591.755C152.666 592.974 149.95 593.059 144.571 592.978C129.785 592.373 121.997 591.326 107.431 589.5L107.423 589.433C107.035 586.204 106.733 583.695 107.059 580.457C107.234 577.284 108.243 572.13 108.269 572.11C108.295 572.09 109.197 566.436 109.48 565.154C109.48 565.154 118.729 560.858 124 556.807C130.395 551.892 133.682 548.38 138.521 541.504C143.977 533.751 147.356 528.935 149.411 519.246C152.118 506.479 146.621 498.962 145.781 485.858C144.565 466.894 146.991 453.397 145.781 437.167L140.941 385.694C140.941 385.694 132.47 349.523 128.84 332.829C125.21 316.135 114.431 151.5 114.431 151.5C114.431 151.5 115.655 150.83 116.431 150.5C117.317 150.124 118.168 149.547 118.931 149C119.83 148.357 120.029 148.331 120.726 147.094C121.423 145.857 121.476 137.304 120.794 129.778Z" fill="#2C313B"/>
<path d="M148.856 233.332C150.543 230.471 151.431 229 151.431 229L151.931 225.5C151.931 225.5 143.986 226.218 134.776 227.794C130.575 228.513 129.85 231.545 127.625 233.73C123.29 237.986 124.375 248.58 124.375 248.58C125.494 246.707 165.942 261.735 175.273 249.726C178.21 245.945 179.534 242.151 177.867 237.697C174.547 228.827 143.967 241.622 148.856 233.332Z" fill="#734415"/>
<path d="M53.7135 190.317C59.2903 242.869 137.571 219.142 131.071 242.655C112.233 267.806 27.211 243.388 28.7903 201.381C25.1849 144.212 35.6937 97.6539 53.0638 96.6266C71.3823 97.5716 66.5262 122.662 53.7135 190.317Z" fill="#F92727"/>
<path d="M53.7135 190.317C59.2903 242.869 137.571 219.142 131.071 242.655C112.233 267.806 27.211 243.388 28.7903 201.381C25.1849 144.212 35.6937 97.6539 53.0638 96.6266C71.3823 97.5716 66.5262 122.662 53.7135 190.317Z" fill="#F92727"/>
<path d="M39.4339 190.914C40.0947 201.391 41.7377 214.933 48.6894 220.07C57.261 226.404 69.0131 229.86 80.9467 231.748C90.2208 233.215 100.886 241.613 108.515 242.571C120.977 244.136 134.948 235.139 131.722 242.036C111.026 273.315 18.9526 239.053 26.7369 191.78C23.1414 144.591 35.9549 100.26 51.114 97.2453C56.9683 96.8991 50.1171 99.8201 48.1836 109.15C46.6637 116.485 47.8899 125.276 44.4913 138.804C42.5261 146.626 37.8082 154.277 35.8962 164.22C34.692 170.482 40.4556 183.799 39.4339 190.914Z" fill="#D30909"/>
<path d="M39.4339 190.914C40.0947 201.391 41.7377 214.933 48.6894 220.07C57.261 226.404 69.0131 229.86 80.9467 231.748C90.2208 233.215 100.886 241.613 108.515 242.571C120.977 244.136 134.948 235.139 131.722 242.036C111.026 273.315 18.9526 239.053 26.7369 191.78C23.1414 144.591 35.9549 100.26 51.114 97.2453C56.9683 96.8991 50.1171 99.8201 48.1836 109.15C46.6637 116.485 47.8899 125.276 44.4913 138.804C42.5261 146.626 37.8082 154.277 35.8962 164.22C34.692 170.482 40.4556 183.799 39.4339 190.914Z" fill="#D30909"/>
</svg>
