<svg xmlns="http://www.w3.org/2000/svg" xmlns:xlink="http://www.w3.org/1999/xlink" width="1024" zoomAndPan="magnify" viewBox="0 0 768 576" height="768" preserveAspectRatio="xMidYMid meet" version="1.0"><defs><clipPath id="1da21fbde6"><path d="M 536 82.265625 L 571.558594 82.265625 L 571.558594 106.539062 L 536 106.539062 Z M 536 82.265625 " clip-rule="nonzero"/></clipPath><clipPath id="4c43fe9b34"><path d="M 229.832031 523 L 275.613281 523 L 275.613281 560.390625 L 229.832031 560.390625 Z M 229.832031 523 " clip-rule="nonzero"/></clipPath></defs><path fill="#ffe164" d="M 336.890625 21.75 C 336.890625 21.75 332.695312 11.390625 324.050781 13.488281 C 317.085938 15.171875 316.070312 20.035156 315.277344 23.46875 C 314.371094 27.386719 315.558594 29.46875 315.558594 29.46875 L 321.957031 28.617188 C 321.957031 28.617188 333.078125 26.386719 334.773438 25.300781 C 336.472656 24.214844 336.890625 21.75 336.890625 21.75 " fill-opacity="1" fill-rule="nonzero"/><path fill="#f2a25c" d="M 330.570312 19.375 C 330.570312 19.375 327.628906 16.414062 323.378906 16.648438 C 319.128906 16.882812 316.414062 19.589844 316.414062 19.589844 C 316.414062 19.589844 318.085938 17.316406 320.175781 16.398438 C 322.265625 15.488281 325.363281 15.328125 327.058594 16.074219 C 329.433594 17.128906 330.570312 19.375 330.570312 19.375 " fill-opacity="1" fill-rule="nonzero"/><path fill="#f2a25c" d="M 338.898438 24.703125 C 338.898438 24.703125 344.160156 20.78125 340.558594 18.652344 C 337.316406 16.738281 322.425781 23.21875 321.679688 23.476562 C 320.152344 24 316.140625 26.429688 316.414062 26.753906 C 316.976562 27.414062 332.464844 23.328125 333.621094 23.339844 C 338.097656 23.394531 338.898438 24.703125 338.898438 24.703125 " fill-opacity="1" fill-rule="nonzero"/><path fill="#f27c79" d="M 341.683594 66.351562 C 352.605469 60.0625 424.710938 98.839844 444.273438 99.960938 C 468.835938 101.375 538 81.789062 547.496094 94.75 C 556.992188 107.714844 507.445312 132.308594 461.25 138.566406 C 433.363281 142.34375 375.199219 124.757812 349.210938 100.636719 C 336.808594 89.125 332.800781 71.46875 341.683594 66.351562 " fill-opacity="1" fill-rule="nonzero"/><g clip-path="url(#1da21fbde6)"><path fill="#f27c79" d="M 536.230469 91.550781 C 536.230469 91.550781 553.933594 82.339844 557.828125 82.554688 C 561.722656 82.769531 571.804688 82.554688 571.550781 84.746094 C 571.300781 86.941406 561.75 86.84375 561.804688 87.484375 C 561.863281 88.121094 563.585938 93.84375 560.152344 97.914062 C 556.71875 101.984375 544.890625 108.328125 541.875 105.945312 C 538.855469 103.566406 536.230469 91.550781 536.230469 91.550781 " fill-opacity="1" fill-rule="nonzero"/></g><path fill="#404859" d="M 428.472656 95.902344 C 399.816406 85.878906 350.558594 61.242188 341.683594 66.351562 C 332.800781 71.46875 336.808594 89.125 349.210938 100.636719 C 363.875 114.25 388.070312 129.785156 412 136.570312 C 424.035156 125.238281 427.738281 104.320312 428.472656 95.902344 " fill-opacity="1" fill-rule="nonzero"/><path fill="#93bdc6" d="M 352.382812 539.304688 C 341.550781 540.167969 324.324219 540.867188 313.488281 541.445312 C 291.628906 542.613281 278.230469 542.039062 256.441406 545.125 C 192.972656 554.117188 207.875 557.296875 210.492188 557.355469 C 257.003906 558.472656 293.671875 558.402344 340.160156 553.800781 C 346.828125 553.140625 365.351562 552.136719 372.015625 551.359375 C 376.175781 550.875 389.328125 550.890625 391.648438 544.726562 C 392.476562 542.539062 372.386719 537.714844 352.382812 539.304688 " fill-opacity="1" fill-rule="nonzero"/><g clip-path="url(#4c43fe9b34)"><path fill="#404859" d="M 256.488281 547.085938 C 251.550781 544.574219 253.515625 537.085938 251.761719 532.609375 C 251.640625 532.304688 251.429688 525.988281 251.472656 525.484375 C 251.664062 523.316406 248.871094 521.605469 245.503906 525.976562 C 238.867188 534.59375 233.058594 520.609375 233.015625 524.335938 C 232.886719 535.433594 227.917969 551.304688 230.933594 554.199219 C 236.703125 559.734375 274.214844 562.605469 275.421875 558.34375 C 276.148438 555.789062 265.023438 551.433594 256.488281 547.085938 " fill-opacity="1" fill-rule="nonzero"/></g><path fill="#404859" d="M 386.15625 534.984375 C 380.769531 532.339844 376.808594 524.863281 374.144531 520.085938 C 373.964844 519.765625 372.066406 515.019531 372.007812 514.480469 C 371.742188 512.160156 364.902344 505.734375 362.496094 510.445312 C 357.757812 519.722656 360.660156 508.148438 357.796875 510.976562 C 353.035156 515.6875 350.210938 537.464844 353.789062 540.535156 C 360.625 546.414062 408.542969 550.355469 408.84375 545.785156 C 409.023438 543.042969 395.472656 539.5625 386.15625 534.984375 " fill-opacity="1" fill-rule="nonzero"/><path fill="#404859" d="M 387.359375 361.117188 C 380.960938 311.128906 336.382812 187.148438 336.382812 187.148438 L 297.160156 195.527344 C 278.136719 186.148438 240.765625 185.9375 235.707031 197.234375 C 228.648438 212.992188 233.082031 241.847656 233.082031 241.847656 C 233.082031 241.847656 226.828125 529.425781 234.324219 532.203125 C 241.820312 534.980469 269.726562 531.417969 272.164062 526.152344 C 273.941406 522.324219 306.503906 365.59375 306.566406 298.808594 C 308.289062 301.929688 328.59375 367.671875 327.925781 407.136719 C 327.210938 449.554688 329.738281 510.160156 331.480469 510.945312 C 348.390625 518.554688 364.222656 523.246094 374.503906 519.730469 C 381.425781 517.363281 392.363281 400.21875 387.359375 361.117188 " fill-opacity="1" fill-rule="nonzero"/><path fill="#404859" d="M 260.558594 84.226562 C 272.421875 66.355469 291.953125 56.550781 314.414062 55.015625 C 334.96875 53.609375 355.269531 64.996094 363.148438 79.105469 C 370.449219 92.179688 356.652344 151.6875 356.046875 167.273438 C 354.710938 201.804688 354.023438 240.746094 354.023438 240.746094 C 354.023438 240.746094 228.726562 257.285156 229.703125 241.703125 C 230.59375 227.511719 232.648438 197.351562 235.539062 171.835938 C 239.402344 137.703125 245.597656 106.753906 260.558594 84.226562 " fill-opacity="1" fill-rule="nonzero"/><path fill="#293347" d="M 351.835938 232.042969 L 327.1875 233.273438 L 306.679688 215.15625 C 306.679688 215.15625 272.121094 236.773438 271.359375 236.796875 C 270.601562 236.820312 248.335938 248.941406 248.335938 248.941406 C 248.335938 248.941406 276.046875 257.339844 315.414062 258.355469 C 334.6875 258.851562 349.371094 257.007812 359.347656 255 C 356.769531 246.96875 354.234375 239.234375 351.835938 232.042969 " fill-opacity="1" fill-rule="nonzero"/><path fill="#ffe164" d="M 281.980469 64.335938 C 281.980469 64.335938 278.832031 108.242188 271.488281 123.695312 C 264.144531 139.152344 236.804688 144.976562 236.804688 144.976562 L 225.664062 247.082031 L 290.167969 252.375 C 294.867188 252.835938 305.996094 219.464844 305.996094 219.464844 C 305.996094 219.464844 318.507812 253.195312 322.957031 252.292969 L 359.636719 244.039062 C 359.636719 244.039062 357.78125 178.507812 358.328125 161.761719 C 358.871094 145.015625 356.976562 67.988281 356.976562 67.988281 C 356.976562 67.988281 347.101562 61.390625 333.851562 57.328125 C 320.605469 53.261719 306.648438 51.089844 281.980469 64.335938 " fill-opacity="1" fill-rule="nonzero"/><path fill="#404859" d="M 313.515625 54.894531 C 313.515625 54.894531 310.097656 54.308594 309.148438 55.542969 C 308.199219 56.777344 325.402344 99.910156 325.914062 98.199219 C 326.425781 96.492188 332.789062 62.003906 331.648438 58.675781 C 330.507812 55.355469 313.515625 54.894531 313.515625 54.894531 " fill-opacity="1" fill-rule="nonzero"/><path fill="#7f6363" d="M 336.292969 21.011719 C 332.773438 23.230469 331.839844 19.589844 323.199219 25.425781 C 320.828125 27.027344 319.640625 23.65625 316.144531 26.484375 C 312.371094 29.539062 317.675781 38.109375 317.675781 38.109375 C 317.675781 38.109375 334.046875 36.785156 335.628906 32.039062 C 335.628906 32.039062 343.089844 24.609375 336.292969 21.011719 " fill-opacity="1" fill-rule="nonzero"/><path fill="#ff867a" d="M 318.738281 34.152344 L 311.355469 54.816406 C 311.15625 57.484375 324.546875 66.648438 328.835938 63.792969 C 330.09375 62.953125 329.125 61.667969 328.183594 58.753906 L 323.242188 39 L 318.738281 34.152344 " fill-opacity="1" fill-rule="nonzero"/><path fill="#ff867a" d="M 322.828125 28.363281 L 318.167969 38.175781 C 316.890625 41.550781 318.472656 45.527344 321.753906 47.136719 C 324.375 48.425781 326.136719 48.773438 329.667969 49.015625 C 332.613281 49.214844 334.464844 46.636719 334.96875 42.71875 C 335.617188 37.632812 334.816406 32.675781 334.246094 30.039062 C 333.6875 27.464844 332.144531 25.65625 330.292969 24.921875 C 327.058594 27.566406 324.824219 24.863281 322.828125 28.363281 " fill-opacity="1" fill-rule="nonzero"/><path fill="#7f6363" d="M 320.851562 36.195312 L 321.730469 27.394531 C 322.15625 26.644531 323.730469 26.980469 324.238281 26.460938 C 323.816406 28.53125 323.21875 33.050781 323.675781 33.921875 C 324.839844 36.15625 324.960938 34.335938 328.378906 34.890625 C 330.554688 35.246094 334.167969 35.476562 335.191406 37.988281 C 335.222656 39.503906 335.917969 41.882812 335.710938 43.5 C 335.210938 47.417969 333.496094 50.777344 330.550781 50.574219 C 327.015625 50.332031 325.480469 49.6875 322.859375 48.402344 C 319.578125 46.789062 319.570312 39.570312 320.851562 36.195312 " fill-opacity="1" fill-rule="nonzero"/><path fill="#ffffff" d="M 327.925781 37.164062 C 327.925781 37.164062 330.242188 38.242188 333.6875 38.46875 C 333.6875 38.46875 333.484375 40.765625 332.046875 41.296875 C 330.605469 41.824219 328.378906 40.039062 327.925781 37.164062 " fill-opacity="1" fill-rule="nonzero"/><path fill="#ff867a" d="M 321.808594 32.714844 C 321.761719 32.097656 321.808594 31.484375 321.886719 30.875 C 322.039062 29.71875 322.007812 27.949219 320.246094 28.46875 C 317.683594 29.222656 316.90625 34.835938 319.59375 35.847656 C 321.59375 36.597656 321.921875 34.277344 321.808594 32.714844 " fill-opacity="1" fill-rule="nonzero"/><path fill="#293347" d="M 306.308594 258.050781 C 305.671875 281.730469 304.03125 305.378906 301.386719 328.953125 C 301.109375 331.402344 305.417969 331.386719 305.691406 328.953125 C 308.335938 305.378906 309.976562 281.730469 310.617188 258.050781 C 310.683594 255.585938 306.375 255.585938 306.308594 258.050781 " fill-opacity="1" fill-rule="nonzero"/><path fill="#293347" d="M 320.46875 277.449219 C 316.414062 281.058594 311.757812 283.878906 306.519531 285.957031 C 303.992188 286.957031 306.183594 290.257812 308.695312 289.261719 C 314.25 287.054688 319.214844 283.980469 323.511719 280.15625 C 325.472656 278.410156 322.429688 275.699219 320.46875 277.449219 " fill-opacity="1" fill-rule="nonzero"/><path fill="#c66c67" d="M 333.136719 32.675781 C 332.941406 33.160156 332.617188 33.542969 332.207031 33.855469 C 331.835938 34.136719 332.328125 34.664062 332.691406 34.386719 C 333.210938 33.992188 333.578125 33.484375 333.824219 32.886719 C 334 32.457031 333.3125 32.253906 333.136719 32.675781 " fill-opacity="1" fill-rule="nonzero"/><path fill="#e7f2f2" d="M 322.597656 25.519531 L 315.414062 34.152344 L 314.839844 32.152344 L 320.09375 25.300781 L 322.597656 25.519531 " fill-opacity="1" fill-rule="nonzero"/><path fill="#ffffff" d="M 358.25 165.449219 C 332.144531 165.816406 254.167969 162.722656 234.953125 161.941406 L 233.53125 174.976562 C 255.695312 176.734375 329.851562 179.644531 358.292969 180.722656 C 358.226562 174.746094 358.207031 169.433594 358.25 165.449219 " fill-opacity="1" fill-rule="nonzero"/><path fill="#ffffff" d="M 358.46875 193.292969 C 337.214844 194.078125 252.855469 190.746094 231.902344 189.890625 L 230.480469 202.941406 C 254.285156 204.792969 334.140625 207.875 358.769531 208.804688 C 358.660156 203.683594 358.554688 198.414062 358.46875 193.292969 " fill-opacity="1" fill-rule="nonzero"/><path fill="#404859" d="M 341.796875 172.261719 L 290.167969 175.15625 L 299.097656 100.878906 L 350.722656 97.984375 L 341.796875 172.261719 " fill-opacity="1" fill-rule="nonzero"/><path fill="#ffffff" d="M 313.566406 103.75 L 314.476562 101.515625 C 315.605469 98.746094 318.226562 96.875 321.207031 96.707031 L 324.816406 96.503906 C 324.816406 96.503906 326.949219 93.246094 329.394531 93.109375 C 331.839844 92.972656 332.722656 96.539062 332.722656 96.539062 L 335.632812 96.375 C 337.695312 96.261719 339.304688 98.132812 338.886719 100.160156 L 338.429688 102.359375 L 313.566406 103.75 " fill-opacity="1" fill-rule="nonzero"/><path fill="#ff867a" d="M 268.792969 74.25 C 268.792969 74.25 216.636719 107.363281 188.503906 140.839844 C 174.816406 157.125 167.300781 170.546875 173.761719 183.234375 C 193.511719 222 301.746094 153.449219 298.222656 143.121094 C 294.625 132.5625 282.753906 133.398438 265.285156 139.882812 C 247.816406 146.371094 227.183594 150.296875 227.183594 150.296875 C 227.183594 150.296875 258.324219 128.761719 269.714844 109 C 275.410156 99.125 268.792969 74.25 268.792969 74.25 " fill-opacity="1" fill-rule="nonzero"/><path fill="#ff867a" d="M 292.964844 130.484375 C 294.503906 126.992188 294.328125 121.835938 296.4375 124.117188 C 298.542969 126.398438 296.699219 129.898438 298.015625 131.632812 C 299.328125 133.367188 310.722656 127.0625 311.359375 129.382812 C 311.777344 130.925781 304.78125 132.984375 305.085938 133.359375 C 305.394531 133.730469 312.054688 131.007812 312.492188 132.953125 C 313.03125 135.335938 311.964844 138.015625 309.484375 139.777344 C 310.445312 139.707031 311.257812 139.8125 311.414062 140.332031 C 311.835938 141.714844 289.652344 150.3125 289.757812 138.792969 C 289.78125 136.304688 290.597656 135.867188 292.964844 130.484375 " fill-opacity="1" fill-rule="nonzero"/><path fill="#404859" d="M 230.347656 148.9375 C 237.296875 143.902344 260.027344 125.808594 269.714844 109 C 275.410156 99.125 268.792969 74.25 268.792969 74.25 C 268.792969 74.25 229.855469 98.972656 201.121094 127.289062 C 203.328125 134.300781 211.246094 147.457031 230.347656 148.9375 " fill-opacity="1" fill-rule="nonzero"/><path fill="#293347" d="M 240.335938 142.578125 C 239.761719 142.578125 239.21875 142.253906 238.957031 141.703125 C 238.601562 140.941406 238.929688 140.035156 239.691406 139.683594 C 257.121094 131.511719 271.414062 106.476562 271.558594 106.222656 C 271.972656 105.496094 272.894531 105.238281 273.628906 105.648438 C 274.359375 106.0625 274.617188 106.992188 274.203125 107.722656 C 273.601562 108.785156 259.292969 133.847656 240.980469 142.433594 C 240.769531 142.53125 240.550781 142.578125 240.335938 142.578125 " fill-opacity="1" fill-rule="nonzero"/></svg>