<svg width="3809" height="1188" viewBox="0 0 3809 1188" fill="none" xmlns="http://www.w3.org/2000/svg">
<path d="M1058.62 1187.85L1058.6 1187.83C1060.35 1187.8 1062.11 1187.62 1063.91 1187.31C1066.69 1186.85 1069.47 1186.36 1072.24 1185.89C1092.3 1182.92 1112.78 1181.65 1133.41 1182.06C1157.13 1182.65 1180.87 1183.29 1204.58 1183.85C1229.7 1184.46 1254.81 1185.09 1279.95 1185.81C1304.93 1186.45 1329.95 1187.3 1354.83 1187.3C1384.73 1187 1414.57 1185.98 1443.41 1179.94C1471.22 1173.41 1498.46 1164.33 1526.98 1160.94C1562.62 1155.4 1598.65 1151.51 1635.44 1152.5C1702.08 1152.14 1768.58 1150.72 1835.68 1153.47C1976.15 1157.12 2116.6 1160.29 2255.73 1154.94C2313.18 1153.12 2370.49 1150.46 2427.87 1148.19C2434.59 1149.42 2441.32 1150.78 2448.09 1152.5C2460.61 1156.06 2470.32 1153.19 2477.38 1146.31C2481.47 1146.21 2485.53 1145.95 2489.62 1145.85C2533.2 1144.63 2602.57 1144.22 2646.81 1143.78C2669.38 1143.58 2691.94 1143.32 2714.51 1143.06C2813.25 1141.58 2912.07 1140.29 3009.67 1131.89C3014.71 1131.16 3021.06 1130.63 3027.51 1129.72C3118.72 1137.15 3209.78 1143.42 3300.62 1147.77C3344.13 1151 3387.69 1154.86 3431.29 1158.78C3439.67 1159.54 3453.56 1172.11 3456.39 1160.85C3456.69 1159.64 3456.79 1159.26 3457.08 1158.09C3451.03 1156.75 3448.23 1156.14 3447.32 1155.01C3450.58 1156.05 3453.82 1156.91 3457.08 1158.09H3457.1C3487.85 1035.83 3490.56 1040.58 3455.02 1024.81C3452.4 1023.99 3449.79 1023.34 3447.17 1022.56C3481 1017.24 3514.91 1012.3 3548.98 1008.12C3603.79 1001.62 3659.3 998.774 3715.28 999.175C3763.42 999.533 3779.63 1021.88 3732.4 867.316C3732.29 866.055 3732.18 864.984 3732.08 863.697C3732.02 862.836 3731.54 862.672 3730.98 862.708C3727.09 850.828 3715.14 861.636 3707.26 860.965C3668.67 858.555 3630.4 858.294 3592.29 859.114C3590.92 848.201 3587.34 831.466 3582.69 808.322C3597.67 801.533 3611.07 790.338 3618 770.173C3662.19 773.459 3706.35 776.579 3750.56 780.058C3816.56 776.316 3822.6 803.446 3786.99 642.601C3784.97 633.487 3775.37 637.916 3769.57 636.413C3767.24 635.808 3764.91 635.331 3762.58 634.782C3763.93 634.105 3764.72 632.855 3764.28 630.307C3738.14 478.036 3747.25 496.777 3690.8 495.314C3666.72 496.426 3642.66 497.657 3618.6 498.877C3616 491.61 3612.3 482.679 3607.37 471.82C3609.75 451.449 3610.89 436.213 3610.75 425.152C3616.24 425.13 3622.22 425.103 3627.49 425.1C3670.27 424.583 3712.86 422.717 3755.08 418.832C3762.23 418.176 3769.47 417.95 3776.43 416.371C3781.35 415.249 3792.6 418.981 3790.58 410.745C3779.6 365.95 3759.88 324.914 3744.09 282.182C3743.87 282.225 3743.64 282.233 3743.41 282.285C3743.39 282.079 3743.35 281.874 3743.33 281.669C3743.29 281.31 3743.4 281.044 3743.55 280.813V280.786C3743.22 279.899 3742.84 279.048 3742.52 278.161C3718.66 281.042 3694.74 283.576 3670.78 285.93C3675.96 244.351 3651.87 185.668 3613.05 189.247C3548.3 192.702 3483.73 197.157 3419.03 200.954C3419.92 196.161 3420.8 191.337 3421.8 186.649C3403.94 167.377 3387.4 142.66 3368.22 128.837C3358.07 121.518 3347.69 126.597 3337.48 125.864C3324.44 124.931 3311.44 124.449 3298.44 123.854C3266.51 122.388 3234.64 121.393 3202.76 120.317C3195.16 111.158 3184.99 105.766 3172.29 106.922C3124.41 109.455 3076.55 112.57 3028.68 115.521C3011.79 115.111 2994.89 114.655 2978 114.261C2979.12 110.928 2980.23 107.581 2981.41 104.321C2966.44 85.0498 2953.6 60.3331 2936.49 46.5099C2927.43 39.1915 2916.3 44.2697 2906.19 43.5367C2893.29 42.6037 2880.37 42.1218 2867.47 41.5271C2821.14 39.3792 2774.8 37.9079 2728.46 36.3582C2616.57 33.3029 2504.67 31.0335 2392.77 28.134C2278.02 25.7861 2163.27 27.1802 2048.53 30.0356C2029.09 30.7789 2009.65 31.7428 1990.21 32.6912C1869.08 15.3832 1743.16 4.93184 1616.45 1.66922C1330.07 -5.48807 1051.36 24.349 823.697 86.5383C802.139 89.204 780.594 92.4005 759.061 95.6465C726.511 100.301 694.058 105.76 661.408 108.157C638.434 109.654 615.433 109.213 592.451 108.721C572.889 108.413 553.312 107.552 533.753 107.004C495.73 106.096 494.51 113.877 505.88 186.381C487.102 187.781 468.728 189.216 449.937 190.744C432.956 190.17 421.954 189.344 415.368 193.743C409.977 194.332 404.585 194.963 399.188 195.378C396.97 195.532 392.068 191.657 392.542 195.173C396.633 225.57 399.192 247.642 401.431 266.407C400.991 274.343 400.366 283.62 399.817 293.303C376.529 294.744 353.238 296.092 329.953 297.64C251.377 301.618 227.808 303.627 152.623 304.632C133.769 304.888 109.389 282.714 96.0692 304.376C94.0426 307.672 92.2661 311.23 90.6266 314.93C79.79 305.496 69.0012 296.055 69.8948 303.009C72.8502 326.012 73.8784 351.519 76.6733 375.475C74.1424 396.915 72.6104 419.191 69.664 439.609C68.7353 446.034 78.6013 437.692 89.076 428.625C90.7515 432.475 92.5849 436.208 94.7003 439.609C104.357 455.136 119.48 448.405 134.365 442.582C125.914 470.667 130.097 507.329 145.861 527.211C145.846 548.339 148.101 564.924 152.062 578.164C151.902 581.522 151.839 584.907 151.567 588.21C152.132 588.175 152.697 588.176 153.265 588.159C152.26 596.771 152.655 604.176 154.286 610.582C119.588 613.791 84.9738 618.907 50.3324 623.521C44.7995 624.962 39.1764 625.259 33.5424 625.475C29.2638 623.855 25.096 622.409 23.6301 625.992C20.1163 626.249 16.6202 626.607 13.1574 627.412C8.88455 628.407 -0.0547701 624.736 0.458112 631.698C8.32719 738.527 3.45823 760.945 18.6497 764.039C18.2667 765.976 20.4529 765.315 23.0531 764.244C28.1417 764.346 34.4757 763.675 43.6523 762.983C54.3498 761.47 65.0606 760.143 75.7641 758.779C73.5715 785.338 80.5529 813.888 99.6125 828.78C94.6465 829.821 89.6924 830.928 84.7525 832.261C80.1675 833.502 70.7731 829.344 71.0967 836.869C77.7466 991.626 68.888 973.428 126.166 968.727C146.093 966.502 166.027 964.344 185.952 962.057C196.211 960.878 198.421 960.611 206.882 959.622C204.734 975.036 205.519 977.852 214.98 978.214C215.004 979.609 216.518 978.522 217.568 978.241C218.743 978.248 220.067 978.279 221.46 978.267C225.5 978.37 230.078 978.524 233.368 978.626C236.588 978.729 239.797 978.883 243.016 979.036C269.661 980.354 296.313 982.138 322.874 985.921C353.724 990.248 384.634 992.47 415.547 995.324C421.458 995.735 427.381 996.037 433.294 996.314C414.596 1036.45 428.36 1106.15 468.423 1105.53V1105.51C470.172 1105.48 471.969 1105.3 473.816 1104.99C476.663 1104.53 479.513 1104.05 482.36 1103.57C502.86 1100.61 523.517 1099.34 544.092 1099.74C567.722 1100.34 591.365 1100.97 614.995 1101.53C640.027 1102.14 665.039 1102.78 690.07 1103.49C714.951 1104.13 739.847 1104.99 764.733 1104.99C794.677 1104.68 824.668 1103.66 854.42 1097.62C883.206 1091.09 911.785 1082.02 940.81 1078.62C948.564 1077.44 956.33 1076.41 964.097 1075.41C972.478 1076.14 980.861 1076.87 989.249 1077.63C995.221 1078.05 1001.17 1078.35 1007.13 1078.62C994.434 1118.76 1018.65 1188.46 1058.62 1187.85L1058.62 1187.85ZM3743.55 280.812C3743.72 281.273 3743.92 281.719 3744.09 282.18C3745.78 281.873 3747.49 281.601 3749.17 281.242C3750.85 280.883 3744.74 279.002 3743.55 280.832L3743.55 280.812ZM3717.42 499.522C3718.82 497.912 3722.62 498.409 3725.04 498.881C3722.45 498.522 3719.92 498.983 3717.42 499.522Z" fill="#FE5D5D"/>
</svg>
