<svg width="2500" height="574" viewBox="0 0 2500 574" fill="none" xmlns="http://www.w3.org/2000/svg">
<path d="M694.687 0L694.676 0.0132333C695.822 0.026366 696.981 0.112381 698.163 0.263531C699.986 0.486539 701.809 0.719328 703.63 0.94977C716.798 2.38446 730.242 2.99648 743.789 2.80072C759.361 2.51329 774.941 2.20613 790.51 1.93357C807.003 1.6387 823.488 1.33389 839.99 0.98947C856.388 0.677258 872.81 0.265988 889.147 0.265988C908.775 0.414661 928.362 0.905212 947.301 3.82687C965.557 6.98145 983.441 11.3694 1002.16 13.0077C1025.56 15.6885 1049.21 17.5657 1073.36 17.087C1117.11 17.2604 1160.77 17.9493 1204.82 16.6212C1297.04 14.8569 1389.24 13.3206 1480.58 15.91C1518.3 16.7871 1555.92 18.0757 1593.59 19.1729C1598 18.5757 1602.42 17.919 1606.86 17.0889C1615.08 15.3692 1621.46 16.7569 1626.09 20.08C1628.77 20.1295 1631.44 20.2535 1634.12 20.303C1662.74 20.8928 1708.28 21.091 1737.32 21.3016C1752.14 21.4007 1766.95 21.5246 1781.77 21.6509C1846.59 22.367 1911.46 22.9914 1975.53 27.0507C1978.84 27.4025 1983.01 27.6603 1987.25 28.1014C2047.12 24.5072 2106.9 21.4792 2166.54 19.3735C2195.11 17.8149 2223.7 15.9452 2252.32 14.0516C2257.82 13.6874 2266.95 7.60729 2268.8 13.0529C2269 13.6352 2269.06 13.8186 2269.26 14.3861C2265.28 15.0328 2263.44 15.3301 2262.85 15.8752C2264.98 15.3722 2267.12 14.9585 2269.26 14.3861H2269.27C2289.46 73.484 2291.23 71.1878 2267.9 78.8073C2266.18 79.2037 2264.47 79.5184 2262.75 79.895C2284.96 82.4673 2307.22 84.8544 2329.59 86.8746C2365.57 90.0166 2402.01 91.3934 2438.76 91.1997C2470.36 91.0262 2481.01 80.2238 2450 154.935C2449.93 155.544 2449.86 156.062 2449.79 156.684C2449.75 157.1 2449.44 157.179 2449.07 157.162C2446.51 162.904 2438.67 157.68 2433.5 158.005C2408.16 159.169 2383.04 159.296 2358.02 158.899C2357.12 164.174 2354.77 172.263 2351.72 183.45C2361.55 186.732 2370.35 192.143 2374.9 201.89C2403.91 200.302 2432.9 198.793 2461.92 197.112C2505.25 198.921 2509.22 185.807 2485.84 263.553C2484.51 267.958 2478.21 265.818 2474.4 266.544C2472.87 266.837 2471.34 267.067 2469.81 267.332C2470.7 267.66 2471.21 268.264 2470.93 269.496C2453.77 343.097 2459.75 334.038 2422.69 334.746C2406.88 334.208 2391.09 333.613 2375.29 333.024C2373.59 336.536 2371.15 340.853 2367.92 346.102C2369.48 355.948 2370.23 363.313 2370.14 368.66C2373.74 368.67 2377.67 368.683 2381.13 368.684C2409.21 368.935 2437.17 369.836 2464.89 371.714C2469.58 372.031 2474.34 372.14 2478.91 372.904C2482.13 373.446 2489.52 371.642 2488.2 375.623C2480.98 397.275 2468.04 417.11 2457.67 437.765C2457.53 437.744 2457.38 437.741 2457.23 437.716C2457.22 437.815 2457.19 437.914 2457.18 438.013C2457.15 438.187 2457.22 438.315 2457.32 438.427V438.44C2457.1 438.869 2456.86 439.28 2456.65 439.709C2440.98 438.316 2425.28 437.092 2409.55 435.953C2412.95 456.051 2397.13 484.416 2371.65 482.686C2329.14 481.016 2286.75 478.863 2244.28 477.028C2244.86 479.344 2245.44 481.676 2246.1 483.942C2234.37 493.258 2223.51 505.205 2210.92 511.886C2204.25 515.424 2197.44 512.969 2190.74 513.323C2182.18 513.774 2173.64 514.007 2165.11 514.295C2144.15 515.003 2123.23 515.484 2102.3 516.004C2097.31 520.431 2090.63 523.038 2082.29 522.479C2050.86 521.255 2019.44 519.749 1988.02 518.322C1976.93 518.521 1965.83 518.741 1954.74 518.932C1955.48 520.543 1956.21 522.16 1956.98 523.736C1947.15 533.051 1938.72 544.998 1927.49 551.68C1921.54 555.217 1914.24 552.763 1907.6 553.117C1899.13 553.568 1890.65 553.801 1882.18 554.088C1851.76 555.127 1821.34 555.838 1790.93 556.587C1717.47 558.064 1644.01 559.16 1570.55 560.562C1495.21 561.697 1419.88 561.023 1344.56 559.643C1331.79 559.284 1319.03 558.818 1306.27 558.359C1226.75 566.725 1144.08 571.777 1060.9 573.354C872.89 576.814 689.921 562.391 540.462 532.332C526.31 531.043 512.166 529.498 498.03 527.929C476.661 525.679 455.356 523.041 433.921 521.882C418.839 521.159 403.74 521.372 388.652 521.61C375.81 521.758 362.958 522.174 350.117 522.44C325.156 522.878 324.355 519.117 331.819 484.072C319.491 483.395 307.429 482.701 295.092 481.963C283.944 482.24 276.722 482.639 272.398 480.513C268.859 480.228 265.32 479.924 261.777 479.723C260.32 479.649 257.102 481.522 257.413 479.822C260.099 465.129 261.779 454.46 263.249 445.39C262.96 441.554 262.549 437.07 262.189 432.39C246.901 431.693 231.611 431.042 216.324 430.294C164.74 428.371 149.267 427.4 99.9082 426.914C87.5313 426.79 71.5259 437.508 62.7815 427.038C61.451 425.445 60.2848 423.725 59.2085 421.936C52.0944 426.496 45.0117 431.06 45.5984 427.698C47.5386 416.579 48.2136 404.25 50.0483 392.671C48.3868 382.308 47.3813 371.541 45.447 361.671C44.8373 358.566 51.3142 362.598 58.1907 366.98C59.2907 365.12 60.4941 363.315 61.8828 361.671C68.2225 354.166 78.1502 357.42 87.9221 360.234C82.3746 346.659 85.1203 328.938 95.4692 319.328C95.4596 309.116 96.9401 301.099 99.5403 294.699C99.4355 293.076 99.3937 291.44 99.2156 289.843C99.5864 289.86 99.9571 289.86 100.33 289.868C99.6701 285.706 99.9298 282.126 101 279.03C78.2216 277.479 55.4976 275.006 32.7559 272.775C29.1236 272.079 25.4319 271.935 21.7332 271.831C18.9243 272.614 16.1884 273.313 15.2261 271.581C12.9192 271.457 10.6239 271.284 8.35059 270.895C5.5455 270.414 -0.322786 272.188 0.013916 268.823C5.1799 217.186 1.98325 206.35 11.9563 204.855C11.7049 203.918 13.1402 204.238 14.8472 204.756C18.1878 204.706 22.346 205.031 28.3704 205.365C35.3931 206.096 42.4247 206.738 49.4514 207.397C48.012 194.56 52.5952 180.76 65.1077 173.562C61.8475 173.059 58.5953 172.523 55.3523 171.879C52.3423 171.279 46.1748 173.289 46.3872 169.652C50.7528 94.8483 44.9372 103.645 82.5396 105.917C95.6217 106.992 108.709 108.035 121.789 109.141C128.524 109.711 129.975 109.84 135.529 110.318C134.119 102.867 134.635 101.506 140.845 101.331C140.861 100.657 141.855 101.182 142.545 101.318C143.316 101.315 144.185 101.3 145.1 101.305C147.752 101.256 150.757 101.182 152.917 101.132C155.031 101.082 157.138 101.008 159.251 100.934C176.743 100.297 194.24 99.4346 211.677 97.6057C231.93 95.5144 252.222 94.4403 272.516 93.0606C276.396 92.8624 280.285 92.7163 284.167 92.5825C271.891 73.1825 280.927 39.4938 307.229 39.7894V39.8024C308.377 39.8156 309.557 39.9014 310.769 40.0525C312.638 40.2755 314.509 40.5085 316.378 40.739C329.836 42.1712 343.397 42.7857 356.905 42.5899C372.418 42.3025 387.939 41.9953 403.452 41.7228C419.885 41.4279 436.305 41.1231 452.738 40.7787C469.072 40.4665 485.416 40.055 501.753 40.055C521.412 40.2037 541.1 40.6944 560.632 43.6161C579.529 46.7706 598.292 51.1579 617.346 52.7967C622.437 53.3691 627.535 53.8673 632.634 54.3505C638.136 53.9987 643.639 53.6467 649.146 53.275C653.067 53.0768 656.974 52.9305 660.883 52.7967C652.55 33.3967 668.445 -0.292018 694.686 0.00359188L694.687 0ZM2457.32 438.428C2457.43 438.205 2457.56 437.989 2457.67 437.766C2458.79 437.915 2459.9 438.046 2461.01 438.22C2462.11 438.393 2458.1 439.302 2457.32 438.418L2457.32 438.428ZM2440.17 332.712C2441.09 333.49 2443.58 333.25 2445.17 333.022C2443.47 333.195 2441.81 332.972 2440.17 332.712Z" fill="url(#paint0_linear_33_2)"/>
<defs>
<linearGradient id="paint0_linear_33_2" x1="34.3741" y1="41.9999" x2="2972" y2="513.5" gradientUnits="userSpaceOnUse">
<stop offset="0.335453" stop-color="#E8C3DD" stop-opacity="0.75"/>
<stop offset="0.804218" stop-color="#F7F3F3"/>
</linearGradient>
</defs>
</svg>
