<svg width="2500" height="574" viewBox="0 0 2500 574" fill="none" xmlns="http://www.w3.org/2000/svg">
<path d="M1805.31 0L1805.32 0.0132333C1804.18 0.026366 1803.02 0.112381 1801.84 0.263531C1800.01 0.486539 1798.19 0.719328 1796.37 0.94977C1783.2 2.38446 1769.76 2.99648 1756.21 2.80072C1740.64 2.51329 1725.06 2.20613 1709.49 1.93357C1693 1.6387 1676.51 1.33389 1660.01 0.98947C1643.61 0.677258 1627.19 0.265988 1610.85 0.265988C1591.23 0.414661 1571.64 0.905212 1552.7 3.82687C1534.44 6.98145 1516.56 11.3694 1497.84 13.0077C1474.44 15.6885 1450.79 17.5657 1426.64 17.087C1382.89 17.2604 1339.23 17.9493 1295.18 16.6212C1202.96 14.8569 1110.76 13.3206 1019.42 15.91C981.703 16.7871 944.082 18.0757 906.414 19.1729C901.998 18.5757 897.58 17.919 893.14 17.0889C884.919 15.3692 878.544 16.7569 873.91 20.08C871.227 20.1295 868.56 20.2535 865.876 20.303C837.264 20.8928 791.721 21.091 762.681 21.3016C747.861 21.4007 733.051 21.5246 718.235 21.6509C653.412 22.367 588.538 22.9914 524.468 27.0507C521.156 27.4025 516.988 27.6603 512.753 28.1014C452.875 24.5072 393.096 21.4792 333.462 19.3735C304.895 17.8149 276.297 15.9452 247.677 14.0516C242.178 13.6874 233.055 7.60729 231.198 13.0529C231.001 13.6352 230.938 13.8186 230.743 14.3861C234.715 15.0328 236.556 15.3301 237.153 15.8752C235.016 15.3722 232.883 14.9585 230.743 14.3861H230.733C210.543 73.484 208.769 71.1878 232.097 78.8073C233.817 79.2037 235.532 79.5184 237.251 79.895C215.044 82.4673 192.781 84.8544 170.413 86.8746C134.428 90.0166 97.9922 91.3934 61.241 91.1997C29.6385 91.0262 18.992 80.2238 50.0022 154.935C50.0693 155.544 50.1426 156.062 50.2076 156.684C50.2495 157.1 50.5643 157.179 50.9329 157.162C53.4887 162.904 61.3317 157.68 66.5027 158.005C91.8367 159.169 116.962 159.296 141.98 158.899C142.882 164.174 145.228 172.263 148.282 183.45C138.447 186.732 129.653 192.143 125.1 201.89C96.0934 200.302 67.1034 198.793 38.0808 197.112C-5.24778 198.921 -9.21513 185.807 14.1632 263.553C15.488 267.958 21.7909 265.818 25.5969 266.544C27.1285 266.837 28.6582 267.067 30.1877 267.332C29.302 267.66 28.7856 268.264 29.0724 269.496C46.2341 343.097 40.2492 334.038 77.3083 334.746C93.1191 334.208 108.911 333.613 124.711 333.024C126.415 336.536 128.846 340.853 132.084 346.102C130.52 355.948 129.772 363.313 129.864 368.66C126.256 368.67 122.332 368.683 118.875 368.684C90.7892 368.935 62.828 369.836 35.1141 371.714C30.4193 372.031 25.6609 372.14 21.0926 372.904C17.866 373.446 10.477 371.642 11.8028 375.623C19.016 397.275 31.9575 417.11 42.3251 437.765C42.4718 437.744 42.6226 437.741 42.7691 437.716C42.7832 437.815 42.8089 437.914 42.8236 438.013C42.8487 438.187 42.7796 438.315 42.6832 438.427V438.44C42.8961 438.869 43.1437 439.28 43.3545 439.709C59.0224 438.316 74.7223 437.092 90.4535 435.953C87.0519 456.051 102.868 484.416 128.349 482.686C170.86 481.016 213.252 478.863 255.722 477.028C255.138 479.344 254.561 481.676 253.903 483.942C265.63 493.258 276.492 505.205 289.081 511.886C295.747 515.424 302.556 512.969 309.264 513.323C317.825 513.774 326.359 514.007 334.892 514.295C355.854 515.003 376.775 515.484 397.702 516.004C402.693 520.431 409.367 523.038 417.711 522.479C449.142 521.255 480.561 519.749 511.984 518.322C523.074 518.521 534.168 518.741 545.257 518.932C544.522 520.543 543.793 522.16 543.016 523.736C552.849 533.051 561.277 544.998 572.509 551.68C578.456 555.217 585.764 552.763 592.399 553.117C600.869 553.568 609.347 553.801 617.822 554.088C648.235 555.127 678.655 555.838 709.075 556.587C782.534 558.064 855.994 559.16 929.455 560.562C1004.79 561.697 1080.12 561.023 1155.44 559.643C1168.21 559.284 1180.97 558.818 1193.73 558.359C1273.25 566.725 1355.92 571.777 1439.1 573.354C1627.11 576.814 1810.08 562.391 1959.54 532.332C1973.69 531.043 1987.83 529.498 2001.97 527.929C2023.34 525.679 2044.64 523.041 2066.08 521.882C2081.16 521.159 2096.26 521.372 2111.35 521.61C2124.19 521.758 2137.04 522.174 2149.88 522.44C2174.84 522.878 2175.65 519.117 2168.18 484.072C2180.51 483.395 2192.57 482.701 2204.91 481.963C2216.06 482.24 2223.28 482.639 2227.6 480.513C2231.14 480.228 2234.68 479.924 2238.22 479.723C2239.68 479.649 2242.9 481.522 2242.59 479.822C2239.9 465.129 2238.22 454.46 2236.75 445.39C2237.04 441.554 2237.45 437.07 2237.81 432.39C2253.1 431.693 2268.39 431.042 2283.68 430.294C2335.26 428.371 2350.73 427.4 2400.09 426.914C2412.47 426.79 2428.47 437.508 2437.22 427.038C2438.55 425.445 2439.72 423.725 2440.79 421.936C2447.91 426.496 2454.99 431.06 2454.4 427.698C2452.46 416.579 2451.79 404.25 2449.95 392.671C2451.61 382.308 2452.62 371.541 2454.55 361.671C2455.16 358.566 2448.69 362.598 2441.81 366.98C2440.71 365.12 2439.51 363.315 2438.12 361.671C2431.78 354.166 2421.85 357.42 2412.08 360.234C2417.63 346.659 2414.88 328.938 2404.53 319.328C2404.54 309.116 2403.06 301.099 2400.46 294.699C2400.56 293.076 2400.61 291.44 2400.78 289.843C2400.41 289.86 2400.04 289.86 2399.67 289.868C2400.33 285.706 2400.07 282.126 2399 279.03C2421.78 277.479 2444.5 275.006 2467.24 272.775C2470.88 272.079 2474.57 271.935 2478.27 271.831C2481.08 272.614 2483.81 273.313 2484.77 271.581C2487.08 271.457 2489.38 271.284 2491.65 270.895C2494.45 270.414 2500.32 272.188 2499.99 268.823C2494.82 217.186 2498.02 206.35 2488.04 204.855C2488.3 203.918 2486.86 204.238 2485.15 204.756C2481.81 204.706 2477.65 205.031 2471.63 205.365C2464.61 206.096 2457.58 206.738 2450.55 207.397C2451.99 194.56 2447.4 180.76 2434.89 173.562C2438.15 173.059 2441.4 172.523 2444.65 171.879C2447.66 171.279 2453.83 173.289 2453.61 169.652C2449.25 94.8483 2455.06 103.645 2417.46 105.917C2404.38 106.992 2391.29 108.035 2378.21 109.141C2371.48 109.711 2370.03 109.84 2364.47 110.318C2365.88 102.867 2365.37 101.506 2359.15 101.331C2359.14 100.657 2358.14 101.182 2357.46 101.318C2356.68 101.315 2355.81 101.3 2354.9 101.305C2352.25 101.256 2349.24 101.182 2347.08 101.132C2344.97 101.082 2342.86 101.008 2340.75 100.934C2323.26 100.297 2305.76 99.4346 2288.32 97.6057C2268.07 95.5144 2247.78 94.4403 2227.48 93.0606C2223.6 92.8624 2219.72 92.7163 2215.83 92.5825C2228.11 73.1825 2219.07 39.4938 2192.77 39.7894V39.8024C2191.62 39.8156 2190.44 39.9014 2189.23 40.0525C2187.36 40.2755 2185.49 40.5085 2183.62 40.739C2170.16 42.1712 2156.6 42.7857 2143.1 42.5899C2127.58 42.3025 2112.06 41.9953 2096.55 41.7228C2080.12 41.4279 2063.69 41.1231 2047.26 40.7787C2030.93 40.4665 2014.58 40.055 1998.25 40.055C1978.59 40.2037 1958.9 40.6944 1939.37 43.6161C1920.47 46.7706 1901.71 51.1579 1882.65 52.7967C1877.56 53.3691 1872.47 53.8673 1867.37 54.3505C1861.86 53.9987 1856.36 53.6467 1850.85 53.275C1846.93 53.0768 1843.03 52.9305 1839.12 52.7967C1847.45 33.3967 1831.56 -0.292018 1805.31 0.00359188L1805.31 0ZM42.6832 438.427C42.5701 438.204 42.4362 437.988 42.3251 437.765C41.2132 437.914 40.097 438.046 38.9909 438.22C37.8898 438.393 41.8986 439.302 42.683 438.418L42.6832 438.427ZM59.8334 332.712C58.9138 333.49 56.4202 333.25 54.8312 333.022C56.5336 333.195 58.1903 332.972 59.8334 332.712Z" fill="url(#paint0_linear_33_4)"/>
<defs>
<linearGradient id="paint0_linear_33_4" x1="2465.63" y1="41.9999" x2="-472" y2="513.5" gradientUnits="userSpaceOnUse">
<stop offset="0.183371" stop-color="#E4E4E4"/>
<stop offset="0.50543" stop-color="#E8C3DD" stop-opacity="0.75"/>
</linearGradient>
</defs>
</svg>
