<svg width="750" height="750" viewBox="0 0 750 750" fill="none" xmlns="http://www.w3.org/2000/svg">
<rect x="178.938" y="90.3351" width="159.828" height="628.658" rx="10" transform="rotate(-10 178.938 90.3351)" fill="white" stroke="black"/>
<rect x="277.318" y="586.918" width="138.518" height="106.552" rx="5" transform="rotate(-10 277.318 586.918)" fill="#EA9797"/>
<path d="M193.074 109.148C192.595 106.429 194.411 103.835 197.13 103.356L323.695 81.039C326.415 80.5595 329.008 82.3753 329.488 85.0948L346.254 180.18C346.733 182.9 344.918 185.493 342.198 185.972L215.633 208.289C212.913 208.769 210.32 206.953 209.84 204.234L193.074 109.148Z" fill="#691515"/>
<rect x="213.484" y="224.898" width="138.518" height="106.552" rx="5" transform="rotate(-10 213.484 224.898)" fill="#9E2020"/>
<rect x="234.763" y="345.571" width="138.518" height="106.552" rx="5" transform="rotate(-10 234.763 345.571)" fill="#D52F2F"/>
<rect x="256.04" y="466.244" width="138.518" height="106.552" rx="5" transform="rotate(-10 256.04 466.244)" fill="#E16969"/>
<rect x="399.979" y="63.034" width="159.828" height="628.658" rx="10" transform="rotate(10 399.979 63.034)" fill="white" stroke="black"/>
<rect x="322.585" y="563.318" width="138.518" height="106.552" rx="5" transform="rotate(10 322.585 563.318)" fill="#87BDEF"/>
<path d="M406.829 85.548C407.309 82.8286 409.902 81.0127 412.621 81.4922L539.187 103.809C541.906 104.289 543.722 106.882 543.242 109.601L526.476 204.687C525.997 207.406 523.404 209.222 520.684 208.743L394.119 186.426C391.399 185.946 389.583 183.353 390.063 180.633L406.829 85.548Z" fill="#072642"/>
<rect x="386.418" y="201.297" width="138.518" height="106.552" rx="5" transform="rotate(10 386.418 201.297)" fill="#0F4B82"/>
<rect x="365.142" y="321.972" width="138.518" height="106.552" rx="5" transform="rotate(10 365.142 321.972)" fill="#166DBD"/>
<rect x="343.863" y="442.644" width="138.518" height="106.552" rx="5" transform="rotate(10 343.863 442.644)" fill="#3892E5"/>
<rect y="168.419" width="159.828" height="628.658" rx="10" transform="rotate(-25 0 168.419)" fill="white" stroke="black"/>
<rect x="223.555" y="622.619" width="138.518" height="106.552" rx="5" transform="rotate(-25 223.555 622.619)" fill="#E776DC"/>
<path d="M18.5252 182.932C17.3582 180.429 18.4409 177.454 20.9436 176.287L137.42 121.973C139.923 120.806 142.898 121.889 144.065 124.392L184.87 211.898C186.037 214.401 184.954 217.375 182.451 218.543L65.9745 272.857C63.4718 274.024 60.4969 272.941 59.3299 270.438L18.5252 182.932Z" fill="#62125A"/>
<rect x="68.1973" y="289.455" width="138.518" height="106.552" rx="5" transform="rotate(-25 68.1973 289.455)" fill="#8D1A81"/>
<path d="M122.096 405.041C120.929 402.539 122.012 399.564 124.515 398.397L240.992 344.083C243.494 342.916 246.469 343.999 247.636 346.501L288.441 434.007C289.608 436.51 288.525 439.485 286.023 440.652L169.546 494.966C167.043 496.133 164.068 495.05 162.901 492.547L122.096 405.041Z" fill="#C321B2"/>
<rect x="171.769" y="511.564" width="138.518" height="106.552" rx="5" transform="rotate(-25 171.769 511.564)" fill="#DF43CF"/>
<rect x="605.146" y="100.872" width="159.828" height="628.658" rx="10" transform="rotate(25 605.146 100.872)" fill="white" stroke="black"/>
<rect x="400.907" y="564.079" width="138.518" height="106.552" rx="5" transform="rotate(25 400.907 564.079)" fill="#69F8F1"/>
<path d="M605.936 124.392C607.103 121.89 610.078 120.807 612.58 121.974L729.057 176.288C731.56 177.455 732.643 180.43 731.476 182.933L690.671 270.439C689.504 272.941 686.529 274.024 684.026 272.857L567.549 218.543C565.047 217.376 563.964 214.401 565.131 211.898L605.936 124.392Z" fill="#026D67"/>
<rect x="556.264" y="230.915" width="138.518" height="106.552" rx="5" transform="rotate(25 556.264 230.915)" fill="#03A59C"/>
<path d="M502.364 346.501C503.531 343.998 506.506 342.916 509.009 344.083L625.486 398.397C627.989 399.564 629.071 402.539 627.904 405.041L587.1 492.547C585.933 495.05 582.958 496.133 580.455 494.966L463.978 440.652C461.475 439.485 460.393 436.51 461.56 434.007L502.364 346.501Z" fill="#06D5CA"/>
<path d="M450.58 457.555C451.747 455.053 454.722 453.97 457.225 455.137L573.702 509.451C576.204 510.618 577.287 513.593 576.12 516.096L535.315 603.602C534.148 606.104 531.173 607.187 528.671 606.02L412.194 551.706C409.691 550.539 408.609 547.564 409.776 545.061L450.58 457.555Z" fill="#26F5EA"/>
<rect x="187.55" y="387.342" width="360.048" height="282.575" fill="#FFBE5C"/>
<path d="M364.789 214.387C381.987 214.387 555.361 348.374 580.706 368.033C582.299 369.268 582.128 371.601 580.48 372.761L552.859 392.214L364.789 260.997L181.667 392.214L154.453 371.747C152.884 370.567 152.747 368.309 154.285 367.089C178.685 347.751 347.575 214.387 364.789 214.387Z" fill="#E38A05"/>
<path d="M368.524 255.799L546.644 387.342H188.501L368.524 255.799Z" fill="#FFBE5C"/>
<path d="M516.747 492.822C517.386 490.112 515.527 487.672 515.468 487.771C515.468 487.771 512.837 493.068 511.151 497.166C508.604 503.355 514.197 522.514 513.952 526.424C513.934 526.49 513.931 526.521 513.945 526.513C513.948 526.484 513.95 526.455 513.952 526.424C514.129 525.794 515.731 521.983 516.792 519.179C518.912 513.577 516.806 511.659 516.259 508.468C515.587 504.555 514.687 498.415 514.687 498.415C514.604 496.779 516.574 493.559 516.747 492.822Z" fill="#254783"/>
<path d="M420.629 474.466C420.579 473.762 420.902 473.063 421.481 472.66L461.906 444.56C463.196 443.663 464.97 444.553 465.043 446.123C468.863 527.612 467.911 586.872 464.941 668.669C464.902 669.745 464.019 670.609 462.943 670.609L422.621 670.609C421.488 670.609 420.582 669.637 420.624 668.505C423.679 586.48 426.558 556.896 420.629 474.466Z" fill="#DE7487" fill-opacity="0.71"/>
<path d="M454.554 459.466C457.278 457.808 461.143 458.721 462.783 461.409V461.409C464.139 463.632 463.483 466.323 461.247 467.714L432.379 485.677C429.57 487.426 425.542 486.493 423.838 483.7V483.7C422.428 481.388 423.127 478.589 425.471 477.162L454.554 459.466Z" fill="url(#paint0_linear_27_34)"/>
<path d="M456.785 458.093C454.124 458.595 425.076 476.788 425.076 476.788C419.63 480.607 423.333 487.469 427.868 482.968C429.622 481.227 430.404 481.977 434.032 481.627C439.753 481.073 437.42 473.106 442.657 471.148C446.52 469.704 453.206 474.863 453.589 471.008C453.843 468.454 458.772 465.549 459.737 465.713C461.091 465.575 461.898 459.539 461.308 459.015C459.929 457.789 459.445 457.59 456.785 458.093Z" fill="#DC6177"/>
<path d="M463.218 460.884L465.327 459.472L469.298 464.861L450.82 481.972L457.254 492.199" stroke="#5B5652" stroke-width="2" stroke-linecap="round" stroke-linejoin="round"/>
<rect x="467.858" y="513.598" width="26.4318" height="4.83202" rx="2.41601" transform="rotate(-122.175 467.858 513.598)" fill="#E88C1B"/>
<path d="M552.257 674.438L564.317 674.888C564.317 674.888 562.087 677.316 564.1 681.994C566.113 686.673 566.421 689.378 564.317 690.082C562.214 690.786 551.328 701.464 538.964 698.425C538.29 697.946 537.409 696.646 536.848 695.003C535.23 690.26 550.735 681.914 552.065 680.708C553.396 679.502 552.53 676.296 552.257 674.438Z" fill="#797369"/>
<path d="M504.821 521.457C498.811 526.455 470.018 495.384 465.848 507.826C467.325 517.751 501.11 536.351 508.753 532.433C511.68 530.932 512.878 529.494 513.678 527.375C518.91 513.513 526.117 484.389 524.028 475.177C513.664 467.193 505.371 504.782 504.821 521.457Z" fill="#6082D9"/>
<path d="M504.821 521.457C498.811 526.455 470.018 495.384 465.848 507.826C467.325 517.751 501.11 536.351 508.753 532.433C511.68 530.932 512.878 529.494 513.678 527.375C518.91 513.513 526.117 484.389 524.028 475.177C513.664 467.193 505.371 504.782 504.821 521.457Z" fill="#6082D9"/>
<path d="M500.212 675.933L511.024 677.024C511.024 677.024 509.051 679.461 510.489 683.001C511.927 686.541 512.446 688.843 510.413 689.729C508.38 690.615 498.086 698.658 487.124 695.367C486.542 694.924 485.812 693.777 485.387 692.358C484.16 688.265 498.487 682.145 499.74 681.207C500.993 680.269 500.368 677.516 500.212 675.933Z" fill="#797469"/>
<path d="M566.244 489.534C565.427 491.314 559.194 499.872 558.262 501.149C558.181 501.259 558.122 501.37 558.077 501.499C557.786 502.333 556.657 505.631 556.474 506.166C556.457 506.215 556.44 506.262 556.42 506.311C556.299 506.608 555.846 507.729 555.771 508C555.473 509.086 555.613 509.169 554.543 508.966C549.131 507.94 532.964 505.311 516.074 506.824C516.262 501.608 517.046 493.743 514.572 490.906C512.208 488.194 520.629 474.469 522.709 473.309C523.413 472.917 524.317 471.755 529.734 471.599C530.931 470.881 540.848 469.678 545.565 471.614C550.667 471.938 554.814 476.848 557.166 476.682C559.519 476.517 562.893 477.007 565.606 481.938C566.507 483.575 566.988 487.913 566.244 489.534Z" fill="#6082D9"/>
<path d="M544.575 490.28C547.927 489.135 551.072 473.212 551.899 473.85C552.725 474.488 554.601 475.472 554.601 475.472C554.601 475.472 558.879 476.253 559.162 476.655C559.446 477.057 547.576 490.793 551.794 497.815C553.272 500.277 554.186 500.295 558.435 501.293C558.435 501.293 552.59 514.813 552.709 526.347C552.828 537.988 554.598 537.845 557.472 552.952C561.76 575.487 560.519 613.304 560.519 613.304C560.519 613.304 559.771 618.341 560.519 625.631L564.928 657.68L567.98 674.937C567.98 674.937 546.695 676.741 544.58 676.698C542.464 676.656 544.174 641.065 540.849 615.096C539.105 601.475 536.779 577.029 534.346 567.079C531.913 557.13 521 611.849 521.863 615.096C523.091 619.719 515.676 677.103 513.04 677.05C510.404 676.997 493.37 677.755 493.37 677.755C493.37 677.755 503.828 626.279 502.866 618.235C500.195 595.905 514.007 556.057 514.145 555.121C518.064 542.435 519.536 537.317 519.144 524.552C518.73 511.084 513.718 506.943 513.04 499.547C513.011 499.229 513.04 493.912 514.735 492.503C515.92 491.519 518.127 491.447 518.127 491.447C519.113 486.796 521.218 487.886 520.871 483.198L520.476 477.122L520.871 473.85C520.871 473.85 524.392 472.219 524.871 472.228C525.176 472.235 527.623 471.724 527.623 471.724C527.623 471.724 524.342 486.837 526.471 489.916C528.599 492.996 541.222 491.425 544.575 490.28Z" fill="#FC5F5F"/>
<path d="M532.178 441.189C529.442 446.832 531.081 445.141 535.484 452.445C539.886 459.75 539.537 467.322 544.123 465.772C551.57 463.298 553.012 450.379 545.796 442.863C541.654 429.202 537.406 430.402 532.178 441.189Z" fill="#FFDA6A"/>
<path d="M532.183 469.124C531.012 475.282 532.314 476.197 532.314 476.197C532.314 476.197 540.407 483.386 543.69 472.713C544.41 466.644 544.909 465.007 544.683 460.501C540.363 458.126 533.212 463.708 532.183 469.124Z" fill="#D6BAD6"/>
<path d="M545.214 456.27C544.458 462.898 545.467 468.914 539.876 472.386C534.285 475.858 531.128 473.491 528.092 459.446C527.251 450.434 531.17 444.432 535.911 444.254C540.473 444.567 545.912 450.153 545.214 456.27Z" fill="#D6BAD6"/>
<path d="M540.614 471.316L542.081 469.652C541.291 471.362 539.148 472.979 536.734 473.518C534.32 474.056 532.557 471.418 532.263 470.936C532.295 470.596 532.809 471.128 532.809 471.128C532.809 471.128 534.246 473.268 535.403 473.072C536.204 473.676 537.077 472.96 538.133 472.908C539.014 472.685 540.614 471.316 540.614 471.316Z" fill="#C19CC1"/>
<path d="M544.343 458.055C543.379 460.323 543.493 462.184 544.663 462.409C545.833 462.634 547.631 461.058 548.051 458.768C548.471 456.479 547.355 454.342 546.185 454.117C545.015 453.892 544.248 455.584 544.343 458.055Z" fill="#D6BAD6"/>
<path d="M532.439 463.764C532.447 464.556 533.505 466.663 535.577 466.63C537.65 466.596 540.015 463.29 540.007 462.498C539.999 461.707 537.621 463.731 535.549 463.764C533.476 463.798 532.431 462.973 532.439 463.764Z" fill="#D9D9D9"/>
<path d="M543.226 470.594C540.167 472.898 540.853 472.726 539.253 473.419C537.622 474.125 535.077 474.082 535.077 474.082C538.24 474.174 540.185 473.975 543.226 470.594Z" fill="#C19CC1"/>
<path d="M546.619 458.799C546.483 459.732 546.2 460.005 545.36 460.082C545.57 459.561 545.563 459.277 545.245 458.796C545.628 458.533 545.775 458.136 546.014 457.335C545.968 458.316 546.078 458.677 546.619 458.799Z" fill="#C19CC1"/>
<path fill-rule="evenodd" clip-rule="evenodd" d="M545.796 455.295C545.771 455.286 545.746 455.277 545.719 455.267L545.661 455.433C545.684 455.441 545.705 455.449 545.725 455.456C545.965 455.545 546.066 455.583 546.146 455.648C546.227 455.712 546.287 455.805 546.43 456.024C546.442 456.042 546.454 456.061 546.468 456.082C546.797 456.586 546.95 456.866 547.078 457.4C547.179 457.822 547.111 458.109 547.018 458.502C546.995 458.596 546.971 458.696 546.948 458.806C546.927 458.906 546.909 458.999 546.892 459.087C546.817 459.478 546.763 459.758 546.514 460.101C546.379 460.286 546.146 460.47 545.939 460.611C545.836 460.68 545.743 460.737 545.675 460.777C545.641 460.797 545.613 460.813 545.594 460.823L545.573 460.835L545.567 460.838L545.566 460.839L545.643 460.996L545.644 460.996L545.646 460.995L545.652 460.991L545.675 460.979C545.695 460.967 545.723 460.951 545.758 460.931C545.829 460.889 545.925 460.83 546.031 460.758C546.241 460.616 546.496 460.418 546.649 460.207C546.924 459.83 546.985 459.506 547.061 459.111C547.077 459.026 547.094 458.937 547.114 458.844C547.135 458.743 547.158 458.649 547.18 458.557C547.275 458.159 547.355 457.825 547.243 457.358C547.108 456.795 546.943 456.495 546.608 455.983C546.592 455.958 546.577 455.935 546.562 455.912C546.43 455.709 546.353 455.591 546.25 455.509C546.147 455.426 546.018 455.378 545.796 455.295Z" fill="#C19CC1"/>
<path d="M522.792 616.478C522.792 616.478 535.363 565.38 534.328 565.481C532.469 557.645 519.739 613.268 519.739 613.268C525.711 613.613 504.2 677.342 500.059 677.461L514.988 677.104C524.12 670.792 524.717 616.729 522.792 616.478Z" fill="#A00808"/>
<path d="M512.083 688.659C513.388 686.953 509.427 679.567 510.633 678.309L500.116 678.666C500.166 680.37 499.677 681.067 497.941 681.878C497.941 681.878 502.406 684.419 504.105 686.161C505.805 687.903 506.644 691.871 506.644 691.871C506.644 691.871 510.75 690.402 512.083 688.659Z" fill="#4C463D"/>
<path d="M554.734 542.262C551.497 529.751 550.993 521.057 558.123 501.683C555.069 501.333 553.03 500.089 550.818 497.634C543.958 515.819 546.211 528.268 554.734 542.262Z" fill="#A00808"/>
<path d="M564.907 689.788C567.03 688.201 564.61 683.912 563.55 677.885L552.699 678.607C551.922 680.569 549.93 682.04 546.256 684.378C552.769 687.131 555.385 689.75 557.447 694.838L561.685 691.953C561.685 691.953 563.689 690.698 564.907 689.788Z" fill="#4C463D"/>
<path d="M466.631 495.818C463.856 495.384 462.601 495.052 460.967 494.327C459.076 494.897 459.332 495.486 460.36 496.657C462.47 496.976 463.485 497.26 464.392 498.329C464.789 503.432 465.272 505.596 467.156 506.739C470.964 507.201 472.426 506.699 472.387 502.818C470.276 498.511 469.03 496.815 466.631 495.818Z" fill="#D6BAD6"/>
<path d="M466.631 495.818C463.856 495.384 462.601 495.052 460.967 494.327C459.076 494.897 459.332 495.486 460.36 496.657C462.47 496.976 463.485 497.26 464.392 498.329C464.789 503.432 465.272 505.596 467.156 506.739C470.964 507.201 472.426 506.699 472.387 502.818C470.276 498.511 469.03 496.815 466.631 495.818Z" fill="#D6BAD6"/>
<path d="M464.534 500.996C462.513 498.613 460.781 498.049 457.029 497.893C456.726 500.861 458.114 503.748 461.919 509.939C464 510.905 464.51 510.184 465.064 508.216L461.983 502.314C463.907 502.14 464.349 501.81 464.534 500.996Z" fill="#D6BAD6"/>
<path d="M555.558 593.066L557.273 591.518L551.816 589.97L550.569 591.075L551.036 593.066L549.633 597.71V603.68L552.752 605.892L556.182 602.796V597.046L555.558 593.066Z" fill="#F92727" stroke="black"/>
<rect width="27.1311" height="26.0948" transform="matrix(-1 0 0 1 574.425 586.21)" fill="#EFA056"/>
<ellipse cx="13.5655" cy="6.19198" rx="13.5655" ry="6.19198" transform="matrix(-1 0 0 1 574.425 606.555)" fill="#EFA056"/>
<ellipse cx="13.5655" cy="6.19198" rx="13.5655" ry="6.19198" transform="matrix(-1 0 0 1 574.425 580.903)" fill="#FFBE5C"/>
<ellipse cx="11.2266" cy="4.64398" rx="11.2266" ry="4.64398" transform="matrix(-1 0 0 1 572.241 582.23)" fill="black"/>
<path d="M549.788 587.095C551.084 582.453 571.486 582.205 572.086 587.316C572.086 587.316 572.8 591.224 561.483 591.518C550.166 591.811 549.731 587.3 549.788 587.095Z" fill="#DC6177"/>
<path d="M547.294 601.69C557.388 607.757 563.379 607.263 574.425 602.135V607.473C563.091 612.859 557.125 612.895 547.294 606.584V601.69Z" fill="#E9E8E8"/>
<path d="M547.294 594.171C557.388 600.238 563.379 599.745 574.425 594.616V599.955C563.091 605.34 557.125 605.376 547.294 599.065V594.171Z" fill="#EAE9E9"/>
<path d="M556.025 593.729C556.278 592.555 557.429 591.297 557.429 591.297C557.389 591.123 553.991 588.381 552.283 589.97C551.779 590.439 551.557 590.838 551.192 591.518C549.954 593.822 550.409 595.927 550.256 598.815C550.147 600.882 550.442 601.868 550.724 603.902C550.935 605.429 550.183 607.269 551.192 607.882C553.375 609.209 552.595 603.238 553.998 604.344C554.858 605.022 555.558 608.324 556.649 606.113C557.976 603.425 556.989 600.956 556.649 597.71C556.484 596.135 555.698 595.252 556.025 593.729Z" fill="#DC6177"/>
<path d="M574.652 586.339L569.877 566.844H551.456L546.68 586.339" stroke="#272420" stroke-width="2" stroke-linecap="round" stroke-linejoin="round"/>
<path d="M552.315 565.431L554.894 572.115C556.63 573.397 557.543 573.882 557.688 568.938C560.905 570.636 562.658 571.455 564.701 570.092C566.594 569.836 567.08 569.435 567.482 568.512C568.035 566.483 567.718 564.915 566.121 561.393C567.609 558.293 567.609 556.961 566.306 555.256C560.207 551.425 557.118 553.327 552.315 565.431Z" fill="#D6BAD6"/>
<path d="M550.918 498.001C551.674 490.996 553.064 488.056 556.072 483.351C558.106 489.252 558.226 493.147 558.971 499.788L558.004 501.575C555.299 501.562 553.494 500.841 550.918 498.001Z" fill="#254783"/>
<path d="M567.458 523.954C563.59 530.185 556.348 554.712 561.103 557.766C567.156 563.812 576.69 537.214 578.197 530.188C578.831 527.235 579.617 525.999 579.328 523.992C577.435 510.865 568.81 485.918 563.585 479.514C550.554 479.559 555.431 494.692 567.458 523.954Z" fill="#6082D9"/>
<path d="M567.458 523.954C563.59 530.185 556.348 554.712 561.103 557.766C567.156 563.812 576.69 537.214 578.197 530.188C578.831 527.235 579.617 525.999 579.328 523.992C577.435 510.865 568.81 485.918 563.585 479.514C550.554 479.559 555.431 494.692 567.458 523.954Z" fill="#6082D9"/>
<defs>
<linearGradient id="paint0_linear_27_34" x1="449.892" y1="474.967" x2="443.329" y2="464.771" gradientUnits="userSpaceOnUse">
<stop stop-color="#E6D7BA"/>
<stop offset="0.239595" stop-color="white"/>
</linearGradient>
</defs>
</svg>
