<svg width="2501" height="574" viewBox="0 0 2501 574" fill="none" xmlns="http://www.w3.org/2000/svg">
<path d="M694.813 0L694.802 0.0132333C695.949 0.026366 697.107 0.112381 698.289 0.263531C700.112 0.486539 701.935 0.719328 703.757 0.94977C716.924 2.38446 730.368 2.99648 743.915 2.80073C759.487 2.51329 775.067 2.20613 790.636 1.93357C807.129 1.6387 823.614 1.33389 840.116 0.98947C856.514 0.677258 872.936 0.265989 889.273 0.265989C908.9 0.414661 928.488 0.905212 947.427 3.82687C965.683 6.98145 983.567 11.3694 1002.29 13.0077C1025.68 15.6885 1049.34 17.5657 1073.49 17.087C1117.24 17.2604 1160.9 17.9493 1204.94 16.6212C1297.17 14.8569 1389.37 13.3206 1480.71 15.91C1518.42 16.7871 1556.04 18.0757 1593.71 19.1729C1598.13 18.5757 1602.55 17.919 1606.99 17.0889C1615.21 15.3692 1621.58 16.7569 1626.22 20.08C1628.9 20.1295 1631.57 20.2535 1634.25 20.303C1662.86 20.8928 1708.4 21.091 1737.45 21.3016C1752.27 21.4007 1767.08 21.5246 1781.89 21.6509C1846.71 22.367 1911.59 22.9914 1975.66 27.0507C1978.97 27.4025 1983.14 27.6603 1987.37 28.1014C2047.25 24.5072 2107.03 21.4792 2166.66 19.3735C2195.23 17.8149 2223.83 15.9452 2252.45 14.0516C2257.95 13.6874 2267.07 7.60729 2268.93 13.0529C2269.12 13.6352 2269.19 13.8186 2269.38 14.3861C2265.41 15.0328 2263.57 15.3301 2262.97 15.8752C2265.11 15.3722 2267.24 14.9585 2269.38 14.3861H2269.39C2289.58 73.484 2291.36 71.1878 2268.03 78.8073C2266.31 79.2037 2264.59 79.5184 2262.88 79.8951C2285.08 82.4673 2307.35 84.8544 2329.71 86.8747C2365.7 90.0166 2402.13 91.3934 2438.88 91.1997C2470.49 91.0262 2481.13 80.2238 2450.12 154.935C2450.06 155.544 2449.98 156.062 2449.92 156.684C2449.88 157.1 2449.56 157.18 2449.19 157.162C2446.64 162.904 2438.79 157.68 2433.62 158.005C2408.29 159.169 2383.16 159.296 2358.15 158.899C2357.24 164.174 2354.9 172.263 2351.84 183.45C2361.68 186.732 2370.47 192.143 2375.03 201.89C2404.03 200.302 2433.02 198.793 2462.05 197.112C2505.37 198.921 2509.34 185.807 2485.96 263.553C2484.64 267.958 2478.34 265.818 2474.53 266.544C2473 266.837 2471.47 267.067 2469.94 267.332C2470.82 267.66 2471.34 268.264 2471.05 269.496C2453.89 343.097 2459.88 334.038 2422.82 334.746C2407.01 334.208 2391.21 333.613 2375.42 333.024C2373.71 336.536 2371.28 340.853 2368.04 346.102C2369.61 355.948 2370.35 363.313 2370.26 368.66C2373.87 368.67 2377.79 368.683 2381.25 368.684C2409.34 368.935 2437.3 369.836 2465.01 371.714C2469.71 372.031 2474.47 372.14 2479.03 372.904C2482.26 373.446 2489.65 371.642 2488.32 375.623C2481.11 397.275 2468.17 417.11 2457.8 437.765C2457.65 437.745 2457.5 437.741 2457.36 437.716C2457.34 437.815 2457.32 437.914 2457.3 438.013C2457.28 438.187 2457.35 438.315 2457.44 438.427V438.44C2457.23 438.869 2456.98 439.28 2456.77 439.709C2441.1 438.316 2425.4 437.092 2409.67 435.954C2413.07 456.052 2397.26 484.416 2371.78 482.686C2329.27 481.016 2286.87 478.863 2244.4 477.028C2244.99 479.344 2245.56 481.676 2246.22 483.942C2234.5 493.258 2223.63 505.205 2211.04 511.886C2204.38 515.424 2197.57 512.969 2190.86 513.323C2182.3 513.774 2173.77 514.007 2165.23 514.295C2144.27 515.003 2123.35 515.484 2102.42 516.005C2097.43 520.431 2090.76 523.038 2082.42 522.479C2050.98 521.255 2019.56 519.749 1988.14 518.322C1977.05 518.521 1965.96 518.741 1954.87 518.932C1955.6 520.543 1956.33 522.16 1957.11 523.736C1947.28 533.051 1938.85 544.998 1927.62 551.68C1921.67 555.217 1914.36 552.763 1907.73 553.117C1899.26 553.568 1890.78 553.801 1882.3 554.088C1851.89 555.127 1821.47 555.838 1791.05 556.587C1717.59 558.064 1644.13 559.161 1570.67 560.562C1495.34 561.697 1420.01 561.023 1344.68 559.643C1331.92 559.284 1319.16 558.818 1306.4 558.359C1226.87 566.725 1144.21 571.777 1061.03 573.354C873.016 576.814 690.047 562.392 540.588 532.332C526.436 531.043 512.292 529.498 498.156 527.929C476.787 525.679 455.482 523.041 434.047 521.882C418.965 521.159 403.866 521.372 388.778 521.61C375.936 521.758 363.084 522.175 350.243 522.44C325.281 522.878 324.481 519.117 331.945 484.072C319.617 483.395 307.555 482.701 295.218 481.963C284.07 482.24 276.848 482.639 272.524 480.513C268.985 480.228 265.446 479.924 261.903 479.723C260.446 479.649 257.228 481.522 257.539 479.822C260.225 465.129 261.905 454.461 263.375 445.391C263.086 441.555 262.675 437.07 262.315 432.39C247.026 431.694 231.737 431.042 216.45 430.294C164.866 428.371 149.393 427.4 100.034 426.914C87.6574 426.79 71.652 437.508 62.9076 427.038C61.5771 425.445 60.4108 423.725 59.3345 421.936C52.2204 426.496 45.1378 431.06 45.7244 427.698C47.6646 416.579 48.3395 404.25 50.1743 392.671C48.5128 382.308 47.5072 371.541 45.5729 361.671C44.9632 358.566 51.4401 362.598 58.3166 366.98C59.4166 365.12 60.6201 363.315 62.0088 361.671C68.3485 354.166 78.2763 357.42 88.0482 360.234C82.5007 346.659 85.2463 328.938 95.5953 319.328C95.5856 309.116 97.0661 301.099 99.6663 294.699C99.5616 293.076 99.5197 291.44 99.3416 289.843C99.7124 289.86 100.083 289.86 100.456 289.868C99.796 285.706 100.056 282.126 101.127 279.03C78.3477 277.479 55.6236 275.006 32.8819 272.776C29.2496 272.079 25.5579 271.935 21.8592 271.831C19.0504 272.614 16.3144 273.313 15.3521 271.581C13.0452 271.457 10.75 271.284 8.47668 270.895C5.67159 270.414 -0.196807 272.188 0.139895 268.823C5.30588 217.186 2.10924 206.35 12.0823 204.855C11.8309 203.918 13.2663 204.238 14.9732 204.756C18.3139 204.706 22.4718 205.031 28.4962 205.365C35.519 206.096 42.5507 206.738 49.5774 207.397C48.138 194.56 52.7213 180.76 65.2337 173.562C61.9736 173.059 58.7213 172.523 55.4783 171.879C52.4683 171.279 46.3008 173.289 46.5132 169.652C50.8788 94.8483 45.0633 103.645 82.6656 105.917C95.7478 106.992 108.835 108.035 121.915 109.141C128.65 109.711 130.101 109.84 135.655 110.318C134.245 102.867 134.761 101.506 140.971 101.331C140.987 100.657 141.981 101.182 142.671 101.318C143.442 101.315 144.311 101.3 145.226 101.305C147.878 101.256 150.883 101.182 153.043 101.132C155.157 101.082 157.263 101.008 159.377 100.934C176.869 100.297 194.366 99.4346 211.803 97.6057C232.056 95.5144 252.348 94.4403 272.642 93.0606C276.522 92.8624 280.411 92.7163 284.292 92.5825C272.017 73.1825 281.053 39.4938 307.355 39.7894V39.8024C308.503 39.8156 309.683 39.9014 310.895 40.0525C312.764 40.2756 314.635 40.5085 316.504 40.739C329.962 42.1712 343.523 42.7857 357.031 42.5899C372.544 42.3025 388.065 41.9953 403.578 41.7228C420.011 41.4279 436.431 41.1231 452.864 40.7787C469.198 40.4665 485.542 40.055 501.879 40.055C521.538 40.2037 541.226 40.6944 560.758 43.6161C579.655 46.7706 598.418 51.1579 617.472 52.7967C622.563 53.3691 627.661 53.8673 632.76 54.3505C638.262 53.9987 643.765 53.6467 649.272 53.275C653.193 53.0768 657.1 52.9305 661.009 52.7967C652.676 33.3967 668.571 -0.292018 694.812 0.00359188L694.813 0ZM2457.44 438.428C2457.56 438.205 2457.69 437.989 2457.8 437.766C2458.91 437.915 2460.03 438.046 2461.14 438.22C2462.24 438.393 2458.23 439.302 2457.44 438.418L2457.44 438.428ZM2440.29 332.712C2441.21 333.49 2443.71 333.25 2445.29 333.022C2443.59 333.195 2441.94 332.972 2440.29 332.712Z" fill="#EBC0EC"/>
</svg>
