<svg width="3811" height="1200" viewBox="0 0 3811 1200" fill="none" xmlns="http://www.w3.org/2000/svg">
<path d="M2739.18 0.994314L2739.2 1.02129C2737.45 1.08952 2735.69 1.30893 2733.9 1.6639C2731.14 2.19047 2728.37 2.73727 2725.61 3.27916C2705.63 6.71829 2685.18 8.46589 2664.54 8.54643C2640.82 8.50991 2617.08 8.4329 2593.36 8.42701C2568.22 8.40813 2543.11 8.3684 2517.96 8.24737C2492.97 8.1892 2467.94 7.92701 2443.07 8.51239C2413.18 9.5232 2383.38 11.2397 2354.68 17.9611C2327.03 25.1398 2300.01 34.8561 2271.58 38.9155C2236.09 45.2984 2200.16 50.0284 2163.35 49.9038C2096.74 51.8302 2030.29 54.8193 1963.15 53.6507C1822.63 53.3063 1682.15 53.4325 1543.18 62.061C1485.78 65.2267 1428.55 69.2399 1371.25 72.8589C1364.49 71.782 1357.73 70.5819 1350.93 69.0242C1338.33 65.762 1328.69 68.8605 1321.79 75.8996C1317.71 76.0983 1313.65 76.4502 1309.57 76.6489C1266.03 78.8939 1196.68 80.9357 1152.47 82.4119C1129.91 83.1479 1107.36 83.9348 1084.8 84.7271C986.123 88.5309 887.362 92.1469 789.992 102.838C784.964 103.685 778.63 104.367 772.202 105.431C680.844 100.143 589.663 96.0224 498.749 93.804C455.17 91.6041 411.53 88.7618 367.854 85.8708C359.461 85.3145 345.273 73.0661 342.71 84.3956C342.439 85.6071 342.351 85.9887 342.083 87.1693C348.162 88.3646 350.98 88.9134 351.916 90.0195C348.637 89.0557 345.369 88.2765 342.083 87.1693L342.066 87.1697C314.197 210.124 311.383 205.439 347.279 220.362C349.917 221.12 352.544 221.71 355.18 222.427C321.489 228.543 287.702 234.278 253.738 239.258C199.092 247.045 143.673 251.199 87.698 252.115C39.5644 252.888 22.8259 230.928 73.685 384.339C73.8168 385.597 73.9537 386.666 74.0829 387.95C74.1669 388.81 74.6503 388.962 75.2107 388.913C79.3822 400.698 91.0714 389.612 98.9619 390.098C137.598 391.599 175.866 390.96 213.945 389.243C215.575 400.122 219.541 416.767 224.736 439.796C209.919 446.935 196.791 458.442 190.332 478.765C146.082 476.519 101.862 474.439 57.5834 472C-8.31063 477.294 -14.9904 450.314 24.3945 610.276C26.6263 619.341 36.1203 614.687 41.9515 616.054C44.2981 616.603 46.6389 617.026 48.9809 617.519C47.6481 618.227 46.891 619.496 47.3878 622.033C77.104 773.647 67.5493 755.125 124.018 755.26C148.069 753.582 172.089 751.786 196.12 750C198.886 757.203 202.799 766.045 207.985 776.785C206.082 797.206 205.303 812.465 205.703 823.52C200.209 823.671 194.234 823.839 188.968 823.965C146.211 825.489 103.675 828.356 61.5629 833.233C54.429 834.057 47.1881 834.453 40.2685 836.196C35.3814 837.434 24.0414 833.967 26.254 842.153C38.2923 886.678 58.9653 927.238 75.7586 969.587C75.981 969.538 76.2104 969.525 76.4322 969.468C76.4585 969.673 76.5025 969.877 76.5297 970.081C76.5764 970.439 76.4775 970.708 76.3361 970.942L76.3367 970.969C76.6818 971.848 77.0789 972.69 77.4208 973.569C101.213 970.128 125.061 967.032 148.962 964.115C144.76 1005.8 170.226 1063.9 208.945 1059.41C273.6 1054.44 338.051 1048.46 402.637 1043.15C401.859 1047.96 401.095 1052.8 400.203 1057.51C418.514 1076.36 435.637 1100.68 455.133 1114.05C465.456 1121.13 475.706 1115.8 485.937 1116.3C498.996 1116.92 512.004 1117.1 525.012 1117.39C556.968 1118.1 588.85 1118.35 620.744 1118.67C628.561 1127.65 638.85 1132.8 651.529 1131.35C699.335 1127.69 747.107 1123.45 794.89 1119.37C811.787 1119.38 828.691 1119.44 845.587 1119.44C844.547 1122.8 843.516 1126.17 842.408 1129.46C857.836 1148.37 871.253 1172.78 888.682 1186.2C897.91 1193.3 908.919 1187.96 919.041 1188.46C931.96 1189.08 944.884 1189.26 957.803 1189.55C1004.17 1190.61 1050.53 1190.99 1096.89 1191.45C1208.82 1191.87 1320.75 1191.51 1432.68 1191.78C1547.46 1191.42 1662.14 1187.33 1776.78 1181.78C1796.2 1180.58 1815.61 1179.16 1835.02 1177.75C1956.52 1192.2 2082.66 1199.69 2209.4 1199.97C2495.88 1200.39 2773.81 1164.01 2999.95 1096.48C3021.44 1093.31 3042.9 1089.6 3064.35 1085.85C3096.78 1080.43 3129.1 1074.21 3161.68 1071.05C3184.61 1069.01 3207.62 1068.91 3230.61 1068.86C3250.17 1068.71 3269.76 1069.11 3289.33 1069.2C3327.36 1069.21 3328.4 1061.4 3315.33 989.186C3334.07 987.345 3352.4 985.478 3371.15 983.509C3388.14 983.684 3399.16 984.25 3405.64 979.698C3411.02 978.982 3416.39 978.224 3421.78 977.682C3423.99 977.476 3428.98 981.235 3428.43 977.731C3423.62 947.439 3420.54 925.433 3417.86 906.726C3418.12 898.782 3418.53 889.492 3418.85 879.799C3442.09 877.811 3465.35 875.916 3488.59 873.82C3567.05 867.995 3590.56 865.432 3665.71 862.659C3684.55 861.959 3709.44 883.554 3722.25 861.585C3724.2 858.242 3725.89 854.643 3727.44 850.905C3738.5 860.082 3749.51 869.267 3748.45 862.335C3744.95 839.407 3743.32 813.932 3739.97 790.049C3741.99 768.555 3743 746.249 3745.47 725.767C3746.24 719.322 3736.58 727.894 3726.32 737.205C3724.55 733.395 3722.63 729.707 3720.44 726.356C3710.42 711.061 3695.46 718.146 3680.71 724.317C3688.5 696.041 3683.46 659.488 3667.23 639.982C3666.75 618.86 3664.1 602.332 3659.83 589.189C3659.91 585.828 3659.9 582.443 3660.09 579.134C3659.53 579.182 3658.96 579.195 3658.39 579.225C3659.2 570.592 3658.63 563.198 3656.85 556.832C3691.46 552.808 3725.94 546.88 3760.47 541.451C3765.96 539.881 3771.58 539.451 3777.21 539.104C3781.52 540.622 3785.72 541.97 3787.1 538.353C3790.61 538.014 3794.1 537.573 3797.54 536.687C3801.79 535.592 3810.81 539.051 3810.13 532.104C3799.75 425.489 3804.09 402.963 3788.83 400.228C3789.17 398.281 3787 398.994 3784.43 400.126C3779.34 400.143 3773.02 400.964 3763.86 401.871C3753.2 403.635 3742.53 405.214 3731.86 406.829C3733.43 380.226 3725.78 351.849 3706.37 337.409C3711.31 336.251 3716.24 335.028 3721.14 333.579C3725.7 332.231 3735.19 336.166 3734.69 328.651C3724.4 174.093 3733.68 192.078 3676.53 198.125C3656.66 200.818 3636.79 203.444 3616.92 206.2C3606.69 207.62 3604.49 207.938 3596.05 209.126C3597.84 193.666 3596.99 190.869 3587.52 190.73C3587.46 189.336 3585.97 190.458 3584.93 190.763C3583.76 190.784 3582.43 190.784 3581.04 190.829C3577 190.821 3572.42 190.776 3569.13 190.75C3565.91 190.724 3562.69 190.645 3559.47 190.567C3532.8 189.877 3506.12 188.72 3479.47 185.563C3448.53 181.963 3417.58 180.469 3386.61 178.342C3380.69 178.071 3374.76 177.908 3368.84 177.771C3386.59 137.206 3371.19 67.8524 3331.15 69.4063L3331.15 69.4332C3329.4 69.5015 3327.61 69.7213 3325.77 70.0774C3322.94 70.6056 3320.1 71.1545 3317.27 71.6981C3296.84 75.1425 3276.22 76.8994 3255.64 76.9786C3232 76.9399 3208.35 76.8608 3184.71 76.8529C3159.68 76.8319 3134.66 76.7898 3109.61 76.6663C3084.73 76.6058 3059.82 76.3405 3034.94 76.9259C3005.01 77.9378 2975.05 79.6583 2945.45 86.401C2916.82 93.6026 2888.47 103.349 2859.53 107.421C2851.8 108.788 2844.07 110.001 2836.32 111.183C2827.93 110.652 2819.53 110.121 2811.13 109.55C2805.15 109.281 2799.19 109.118 2793.23 108.981C2804.98 68.5582 2779.13 -0.550003 2739.18 1.00169L2739.18 0.994314ZM76.3357 970.944C76.1525 970.487 75.9394 970.046 75.7594 969.588C74.0733 969.936 72.3792 970.247 70.7032 970.646C69.0349 971.044 75.1839 972.781 76.3353 970.923L76.3357 970.944ZM97.3081 751.68C95.9456 753.322 92.1365 752.914 89.7057 752.5C92.3066 752.798 94.8186 752.277 97.3081 751.68Z" fill="#E2FC79"/>
</svg>
